<svg xmlns="http://www.w3.org/2000/svg" xmlns:xlink="http://www.w3.org/1999/xlink" width="665" zoomAndPan="magnify" viewBox="0 0 498.75 407.249997" height="543" preserveAspectRatio="xMidYMid meet" version="1.0"><defs><clipPath id="abef2db5c1"><path d="M 0.332031 0 L 284 0 L 284 405.753906 L 0.332031 405.753906 Z M 0.332031 0 " clip-rule="nonzero"/></clipPath><clipPath id="3c93e303a0"><path d="M 225.222656 15.339844 L 497.722656 15.339844 L 497.722656 406 L 225.222656 406 Z M 225.222656 15.339844 " clip-rule="nonzero"/></clipPath></defs><g clip-path="url(#abef2db5c1)"><path fill="#231f20" d="M 167.957031 296.394531 L 116.128906 296.394531 L 116.128906 398.410156 L 16.675781 398.410156 L 16.675781 405.828125 L 267.40625 405.828125 L 267.40625 398.410156 L 167.957031 398.410156 Z M 123.546875 303.8125 L 160.539062 303.8125 L 160.539062 398.410156 L 123.546875 398.410156 Z M 130.390625 310.378906 L 130.390625 359.632812 L 153.695312 359.632812 L 153.695312 310.378906 Z M 146.277344 352.21875 L 137.808594 352.21875 L 137.808594 317.796875 L 146.277344 317.796875 Z M 176.59375 156.78125 L 176.59375 164.199219 L 215.949219 164.199219 L 215.949219 156.78125 L 210.078125 156.78125 L 210.078125 83.703125 L 215.949219 83.703125 L 215.949219 76.285156 L 176.582031 76.285156 L 176.582031 83.703125 L 182.453125 83.703125 L 182.453125 156.78125 Z M 202.671875 83.703125 L 202.671875 98.019531 L 189.882812 98.019531 L 189.882812 83.703125 Z M 189.871094 105.449219 L 202.660156 105.449219 L 202.660156 156.78125 L 189.871094 156.78125 Z M 122.359375 156.78125 L 122.359375 164.199219 L 161.726562 164.199219 L 161.726562 156.78125 L 155.855469 156.78125 L 155.855469 83.703125 L 161.726562 83.703125 L 161.726562 76.285156 L 122.359375 76.285156 L 122.359375 83.703125 L 128.230469 83.703125 L 128.230469 156.78125 Z M 148.4375 83.703125 L 148.4375 98.019531 L 135.648438 98.019531 L 135.648438 83.703125 Z M 135.648438 105.449219 L 148.4375 105.449219 L 148.4375 156.78125 L 135.648438 156.78125 Z M 68.136719 156.78125 L 68.136719 164.199219 L 107.492188 164.199219 L 107.492188 156.78125 L 101.632812 156.78125 L 101.632812 83.703125 L 107.492188 83.703125 L 107.492188 76.285156 L 68.125 76.285156 L 68.125 83.703125 L 73.996094 83.703125 L 73.996094 156.78125 Z M 94.214844 83.703125 L 94.214844 98.019531 L 81.414062 98.019531 L 81.414062 83.703125 Z M 81.414062 105.449219 L 94.203125 105.449219 L 94.203125 156.78125 L 81.414062 156.78125 Z M 149.476562 184.679688 L 149.476562 192.097656 L 155.347656 192.097656 L 155.347656 265.175781 L 149.476562 265.175781 L 149.476562 272.59375 L 188.84375 272.59375 L 188.84375 265.175781 L 182.972656 265.175781 L 182.972656 192.097656 L 188.84375 192.097656 L 188.84375 184.679688 Z M 162.765625 265.164062 L 162.765625 214.394531 L 175.554688 214.394531 L 175.554688 265.164062 Z M 175.554688 192.097656 L 175.554688 206.988281 L 162.765625 206.988281 L 162.765625 192.097656 Z M 95.242188 184.679688 L 95.242188 192.097656 L 101.113281 192.097656 L 101.113281 265.175781 L 95.253906 265.175781 L 95.253906 272.59375 L 134.609375 272.59375 L 134.609375 265.175781 L 128.738281 265.175781 L 128.738281 192.097656 L 134.609375 192.097656 L 134.609375 184.679688 Z M 108.53125 265.164062 L 108.53125 214.394531 L 121.320312 214.394531 L 121.320312 265.164062 Z M 121.320312 192.097656 L 121.320312 206.988281 L 108.53125 206.988281 L 108.53125 192.097656 Z M 183.535156 327.386719 L 183.535156 359.632812 L 226.292969 359.632812 L 226.292969 296.394531 L 183.535156 296.394531 Z M 218.875 352.21875 L 190.953125 352.21875 L 190.953125 327.386719 L 218.875 327.386719 Z M 190.953125 303.8125 L 218.875 303.8125 L 218.875 319.972656 L 190.953125 319.972656 Z M 58.355469 327.386719 L 58.355469 359.632812 L 101.113281 359.632812 L 101.113281 296.394531 L 58.355469 296.394531 Z M 93.707031 352.21875 L 65.773438 352.21875 L 65.773438 327.386719 L 93.695312 327.386719 L 93.695312 352.21875 Z M 65.773438 303.8125 L 93.695312 303.8125 L 93.695312 319.972656 L 65.773438 319.972656 Z M 159.902344 56.375 C 159.902344 46.53125 151.890625 38.519531 142.046875 38.519531 C 132.203125 38.519531 124.191406 46.53125 124.191406 56.375 L 124.191406 60.082031 L 159.914062 60.082031 L 159.914062 56.375 Z M 132.277344 52.667969 C 133.773438 48.734375 137.585938 45.9375 142.039062 45.9375 C 146.488281 45.9375 150.304688 48.734375 151.796875 52.667969 Z M 247.335938 382.078125 L 247.335938 24.847656 L 258.78125 24.847656 L 258.78125 17.433594 L 247.335938 17.433594 L 247.335938 7.417969 L 267.417969 7.417969 L 267.417969 0 L 16.675781 0 L 16.675781 7.417969 L 36.757812 7.417969 L 36.757812 17.433594 L 25.3125 17.433594 L 25.3125 24.847656 L 36.757812 24.847656 L 36.757812 382.078125 L 0.761719 382.078125 L 0.761719 389.496094 L 96.84375 389.496094 L 96.84375 382.078125 L 44.164062 382.078125 L 44.164062 24.847656 L 239.910156 24.847656 L 239.910156 382.078125 L 187.234375 382.078125 L 187.234375 389.496094 L 283.3125 389.496094 L 283.3125 382.078125 Z M 44.164062 17.433594 L 44.164062 7.417969 L 239.910156 7.417969 L 239.910156 17.433594 Z M 44.164062 17.433594 " fill-opacity="1" fill-rule="nonzero"/></g><g clip-path="url(#3c93e303a0)"><path fill="#231f20" d="M 386.507812 300.527344 L 336.640625 300.527344 L 336.640625 398.683594 L 240.949219 398.683594 L 240.949219 405.820312 L 482.199219 405.820312 L 482.199219 398.683594 L 386.507812 398.683594 Z M 343.777344 307.664062 L 379.371094 307.664062 L 379.371094 398.683594 L 343.777344 398.683594 Z M 350.363281 313.984375 L 350.363281 361.375 L 372.785156 361.375 L 372.785156 313.984375 Z M 365.648438 354.238281 L 357.5 354.238281 L 357.5 321.121094 L 365.648438 321.121094 Z M 394.820312 166.191406 L 394.820312 173.328125 L 432.6875 173.328125 L 432.6875 166.191406 L 427.039062 166.191406 L 427.039062 95.878906 L 432.6875 95.878906 L 432.6875 88.742188 L 394.808594 88.742188 L 394.808594 95.878906 L 400.457031 95.878906 L 400.457031 166.191406 Z M 419.910156 95.878906 L 419.910156 109.65625 L 407.605469 109.65625 L 407.605469 95.878906 Z M 407.59375 116.800781 L 419.902344 116.800781 L 419.902344 166.191406 L 407.59375 166.191406 Z M 342.636719 166.191406 L 342.636719 173.328125 L 380.515625 173.328125 L 380.515625 166.191406 L 374.863281 166.191406 L 374.863281 95.878906 L 380.515625 95.878906 L 380.515625 88.742188 L 342.636719 88.742188 L 342.636719 95.878906 L 348.285156 95.878906 L 348.285156 166.191406 Z M 367.726562 95.878906 L 367.726562 109.65625 L 355.421875 109.65625 L 355.421875 95.878906 Z M 355.421875 116.800781 L 367.726562 116.800781 L 367.726562 166.191406 L 355.421875 166.191406 Z M 290.460938 166.191406 L 290.460938 173.328125 L 328.328125 173.328125 L 328.328125 166.191406 L 322.691406 166.191406 L 322.691406 95.878906 L 328.328125 95.878906 L 328.328125 88.742188 L 290.453125 88.742188 L 290.453125 95.878906 L 296.101562 95.878906 L 296.101562 166.191406 Z M 315.554688 95.878906 L 315.554688 109.65625 L 303.238281 109.65625 L 303.238281 95.878906 Z M 303.238281 116.800781 L 315.542969 116.800781 L 315.542969 166.191406 L 303.238281 166.191406 Z M 368.726562 193.039062 L 368.726562 200.175781 L 374.375 200.175781 L 374.375 270.488281 L 368.726562 270.488281 L 368.726562 277.625 L 406.605469 277.625 L 406.605469 270.488281 L 400.957031 270.488281 L 400.957031 200.175781 L 406.605469 200.175781 L 406.605469 193.039062 Z M 381.511719 270.476562 L 381.511719 221.628906 L 393.820312 221.628906 L 393.820312 270.476562 Z M 393.820312 200.175781 L 393.820312 214.5 L 381.511719 214.5 L 381.511719 200.175781 Z M 316.542969 193.039062 L 316.542969 200.175781 L 322.191406 200.175781 L 322.191406 270.488281 L 316.554688 270.488281 L 316.554688 277.625 L 354.421875 277.625 L 354.421875 270.488281 L 348.773438 270.488281 L 348.773438 200.175781 L 354.421875 200.175781 L 354.421875 193.039062 Z M 329.328125 270.476562 L 329.328125 221.628906 L 341.636719 221.628906 L 341.636719 270.476562 Z M 341.636719 200.175781 L 341.636719 214.5 L 329.328125 214.5 L 329.328125 200.175781 Z M 401.496094 330.347656 L 401.496094 361.375 L 442.640625 361.375 L 442.640625 300.527344 L 401.496094 300.527344 Z M 435.5 354.238281 L 408.632812 354.238281 L 408.632812 330.347656 L 435.5 330.347656 Z M 408.632812 307.664062 L 435.5 307.664062 L 435.5 323.210938 L 408.632812 323.210938 Z M 281.050781 330.347656 L 281.050781 361.375 L 322.191406 361.375 L 322.191406 300.527344 L 281.050781 300.527344 Z M 315.066406 354.238281 L 288.1875 354.238281 L 288.1875 330.347656 L 315.054688 330.347656 L 315.054688 354.238281 Z M 288.1875 307.664062 L 315.054688 307.664062 L 315.054688 323.210938 L 288.1875 323.210938 Z M 378.761719 69.582031 C 378.761719 60.113281 371.050781 52.402344 361.578125 52.402344 C 352.105469 52.402344 344.398438 60.113281 344.398438 69.582031 L 344.398438 73.152344 L 378.769531 73.152344 L 378.769531 69.582031 Z M 352.179688 66.015625 C 353.617188 62.234375 357.285156 59.539062 361.570312 59.539062 C 365.851562 59.539062 369.523438 62.234375 370.960938 66.015625 Z M 462.886719 382.972656 L 462.886719 39.25 L 473.898438 39.25 L 473.898438 32.113281 L 462.886719 32.113281 L 462.886719 22.476562 L 482.210938 22.476562 L 482.210938 15.339844 L 240.949219 15.339844 L 240.949219 22.476562 L 260.269531 22.476562 L 260.269531 32.113281 L 249.257812 32.113281 L 249.257812 39.25 L 260.269531 39.25 L 260.269531 382.972656 L 225.632812 382.972656 L 225.632812 390.109375 L 318.082031 390.109375 L 318.082031 382.972656 L 267.398438 382.972656 L 267.398438 39.25 L 455.742188 39.25 L 455.742188 382.972656 L 405.054688 382.972656 L 405.054688 390.109375 L 497.503906 390.109375 L 497.503906 382.972656 Z M 267.398438 32.113281 L 267.398438 22.476562 L 455.742188 22.476562 L 455.742188 32.113281 Z M 267.398438 32.113281 " fill-opacity="1" fill-rule="nonzero"/></g></svg>