<svg xmlns="http://www.w3.org/2000/svg" xmlns:xlink="http://www.w3.org/1999/xlink" width="500" zoomAndPan="magnify" viewBox="0 0 375 374.999991" height="500" preserveAspectRatio="xMidYMid meet" version="1.0"><defs><clipPath id="286255bfeb"><path d="M 31.363281 5 L 341 5 L 341 373 L 31.363281 373 Z M 31.363281 5 " clip-rule="nonzero"/></clipPath></defs><g clip-path="url(#286255bfeb)"><path fill="#cb2d2d" d="M 181.65625 372.046875 C 174.59375 372.84375 169.273438 368.367188 169.4375 361.339844 C 168.285156 358.414062 162.5 361.863281 159.664062 361.242188 C 147.335938 363.339844 134.847656 362.515625 122.515625 361 C 117.25 359.0625 112.464844 368.988281 109.984375 360.761719 C 99.570312 363.628906 94.253906 349.140625 103.023438 343.808594 C 108.773438 341.703125 106.019531 354.917969 113.933594 349.492188 C 124.949219 343.789062 125.480469 330.207031 130.296875 320.214844 C 133.515625 312.441406 144.199219 309.636719 142.617188 300.992188 C 150.566406 296.851562 160.414062 301.003906 169.117188 300.597656 C 177.128906 301.953125 182.480469 295.960938 191.027344 298.300781 C 199.386719 298.109375 207.636719 300.117188 214.632812 304.773438 C 227.257812 311.375 243.089844 310.339844 255.632812 304.023438 C 261.089844 298.25 276.9375 305.328125 268.929688 311.726562 C 265.183594 301.746094 255.050781 309.503906 248.175781 312.160156 C 233.332031 317.632812 217.539062 311.628906 204.546875 304.242188 C 196.945312 302.046875 206.6875 311.609375 210.402344 310.539062 C 217.792969 314.6875 222.851562 322.261719 222.082031 330.941406 C 223.082031 337.960938 221.46875 350.226562 231.324219 350.777344 C 236.488281 352.679688 238.488281 356.277344 240.183594 350.117188 C 244.3125 351.425781 241.652344 359.867188 246.5625 358.570312 C 255.457031 358.371094 264.515625 356.640625 273.300781 358.183594 C 270.261719 364.550781 260.113281 358.902344 254.296875 361.792969 C 252.054688 362.230469 245.78125 362.976562 251.476562 362.816406 C 256.324219 363.207031 261.6875 362.132812 266.082031 364.347656 C 259.621094 368.347656 249.816406 365.511719 242.109375 365.664062 C 234.640625 364.867188 246.6875 361.085938 239.152344 362.644531 C 230.996094 363.578125 220.289062 365.542969 215.164062 357.265625 C 207.34375 346.671875 206.199219 333.234375 204.800781 320.613281 C 203.996094 312.410156 197.074219 305.0625 188.378906 306.484375 C 185.402344 306.546875 181.449219 305.589844 182.585938 309.933594 C 181.757812 321.621094 182 333.640625 178.417969 344.839844 C 177.425781 352.90625 182.351562 360.5 182.460938 367.253906 C 190.546875 368.929688 199.664062 366.191406 207.175781 369.636719 C 203.453125 374.894531 193.179688 371.5 186.820312 372.328125 C 185.097656 372.269531 183.375 372.214844 181.660156 372.046875 Z M 169.15625 351.707031 C 170.039062 343.386719 168.75 334.714844 171.054688 326.632812 C 176.5625 324.433594 168.449219 318.671875 171.128906 313.648438 C 169.757812 302.21875 157.878906 310.789062 152.835938 314.753906 C 144.734375 320.683594 139.84375 329.710938 136.5 338.957031 C 133.484375 345.761719 127.855469 350.71875 122.71875 355.886719 C 138.089844 356.257812 153.460938 356.765625 168.839844 356.691406 Z M 109.019531 354.554688 C 106.085938 349.054688 100.917969 358.8125 109.019531 354.554688 Z M 128.183594 345.582031 C 133.097656 336.019531 112.902344 355.929688 121.023438 351.515625 C 123.605469 349.816406 126.25 348.027344 128.183594 345.582031 Z M 219.042969 325.332031 C 218.816406 316.316406 214.09375 325.609375 217.796875 328.917969 C 219.089844 328.367188 218.894531 326.449219 219.042969 325.332031 Z M 120.089844 329.484375 C 125.335938 327.878906 122.304688 332.0625 120.089844 329.484375 Z M 127.261719 311.695312 C 119.765625 307.703125 109.027344 312.5 103.046875 305.4375 C 95.746094 301.4375 92.492188 290.0625 82.207031 295.285156 C 75.652344 300.898438 66.398438 298.210938 58.582031 297.050781 C 52.367188 294.703125 46.992188 289.621094 49.414062 282.605469 C 40.363281 283.09375 37.148438 274.496094 31.40625 270.199219 C 39.191406 262.214844 42.34375 250.871094 47.503906 241.140625 C 51.007812 234.226562 54.339844 227.195312 55.957031 219.570312 C 63.308594 203.769531 68.507812 186.964844 73.15625 170.179688 C 75.058594 161.03125 86.3125 162.8125 93.355469 161.367188 C 100.769531 159.226562 111.375 163.097656 116.558594 157.296875 C 120.304688 144.582031 118.449219 131.074219 119.8125 118.019531 C 119.121094 110.289062 123.1875 104.328125 126.460938 97.128906 C 135.03125 85.074219 135.578125 69.824219 136.777344 55.636719 C 136.175781 49.445312 129.097656 43.25 137.675781 39.707031 C 138.234375 35.722656 137.59375 31.695312 137.507812 27.691406 C 141.363281 28.488281 148.5625 26.941406 149.191406 31.953125 C 146.109375 39.070312 152.617188 45.710938 148.945312 53.191406 C 148.988281 64.0625 148.683594 75.25 151.5625 85.800781 C 153.867188 93.273438 160.285156 99.730469 160.433594 107.511719 C 157.46875 106.472656 153.953125 101.992188 155.519531 109.414062 C 154.324219 113.894531 159.238281 117.824219 158.582031 111.179688 C 152.167969 105.613281 168.832031 110.609375 162.003906 115.257812 C 163.734375 119.257812 163.839844 123.722656 159.066406 125.964844 C 162.765625 129.980469 160.742188 136.683594 161.140625 141.792969 C 164.410156 147.433594 157.234375 161.503906 168.683594 157.410156 C 177.472656 155.796875 187.867188 156.824219 194.785156 150.238281 C 200.988281 144.984375 199.621094 133.875 200.195312 126.113281 C 192.65625 126.023438 188.488281 119.730469 185.082031 114.300781 C 178.917969 112.265625 164.355469 116.121094 166.859375 105.457031 C 169.074219 87.011719 172.449219 68.722656 174.933594 50.308594 C 178.027344 37.757812 178.476562 24.546875 181.261719 11.855469 C 180.589844 -0.0585938 193.675781 7.746094 200.671875 6.4375 C 219.128906 7.566406 237.644531 6.90625 256.097656 7.632812 C 263.492188 7.308594 258.132812 12.179688 258.421875 14.972656 C 264.988281 17.261719 259.257812 29.8125 257.304688 35.320312 C 255.859375 45.929688 256.117188 56.773438 253.710938 67.296875 C 252.386719 76.902344 248.910156 86.015625 246.625 95.34375 C 244.273438 102.691406 249.976562 119.136719 238.84375 118.851562 C 231.085938 119.726562 222.65625 117.605469 215.351562 120.527344 C 208.46875 122.769531 201.691406 126.480469 203.597656 135.222656 C 202.652344 143.039062 203.769531 150.304688 208.980469 156.136719 C 216.539062 159.136719 225.25 157.179688 233.273438 158.167969 C 242.367188 158.402344 251.414062 159.671875 260.429688 160.53125 C 264.597656 155.632812 264.0625 145.292969 257.804688 141.636719 C 248.910156 138.355469 245.097656 129.109375 247.453125 120.230469 C 248.597656 112.820312 248.007812 100.328125 258.722656 100.886719 C 268.023438 99.960938 277.984375 98.550781 286.492188 103.441406 C 289.9375 104.109375 291.457031 106.042969 290.613281 109.535156 C 290.207031 117.347656 291.863281 125.613281 288.835938 133 C 285.96875 142.328125 274.066406 139.5625 270.265625 146.921875 C 264.839844 150.054688 269.078125 156.730469 270.507812 160.246094 C 280.085938 160.085938 289.492188 163.09375 299.042969 163.914062 C 306.464844 165.816406 315.628906 163.449219 321.585938 169.125 C 325.988281 176.585938 324.15625 185.921875 325.734375 194.1875 C 327.640625 209.554688 327.816406 225.253906 331.675781 240.304688 C 333.796875 247.769531 336.078125 255.320312 340.070312 261.988281 C 343.660156 271.492188 327.636719 271.125 331.378906 279.890625 C 333.609375 291.035156 319.042969 288.308594 313.816406 293.425781 C 305.570312 294.8125 309.183594 307.34375 299.96875 306.222656 C 292.457031 314.023438 282.667969 311.378906 275.625 304.3125 C 271.507812 303.28125 268.347656 294.765625 274.964844 299.078125 C 281.828125 302.582031 291.460938 310.246094 297.933594 301.871094 C 299.785156 299.675781 303.207031 298.101562 302.09375 294.734375 C 301.921875 282.828125 300.703125 270.859375 301.65625 258.992188 C 304.433594 269.824219 303.335938 281.71875 305.363281 292.871094 C 311.347656 286.582031 321.144531 287.320312 327.011719 281.6875 C 323.683594 268.988281 323.996094 255.59375 321.476562 242.691406 C 320.230469 229.929688 317.714844 217.136719 318.164062 204.304688 C 322.507812 207.773438 320.863281 220.210938 323.164062 227.085938 C 325.695312 240.535156 326.316406 254.507812 330.925781 267.46875 C 337.679688 269.390625 332.921875 256.261719 331.308594 252.179688 C 326.699219 234.902344 324.707031 217.128906 322.457031 199.441406 C 320.863281 190.90625 319.40625 182.273438 318.660156 173.667969 C 311.980469 170.417969 303.511719 170.898438 296.0625 170.511719 C 283.007812 173.707031 269.355469 173.472656 256.011719 172.578125 C 246.417969 169.4375 261.890625 167.59375 265.175781 168.355469 C 273.285156 167.203125 281.128906 170.71875 289.117188 169.050781 C 293.125 167.015625 279.222656 166.027344 276.332031 164.792969 C 268.359375 163.664062 261.023438 166.148438 252.847656 164.089844 C 242.363281 163.953125 231.871094 163.1875 221.453125 162.386719 C 223.539062 170.53125 234.445312 164.6875 239.949219 167.816406 C 234.90625 171.792969 224.304688 169.976562 217.09375 170.976562 C 199.078125 171.832031 180.953125 171.433594 163.03125 173.609375 C 156.0625 175.597656 169.535156 174.5625 171.699219 176.832031 C 207.023438 178.582031 242.421875 177.480469 277.773438 178.269531 C 287.25 177.984375 296.695312 176.328125 306.121094 176.019531 C 307.308594 183.519531 293.441406 179.304688 288.042969 181.265625 C 271.578125 183.03125 254.972656 181.601562 238.441406 181.996094 C 215.363281 181.78125 192.269531 182.441406 169.203125 181.972656 C 151.277344 181.371094 133.425781 179.542969 115.597656 177.832031 C 109.253906 180.664062 106.023438 171.777344 113.296875 172.25 C 121.484375 170.964844 114.179688 161.363281 108.226562 164.960938 C 99.304688 166.007812 90.207031 166.480469 81.488281 168.6875 C 75.574219 173.871094 77.742188 183.496094 72.875 189.753906 C 66.742188 206.226562 60.519531 222.683594 52.980469 238.585938 C 48.703125 249.082031 44.027344 259.40625 38.460938 269.28125 C 41.136719 272.875 44.789062 280.152344 49.945312 276.105469 C 53.800781 268.011719 54.886719 258.71875 57.328125 250.074219 C 59.820312 241.0625 60.632812 231.605469 63.539062 222.753906 C 68.128906 222.664062 62.738281 234.40625 63.15625 238.601562 C 61.703125 250.542969 55.929688 261.628906 56.367188 273.832031 C 52.933594 281.058594 53.410156 293.6875 64.65625 292.648438 C 74.566406 293.578125 84.582031 285.980469 94.164062 290.699219 C 101.421875 295.347656 106.726562 304.039062 116.183594 304.445312 C 120.554688 306.777344 133.664062 305.050781 132.433594 311.179688 C 131.273438 313.371094 128.878906 313.976562 127.261719 311.695312 Z M 174.964844 169.113281 C 182.273438 159.570312 166.394531 159.351562 161.882812 163.164062 C 159.273438 169.875 171.484375 171.894531 174.964844 169.113281 Z M 132.519531 166.457031 C 129.507812 157.914062 118.246094 172.230469 130.292969 169.269531 C 131.746094 169.308594 132.761719 167.796875 132.519531 166.457031 Z M 138.21875 166.550781 C 134.65625 156.058594 134.816406 176.824219 138.21875 166.550781 Z M 183.066406 166.527344 C 176.644531 162.875 181.109375 172.246094 183.066406 166.527344 Z M 201.261719 163.570312 C 197.414062 158.65625 187.921875 162.503906 182.371094 160.558594 C 185.449219 165.402344 199.640625 170.003906 201.261719 163.570312 Z M 209.71875 165.125 C 211.578125 159.132812 199.359375 160.886719 204.953125 166.222656 C 206.5625 165.941406 208.046875 165.128906 209.71875 165.125 Z M 135.699219 158.023438 C 138.1875 157.457031 142.941406 159.179688 143.875 157.042969 C 143.835938 144.710938 144.625 132.289062 143.4375 120.023438 C 138.234375 118.257812 121.242188 120.59375 127.386719 111.648438 C 130.878906 107.691406 128.8125 99.933594 125.644531 108.023438 C 123.15625 112.105469 121.492188 116.800781 124.460938 119.882812 C 120.964844 129.382812 121.796875 139.855469 121.179688 149.867188 L 120.835938 159.835938 C 125.632812 158.285156 130.695312 158.0625 135.699219 158.023438 Z M 199.460938 155.15625 C 194.53125 149.339844 193.457031 160.761719 199.460938 155.15625 Z M 155.769531 139.175781 C 153.828125 136.949219 156.828125 126.179688 153.082031 123.960938 C 152.34375 128.890625 141.9375 131.4375 149.640625 134.621094 C 146.496094 129.3125 155.105469 130.730469 151.238281 135.507812 C 150.167969 140.886719 152.511719 146.242188 153.136719 151.597656 C 153.699219 147.433594 153.144531 142.703125 155.769531 139.175781 Z M 268.921875 144.03125 C 265.347656 137.898438 263.695312 151.257812 268.921875 144.03125 Z M 282.820312 133.585938 C 287.636719 127.941406 286.851562 120.054688 287.960938 113.140625 C 278.117188 112.90625 268.179688 113.765625 258.421875 112.351562 C 250.679688 103.492188 251.457031 119.359375 251.183594 124.585938 C 250.429688 133.886719 260.539062 138.851562 268.621094 137.914062 C 273.515625 137.695312 279.042969 137.027344 282.820312 133.585938 Z M 210.597656 118.03125 C 214.054688 115.71875 203.070312 119.15625 200.683594 118.125 C 195.582031 116.792969 191.824219 121.210938 199.1875 120.628906 C 203.070312 120.421875 207.136719 119.917969 210.597656 118.03125 Z M 210.625 110.582031 C 215.460938 108.964844 219.113281 116.042969 225.25 113.832031 C 230.316406 113.875 235.382812 113.84375 240.453125 113.851562 C 245.15625 82.601562 248.582031 51.164062 253.671875 19.976562 C 258.613281 10.136719 245.296875 11.847656 239.417969 11.914062 C 228.417969 13.105469 217.316406 13.238281 206.367188 11.4375 C 199.664062 11.707031 189.621094 8.5625 185.324219 14.996094 C 178.320312 43.109375 176.261719 72.097656 171.421875 100.597656 C 168.074219 109 174.207031 110.578125 181.242188 109.5 C 186.785156 113.210938 192.957031 104.785156 196.011719 112.070312 C 200.402344 114.652344 206.210938 111.980469 210.625 110.582031 Z M 206.816406 91.066406 C 212.457031 84.269531 210.753906 97.441406 206.816406 91.066406 Z M 195.1875 88.929688 C 198.742188 81.300781 197.96875 96.265625 195.1875 88.929688 Z M 211.207031 82.164062 C 214.296875 75.753906 219.96875 85.121094 212.429688 83.8125 C 211.707031 83.710938 210.855469 82.980469 211.207031 82.164062 Z M 188.066406 80.339844 C 188.617188 72.367188 208.304688 81.9375 195.902344 82.488281 C 193.625 82.195312 188.800781 83.425781 188.066406 80.339844 Z M 205.640625 77.125 C 198.515625 77.597656 189.539062 74.425781 185.414062 70.742188 C 187.421875 59.566406 198.839844 62.132812 206.644531 64.582031 C 214.066406 67.003906 221.929688 66.929688 229.578125 67.824219 C 239.503906 71.640625 217.527344 71.636719 227.613281 75.777344 C 223.851562 80.394531 213.171875 76.179688 206.851562 77.167969 Z M 219.398438 72.71875 C 213.636719 68.890625 206.101562 68.1875 199.351562 66.808594 C 195.484375 64.632812 186.453125 68.304688 194.269531 70.789062 C 202.394531 72.363281 210.984375 73.578125 219.109375 73.082031 Z M 207.292969 55.402344 C 200.015625 53.085938 188.425781 52.488281 188.136719 42.453125 C 186.566406 38.640625 192.816406 26.476562 192.953125 35.714844 C 188.136719 44.9375 199.398438 50.824219 207.097656 51.304688 C 217.519531 53.503906 231.09375 49.78125 234.253906 38.433594 C 236.277344 30.054688 226.617188 25.195312 220.019531 23.148438 C 212.265625 22.679688 202.3125 21.699219 197.347656 29.058594 C 189.996094 34.160156 196.90625 20.519531 201.753906 21.300781 C 214.601562 14.679688 232.699219 20.25 238.746094 33.519531 C 241.550781 43.5 231.375 51.246094 223.132812 54.324219 C 218.121094 56.175781 212.488281 56.96875 207.292969 55.398438 Z M 208.003906 42.640625 C 211.839844 36.902344 211.359375 48.1875 208.003906 42.640625 Z M 225.09375 34.890625 C 228.308594 29.625 229.261719 37.605469 225.09375 34.890625 Z M 149.609375 109.496094 C 146.648438 102.371094 148.429688 117.636719 149.609375 109.496094 Z M 144.691406 109.472656 C 146.214844 103.597656 135.101562 102.429688 140.660156 107.359375 C 140.882812 109.898438 142.367188 112.847656 144.691406 109.472656 Z M 136.078125 108.15625 C 129.730469 103.21875 134.082031 113.34375 136.078125 108.15625 Z M 281.609375 107.664062 C 278.902344 101.75 265.359375 103.238281 259.660156 106.203125 C 263.03125 111.578125 274.367188 108.183594 280.597656 108.070312 Z M 137.207031 100.898438 C 138.53125 99.066406 137.804688 87.074219 134.808594 92.792969 C 129.84375 96.429688 129.035156 109.261719 137.207031 100.898438 Z M 149.609375 88.84375 C 145.695312 85.984375 146.128906 94.144531 149.609375 88.84375 Z M 140.167969 79.316406 C 140.878906 74.332031 142.175781 67.398438 139.796875 63.363281 C 138.441406 67.8125 135.433594 81.261719 139.238281 81.578125 L 139.746094 80.558594 Z M 148.226562 74.054688 C 146.625 69.609375 141.394531 68.878906 145.597656 74.355469 C 146.507812 76.738281 150.730469 78.269531 148.226562 74.054688 Z M 250.730469 73.972656 C 246.648438 68.820312 249.363281 78.460938 250.730469 73.972656 Z M 145.140625 55.8125 C 144.410156 52.402344 148.613281 43.695312 143.59375 49.632812 C 134.871094 48.734375 141.9375 66.679688 145.222656 56.886719 Z M 145.335938 44.015625 C 141.554688 38.582031 132.289062 48.003906 141.449219 47.175781 C 142.992188 46.71875 145.109375 45.855469 145.335938 44.015625 Z M 143.914062 34.722656 C 141.089844 29.605469 141.230469 41.570312 143.914062 34.722656 Z M 278.414062 292.238281 C 278.675781 288.800781 275 278.144531 274.984375 287.253906 C 275.675781 291.507812 272.375 296.109375 272.644531 288.761719 C 271.96875 279.183594 272.234375 269.523438 271.910156 259.960938 C 275.867188 258.734375 274.746094 268.039062 275.625 271.5 C 276.035156 276.972656 275.96875 269.796875 276.097656 267.839844 C 275.589844 263.609375 277.527344 254.792969 278.535156 263.722656 C 280.085938 275.195312 279.65625 286.925781 281.664062 298.308594 C 279.449219 300.777344 278.792969 293.453125 278.414062 292.238281 Z M 272.082031 214.617188 C 272.96875 209.660156 268.75 199.707031 272.0625 197.394531 C 274.242188 202.945312 276.898438 213.648438 273.082031 217.570312 C 272.289062 216.820312 272.113281 215.652344 272.082031 214.617188 Z M 173.820312 175.179688 C 177.648438 169.871094 176.550781 178.546875 173.820312 175.179688 Z M 173.820312 175.179688 " fill-opacity="1" fill-rule="nonzero"/></g></svg>