<svg xmlns="http://www.w3.org/2000/svg" xmlns:xlink="http://www.w3.org/1999/xlink" width="500" zoomAndPan="magnify" viewBox="0 0 375 374.999991" height="500" preserveAspectRatio="xMidYMid meet" version="1.0"><path fill="#000000" d="M 223.417969 6.621094 C 223.328125 6.605469 223.242188 6.605469 223.152344 6.621094 C 223.035156 6.632812 222.949219 6.664062 222.84375 6.707031 C 222.566406 6.765625 222.316406 6.882812 222.082031 7.089844 C 221.226562 7.871094 220.757812 9.265625 220.332031 12.898438 C 220.316406 12.929688 220.316406 12.957031 220.316406 13 C 220.183594 14.046875 220.066406 15.25 219.933594 16.722656 C 219.816406 18.042969 219.773438 22.675781 219.757812 28.382812 C 219.726562 31.660156 219.742188 35.175781 219.789062 38.863281 C 219.847656 46.171875 219.949219 53.289062 220.109375 56.804688 C 220.242188 59.714844 220.390625 62.609375 220.566406 65.464844 C 220.609375 66.492188 220.667969 67.449219 220.726562 68.300781 C 220.742188 68.710938 220.785156 69.140625 220.816406 69.535156 C 221.832031 85.296875 223.316406 98.753906 224.5625 102.882812 C 224.5625 102.898438 224.578125 102.914062 224.578125 102.941406 C 224.59375 103.03125 224.609375 103.132812 224.609375 103.191406 C 224.578125 103.425781 224.253906 103.398438 223.300781 103.191406 C 216.539062 101.707031 201.414062 101.722656 188.261719 103.238281 C 178.632812 104.339844 164.242188 107.898438 159.347656 110.367188 L 158.90625 110.589844 C 158.46875 110.765625 158.085938 110.898438 157.804688 110.96875 C 157.46875 111.042969 157.21875 111.042969 157.011719 111 L 156.027344 110.351562 C 153.660156 108.792969 148.941406 106.222656 143.960938 103.722656 C 143.402344 103.425781 142.859375 103.148438 142.371094 102.898438 C 140.667969 102.046875 138.875 101.207031 137.050781 100.371094 C 135.375 99.605469 133.773438 98.871094 132.363281 98.28125 C 111.007812 89.253906 85.003906 82.726562 63.386719 80.929688 C 60.960938 80.738281 57.976562 80.636719 55.035156 80.621094 C 54.285156 80.59375 53.582031 80.59375 52.964844 80.59375 C 51.863281 80.59375 50.816406 80.621094 49.820312 80.667969 C 49.140625 80.695312 48.496094 80.726562 47.90625 80.753906 C 45.425781 80.886719 43.570312 81.09375 43.027344 81.359375 C 42.660156 81.550781 42.351562 81.726562 42.117188 81.902344 C 41.542969 82.238281 41.265625 82.636719 41.265625 83.109375 C 41.265625 83.296875 41.335938 83.5625 41.457031 83.855469 C 41.542969 84.105469 41.660156 84.386719 41.824219 84.695312 C 42.191406 85.414062 43.453125 86.886719 45.070312 88.5625 C 46.351562 89.929688 47.847656 91.386719 49.449219 92.8125 C 50.90625 94.136719 52.332031 95.355469 53.464844 96.195312 C 57.109375 98.882812 64.589844 103.972656 64.898438 103.972656 C 65.03125 103.972656 65.648438 104.355469 66.296875 104.796875 C 67.675781 105.78125 70.703125 107.542969 74.527344 109.617188 C 75.496094 110.222656 77.730469 111.398438 80.492188 112.808594 C 88.695312 117.117188 98.320312 121.878906 104.011719 124.320312 C 105.832031 125.101562 107.757812 125.910156 109.699219 126.703125 C 110.800781 127.1875 112.242188 127.777344 113.976562 128.453125 C 122.03125 131.6875 129.863281 134.644531 133.128906 135.585938 C 134.347656 135.9375 134.90625 136.15625 135.082031 136.421875 C 135.054688 136.65625 134.992188 136.996094 134.90625 137.4375 C 133.347656 141.996094 131.480469 154.050781 131.464844 160.066406 C 131.464844 160.402344 131.453125 160.710938 131.4375 161.007812 C 131.421875 161.183594 131.40625 161.285156 131.394531 161.433594 C 131.289062 162.078125 131.15625 162.460938 131.011719 162.59375 C 130.789062 162.535156 130.347656 162.375 129.789062 162.152344 C 129.085938 161.84375 128.160156 161.433594 127.1875 160.992188 C 125.203125 160.066406 123.148438 159.183594 122.632812 159.023438 C 122.105469 158.84375 120.808594 158.332031 119.753906 157.84375 C 117.3125 156.742188 113.019531 155.140625 106.699219 152.964844 C 89.3125 146.964844 69.265625 142.304688 52.007812 140.230469 C 50.007812 139.996094 46.878906 139.730469 43.617188 139.511719 C 41.089844 139.304688 38.589844 139.15625 36.148438 139.054688 C 35.003906 139.011719 34.089844 138.980469 33.285156 138.964844 C 31.476562 138.90625 30.210938 138.90625 29.976562 138.996094 C 29.710938 139.097656 29.535156 139.320312 29.460938 139.65625 C 29.386719 139.820312 29.359375 140.011719 29.359375 140.246094 C 29.359375 140.246094 29.359375 140.261719 29.359375 140.261719 C 29.359375 140.261719 29.359375 140.273438 29.359375 140.273438 C 29.359375 140.4375 29.417969 140.730469 29.492188 141.070312 C 29.683594 142.113281 30.125 143.640625 30.84375 145.804688 C 33.871094 154.714844 38.648438 166.300781 43.644531 177.222656 C 43.835938 177.679688 44.351562 178.769531 44.996094 180.152344 C 49.203125 189.132812 53.464844 197.441406 56.917969 203.117188 C 58.152344 205.160156 58.800781 206.351562 59.488281 207.042969 C 59.636719 207.25 59.753906 207.382812 59.828125 207.425781 C 59.84375 207.441406 59.917969 207.441406 60.019531 207.453125 C 61.0625 208.085938 62.503906 207.894531 66.015625 207.734375 C 66.574219 207.71875 67.414062 207.703125 68.441406 207.691406 C 70.46875 207.71875 72.644531 207.75 75.011719 207.761719 C 77.140625 207.777344 79.171875 207.792969 81.167969 207.824219 C 89.152344 207.96875 97.675781 208.234375 100.554688 208.46875 C 101.410156 208.527344 103.773438 208.71875 105.832031 208.867188 C 106.332031 208.894531 106.789062 208.941406 107.214844 208.984375 C 108.449219 209.144531 109.242188 209.308594 109.492188 209.484375 C 109.476562 209.632812 109.449219 209.894531 109.375 210.21875 C 109.273438 210.601562 109.140625 211.070312 108.976562 211.558594 C 105.730469 222.128906 98.453125 247.535156 98.453125 248.34375 C 98.453125 248.417969 98.46875 248.492188 98.484375 248.566406 C 98.46875 248.625 98.453125 248.710938 98.453125 248.726562 C 98.453125 248.832031 98.601562 248.960938 98.894531 249.140625 C 99.644531 249.785156 101.542969 250.550781 105.746094 252.035156 C 112.742188 254.519531 121.558594 257.8125 123.660156 258.710938 C 123.734375 258.742188 123.808594 258.785156 123.882812 258.828125 C 124.351562 259.09375 124.675781 259.417969 125.015625 260.019531 C 125.132812 260.253906 125.234375 260.503906 125.324219 260.738281 C 125.558594 261.535156 126.117188 263.09375 126.542969 264.195312 C 126.585938 264.328125 126.628906 264.429688 126.675781 264.546875 C 126.9375 265.429688 127.070312 266.019531 127.101562 266.472656 C 127.070312 266.753906 127 267.019531 126.867188 267.328125 C 126.46875 268.3125 126.160156 268.460938 124.234375 268.710938 C 123.03125 268.855469 121.75 269.195312 120.515625 269.636719 C 119.722656 269.902344 118.957031 270.222656 118.207031 270.636719 C 116.152344 271.695312 114.417969 273.003906 113.667969 274.265625 C 113.125 274.738281 112.667969 275.074219 112.433594 275.148438 C 112.125 274.8125 111.625 274.179688 111.125 273.414062 C 110.507812 272.519531 109.039062 270.78125 107.566406 269.210938 C 107.375 269.003906 107.183594 268.796875 106.992188 268.605469 C 106.875 268.488281 106.773438 268.355469 106.65625 268.253906 C 103.980469 265.503906 103.394531 265.078125 102.261719 265.0625 C 102.261719 265.0625 102.246094 265.0625 102.246094 265.0625 C 102.230469 265.0625 102.230469 265.0625 102.230469 265.0625 C 102.21875 265.0625 102.21875 265.0625 102.203125 265.0625 C 102.1875 265.0625 102.171875 265.0625 102.160156 265.0625 C 102.160156 265.0625 102.160156 265.0625 102.144531 265.0625 C 102.113281 265.0625 102.101562 265.0625 102.070312 265.0625 C 100.511719 265.121094 99.644531 266.046875 99.335938 267.972656 C 99.21875 268.679688 98.910156 269.445312 98.585938 269.855469 C 98.484375 269.945312 98.382812 270.0625 98.277344 270.210938 C 97.558594 271.003906 97.144531 272.605469 97 274.8125 C 96.957031 275.324219 96.910156 275.839844 96.910156 276.355469 C 96.910156 277.046875 96.957031 277.8125 97 278.589844 C 97.234375 283.53125 98.335938 290 100.21875 296.703125 C 100.746094 298.601562 101.421875 301.042969 101.71875 302.128906 C 102.585938 305.304688 104.128906 309.570312 105.890625 313.820312 C 106.390625 315.203125 107.347656 317.394531 108.492188 319.761719 C 109.875 322.757812 111.257812 325.464844 112.445312 327.390625 C 115.988281 333.183594 118.855469 336.34375 121.734375 337.625 C 123.691406 338.476562 124.910156 338.34375 126.144531 337.109375 L 126.953125 336.300781 L 129.496094 337.125 C 129.554688 337.140625 129.628906 337.167969 129.703125 337.183594 C 130.597656 337.550781 131.570312 337.816406 132.761719 338.007812 C 133.347656 338.140625 133.90625 338.257812 134.332031 338.332031 C 137.273438 338.816406 150.589844 338.800781 156.601562 338.316406 C 159.128906 338.109375 163.300781 337.832031 165.875 337.683594 L 170.546875 337.433594 L 170.34375 339.035156 C 170.210938 339.933594 170.3125 340.640625 170.609375 341.140625 C 170.929688 341.769531 171.535156 342.09375 172.414062 342.109375 C 173.269531 342.140625 174.339844 341.890625 175.648438 341.328125 L 177.558594 340.507812 L 178.808594 341.875 C 179.03125 342.199219 179.28125 342.449219 179.527344 342.625 C 179.941406 343.019531 180.277344 343.300781 180.382812 343.300781 C 180.851562 343.300781 182.308594 342.460938 183.160156 341.683594 L 183.601562 341.285156 C 183.777344 341.167969 183.910156 341.09375 184.027344 341.078125 C 184.101562 341.09375 184.171875 341.109375 184.246094 341.152344 L 185.21875 342.125 C 186.628906 343.535156 187.097656 343.476562 189.996094 341.519531 L 191.890625 340.242188 L 192.15625 340.519531 L 193.199219 341.769531 C 195.078125 344.050781 196.253906 343.917969 199.09375 341.109375 L 200.78125 339.449219 C 201.078125 339.226562 201.3125 339.066406 201.515625 338.992188 L 203.132812 339.449219 C 204.058594 339.699219 204.738281 339.875 205.324219 339.992188 L 206.660156 340.390625 L 207.585938 339.902344 C 208 339.769531 208.441406 339.566406 208.984375 339.285156 L 211.011719 338.257812 L 213.171875 340.359375 C 213.21875 340.402344 213.277344 340.460938 213.335938 340.507812 C 213.789062 340.960938 214.230469 341.34375 214.644531 341.667969 C 216.980469 343.507812 218.332031 343.269531 219.023438 340.976562 C 219.097656 340.742188 219.15625 340.582031 219.214844 340.375 C 219.375 339.933594 219.523438 339.59375 219.609375 339.507812 C 219.742188 339.535156 220.875 340.183594 222.285156 341.007812 C 223.726562 341.84375 225.152344 342.535156 225.460938 342.535156 C 226.195312 342.535156 227.414062 341.402344 227.414062 340.710938 C 227.414062 340.710938 227.414062 340.710938 227.414062 340.699219 C 227.578125 340.507812 227.753906 340.402344 227.914062 340.390625 C 227.972656 340.402344 228.019531 340.402344 228.089844 340.433594 C 228.460938 340.59375 229.679688 340.800781 230.78125 340.917969 C 232.78125 341.09375 232.824219 341.078125 233.265625 339.902344 C 233.425781 339.492188 233.542969 339.210938 233.734375 339.035156 C 233.75 339.023438 233.765625 339.023438 233.78125 339.007812 C 234 338.890625 234.308594 338.800781 234.75 338.726562 C 234.808594 338.726562 234.851562 338.710938 234.910156 338.710938 C 235.058594 338.710938 235.21875 338.710938 235.410156 338.710938 C 235.484375 338.710938 235.542969 338.699219 235.632812 338.699219 C 235.75 338.699219 235.867188 338.699219 236 338.683594 C 236.058594 338.683594 236.117188 338.683594 236.175781 338.683594 C 237.9375 338.550781 238.925781 337.832031 238.925781 336.625 C 238.925781 336.140625 238.96875 335.949219 241.585938 335.859375 L 244.804688 335.949219 C 248.214844 336.035156 252.460938 335.933594 256.929688 335.699219 C 262.71875 335.535156 266.878906 335.125 274.242188 334.125 L 278.683594 333.523438 L 279.417969 333.433594 L 279.492188 333.492188 L 280.386719 334.476562 C 281.3125 335.492188 282.34375 336.109375 283.460938 336.332031 C 283.488281 336.332031 283.503906 336.34375 283.519531 336.34375 C 284.578125 336.535156 285.722656 336.375 286.957031 335.859375 C 288.308594 335.300781 290.03125 333.714844 291.808594 331.523438 C 292.894531 330.214844 293.953125 328.714844 294.996094 327.023438 C 296.289062 324.964844 297.511719 322.699219 298.570312 320.390625 C 304.023438 308.394531 307.5625 292.957031 308.078125 282.03125 C 308.242188 280.105469 308.300781 278.648438 308.210938 278.339844 C 308.179688 278.265625 308.152344 278.089844 308.121094 277.855469 C 307.976562 273.503906 307.183594 270.296875 305.625 269.019531 C 305.210938 268.679688 304.609375 267.855469 304.167969 267.105469 C 304.15625 266.722656 303.890625 266.328125 303.535156 265.976562 C 303.199219 265.488281 302.859375 265.285156 302.289062 265.195312 C 302.125 265.136719 301.964844 265.105469 301.800781 265.078125 C 301.789062 265.078125 301.757812 265.078125 301.730469 265.078125 C 301.699219 265.0625 301.65625 265.0625 301.625 265.0625 C 301.613281 265.0625 301.613281 265.0625 301.597656 265.0625 C 301.597656 265.0625 301.582031 265.0625 301.566406 265.0625 C 301.40625 265.0625 301.242188 265.09375 301.082031 265.136719 C 300.421875 265.195312 299.964844 265.519531 299.15625 266.386719 C 298.90625 266.652344 298.65625 266.871094 298.421875 267.0625 C 298.214844 267.210938 298.011719 267.355469 297.835938 267.460938 C 297.628906 267.5625 297.464844 267.605469 297.378906 267.578125 C 296.953125 267.414062 296.394531 267.710938 295.730469 268.402344 C 295.277344 268.828125 294.792969 269.460938 294.246094 270.328125 C 293.585938 271.355469 292.867188 272.636719 292.117188 274.148438 C 291.085938 276.238281 290.324219 277.753906 290.03125 278.324219 C 289.910156 278.515625 289.808594 278.691406 289.75 278.78125 C 289.542969 278.679688 288.472656 277.707031 287.238281 276.472656 C 282.902344 272.164062 278.449219 269.136719 275.390625 268.402344 C 274.699219 268.222656 274.140625 267.578125 273.449219 266.136719 C 272.90625 265.019531 271.171875 261.519531 269.570312 258.359375 C 264.132812 247.625 261 237.90625 260.238281 229.390625 C 260.105469 228.023438 259.914062 226.171875 259.808594 225.261719 C 259.765625 224.921875 259.738281 224.644531 259.75 224.394531 C 259.808594 224.027344 259.898438 223.71875 260.046875 223.421875 C 260.398438 222.804688 261.148438 222.011719 262.617188 220.46875 C 264.265625 218.730469 266.21875 216.542969 266.953125 215.585938 C 267.671875 214.628906 268.363281 213.777344 268.496094 213.675781 C 269.21875 213.027344 271.023438 210.144531 272.789062 207.015625 C 273.683594 205.5 274.480469 204.015625 275.15625 202.589844 C 275.90625 201.117188 276.523438 199.792969 276.84375 198.898438 C 277.785156 196.28125 278.507812 191.648438 278.433594 188.679688 C 278.285156 183.105469 277.402344 179.445312 273.863281 169.5625 C 270.421875 159.960938 269.4375 156.476562 267.292969 146.363281 C 265.6875 138.789062 264.542969 134.980469 262.058594 129.101562 L 260.191406 124.6875 C 260.132812 124.128906 260.105469 123.425781 260.074219 122.511719 L 260.058594 121.96875 C 260.046875 121.203125 260.046875 120.367188 260.046875 119.320312 C 260.046875 117.425781 260 115.335938 259.929688 113.175781 C 259.882812 111.148438 259.824219 109.28125 259.738281 107.484375 C 259.179688 93.457031 257.515625 82.269531 253.917969 67.476562 C 248.714844 46.144531 238.71875 23.75 228.972656 11.558594 C 227.035156 9.132812 225.503906 7.632812 224.300781 7.015625 C 223.960938 6.765625 223.667969 6.648438 223.417969 6.621094 Z M 136.757812 216.21875 L 139.859375 222.421875 L 134.054688 246.050781 L 121.648438 239.859375 Z M 136.757812 216.21875 " fill-opacity="1" fill-rule="nonzero"/><path fill="#ffd73e" d="M 180.601562 343.269531 C 180.515625 343.300781 180.441406 343.300781 180.382812 343.300781 C 180.441406 343.300781 180.515625 343.300781 180.601562 343.269531 Z M 180.601562 343.269531 " fill-opacity="1" fill-rule="nonzero"/><path fill="#ffd73e" d="M 196.859375 342.960938 C 196.59375 343.109375 196.359375 343.210938 196.125 343.285156 C 196.359375 343.210938 196.59375 343.109375 196.859375 342.960938 Z M 196.859375 342.960938 " fill-opacity="1" fill-rule="nonzero"/><path fill="#ffd73e" d="M 187.878906 342.816406 C 187.570312 342.960938 187.289062 343.050781 187.039062 343.078125 C 187.289062 343.050781 187.570312 342.960938 187.878906 342.816406 Z M 187.878906 342.816406 " fill-opacity="1" fill-rule="nonzero"/><path fill="#ffd73e" d="M 185.9375 342.757812 C 186.085938 342.859375 186.21875 342.949219 186.363281 342.992188 C 186.21875 342.949219 186.085938 342.859375 185.9375 342.757812 Z M 185.9375 342.757812 " fill-opacity="1" fill-rule="nonzero"/><path fill="#ffd73e" d="M 193.875 342.507812 C 194.09375 342.710938 194.300781 342.886719 194.519531 343.019531 C 194.300781 342.886719 194.09375 342.710938 193.875 342.507812 Z M 193.875 342.507812 " fill-opacity="1" fill-rule="nonzero"/><path fill="#ffd73e" d="M 225.300781 342.507812 C 225.371094 342.535156 225.417969 342.535156 225.460938 342.535156 C 225.503906 342.535156 225.550781 342.535156 225.609375 342.519531 C 225.550781 342.535156 225.503906 342.535156 225.460938 342.535156 C 225.417969 342.535156 225.371094 342.535156 225.300781 342.507812 Z M 225.300781 342.507812 " fill-opacity="1" fill-rule="nonzero"/><path fill="#ffd73e" d="M 226.402344 342.140625 C 226.195312 342.300781 225.960938 342.417969 225.753906 342.492188 C 225.960938 342.417969 226.195312 342.300781 226.402344 342.140625 Z M 226.402344 342.140625 " fill-opacity="1" fill-rule="nonzero"/><path fill="#ffd73e" d="M 173.089844 342.078125 C 172.855469 342.109375 172.621094 342.109375 172.414062 342.109375 C 172.296875 342.109375 172.195312 342.09375 172.09375 342.09375 C 172.195312 342.09375 172.296875 342.109375 172.414062 342.109375 C 172.621094 342.109375 172.855469 342.109375 173.089844 342.078125 Z M 173.089844 342.078125 " fill-opacity="1" fill-rule="nonzero"/><path fill="#ffd73e" d="M 174.28125 341.828125 C 173.988281 341.917969 173.722656 341.976562 173.472656 342.019531 C 173.722656 341.976562 173.988281 341.917969 174.28125 341.828125 Z M 174.28125 341.828125 " fill-opacity="1" fill-rule="nonzero"/><path fill="#ffd73e" d="M 175.164062 341.519531 C 174.855469 341.652344 174.5625 341.742188 174.28125 341.828125 C 174.5625 341.757812 174.855469 341.652344 175.164062 341.519531 Z M 175.164062 341.519531 " fill-opacity="1" fill-rule="nonzero"/><path fill="#ffd73e" d="M 183.835938 341.140625 C 183.761719 341.183594 183.6875 341.226562 183.601562 341.285156 L 183.160156 341.683594 C 182.734375 342.066406 182.160156 342.476562 181.632812 342.785156 C 182.160156 342.476562 182.734375 342.066406 183.160156 341.683594 L 183.601562 341.285156 C 183.6875 341.226562 183.761719 341.183594 183.835938 341.140625 Z M 183.835938 341.140625 " fill-opacity="1" fill-rule="nonzero"/><path fill="#ffd73e" d="M 184.027344 341.078125 C 183.96875 341.09375 183.894531 341.109375 183.835938 341.140625 C 183.894531 341.109375 183.96875 341.09375 184.027344 341.078125 C 184.101562 341.09375 184.171875 341.109375 184.246094 341.152344 C 184.171875 341.109375 184.101562 341.09375 184.027344 341.078125 Z M 184.027344 341.078125 " fill-opacity="1" fill-rule="nonzero"/><path fill="#ffd73e" d="M 232.488281 340.960938 C 232.339844 340.992188 232.179688 341.007812 231.957031 340.992188 C 232.164062 341.007812 232.339844 340.992188 232.488281 340.960938 Z M 232.488281 340.960938 " fill-opacity="1" fill-rule="nonzero"/><path fill="#ffd73e" d="M 232.722656 340.859375 C 232.648438 340.902344 232.574219 340.933594 232.488281 340.960938 C 232.574219 340.933594 232.648438 340.902344 232.722656 340.859375 Z M 232.722656 340.859375 " fill-opacity="1" fill-rule="nonzero"/><path fill="#ffd73e" d="M 232.898438 340.699219 C 232.867188 340.726562 232.839844 340.757812 232.808594 340.785156 C 232.839844 340.757812 232.867188 340.726562 232.898438 340.699219 Z M 232.898438 340.699219 " fill-opacity="1" fill-rule="nonzero"/><path fill="#ffd73e" d="M 227.546875 340.582031 C 227.503906 340.609375 227.460938 340.652344 227.414062 340.699219 C 227.414062 340.710938 227.414062 340.710938 227.414062 340.710938 C 227.414062 340.757812 227.414062 340.800781 227.402344 340.84375 C 227.414062 340.800781 227.414062 340.757812 227.414062 340.710938 C 227.414062 340.710938 227.414062 340.710938 227.414062 340.699219 C 227.460938 340.652344 227.503906 340.609375 227.546875 340.582031 Z M 227.546875 340.582031 " fill-opacity="1" fill-rule="nonzero"/><path fill="#ffd73e" d="M 228.503906 340.566406 C 229.03125 340.683594 229.886719 340.816406 230.707031 340.902344 C 229.886719 340.816406 229.03125 340.683594 228.503906 340.566406 Z M 228.503906 340.566406 " fill-opacity="1" fill-rule="nonzero"/><path fill="#ffd73e" d="M 177.558594 340.507812 L 175.648438 341.328125 C 175.488281 341.402344 175.324219 341.460938 175.164062 341.519531 C 175.324219 341.460938 175.488281 341.402344 175.648438 341.328125 Z M 177.558594 340.507812 " fill-opacity="1" fill-rule="nonzero"/><path fill="#ffd73e" d="M 191.890625 340.242188 L 189.996094 341.519531 C 189.625 341.769531 189.304688 341.976562 189.007812 342.167969 C 189.304688 341.976562 189.625 341.769531 189.996094 341.519531 Z M 191.890625 340.242188 " fill-opacity="1" fill-rule="nonzero"/><path fill="#ffd73e" d="M 218.890625 341.390625 C 218.742188 341.769531 218.566406 342.078125 218.375 342.316406 C 218.566406 342.078125 218.742188 341.769531 218.890625 341.390625 Z M 218.890625 341.390625 " fill-opacity="1" fill-rule="nonzero"/><path fill="#ffd73e" d="M 219.449219 339.800781 C 219.375 339.960938 219.300781 340.152344 219.214844 340.375 C 219.15625 340.582031 219.097656 340.742188 219.023438 340.976562 C 218.980469 341.125 218.933594 341.257812 218.890625 341.390625 C 218.933594 341.257812 218.980469 341.125 219.023438 340.976562 C 219.097656 340.742188 219.15625 340.582031 219.214844 340.375 C 219.300781 340.152344 219.375 339.960938 219.449219 339.800781 Z M 219.449219 339.800781 " fill-opacity="1" fill-rule="nonzero"/><path fill="#ffd73e" d="M 219.609375 339.492188 C 219.597656 339.519531 219.566406 339.566406 219.539062 339.609375 C 219.566406 339.566406 219.597656 339.519531 219.609375 339.507812 C 219.609375 339.507812 219.609375 339.492188 219.609375 339.492188 Z M 219.609375 339.492188 " fill-opacity="1" fill-rule="nonzero"/><path fill="#ffd73e" d="M 233.484375 339.375 C 233.414062 339.519531 233.355469 339.699219 233.265625 339.902344 C 233.222656 340.050781 233.164062 340.183594 233.117188 340.285156 C 233.164062 340.183594 233.222656 340.050781 233.265625 339.902344 C 233.355469 339.699219 233.414062 339.519531 233.484375 339.375 Z M 233.484375 339.375 " fill-opacity="1" fill-rule="nonzero"/><path fill="#ffd73e" d="M 233.722656 339.035156 C 233.632812 339.125 233.558594 339.242188 233.484375 339.375 C 233.558594 339.242188 233.632812 339.125 233.734375 339.035156 C 233.734375 339.035156 233.722656 339.035156 233.722656 339.035156 Z M 233.722656 339.035156 " fill-opacity="1" fill-rule="nonzero"/><path fill="#ffd73e" d="M 234.75 338.726562 C 234.410156 338.785156 234.160156 338.84375 233.957031 338.917969 C 234.160156 338.84375 234.410156 338.785156 234.75 338.726562 Z M 234.75 338.726562 " fill-opacity="1" fill-rule="nonzero"/><path fill="#ffd73e" d="M 235.398438 338.710938 C 235.21875 338.710938 235.058594 338.710938 234.910156 338.710938 C 234.851562 338.710938 234.808594 338.726562 234.75 338.726562 C 234.808594 338.726562 234.851562 338.710938 234.910156 338.710938 C 235.058594 338.710938 235.21875 338.710938 235.398438 338.710938 Z M 235.398438 338.710938 " fill-opacity="1" fill-rule="nonzero"/><path fill="#ffd73e" d="M 236.792969 338.609375 C 236.601562 338.640625 236.394531 338.667969 236.175781 338.683594 C 236.117188 338.683594 236.058594 338.683594 236 338.683594 C 236.058594 338.683594 236.117188 338.683594 236.175781 338.683594 C 236.394531 338.667969 236.601562 338.640625 236.792969 338.609375 Z M 236.792969 338.609375 " fill-opacity="1" fill-rule="nonzero"/><path fill="#ffd73e" d="M 198.578125 341.609375 C 198.253906 341.917969 197.945312 342.183594 197.652344 342.417969 C 197.945312 342.183594 198.253906 341.917969 198.578125 341.609375 Z M 198.578125 341.609375 " fill-opacity="1" fill-rule="nonzero"/><path fill="#ffd73e" d="M 201.179688 339.167969 C 201.0625 339.242188 200.929688 339.332031 200.78125 339.449219 L 199.09375 341.109375 C 198.914062 341.285156 198.738281 341.460938 198.578125 341.609375 C 198.738281 341.460938 198.914062 341.285156 199.09375 341.109375 L 200.78125 339.449219 C 200.929688 339.332031 201.0625 339.242188 201.179688 339.167969 Z M 201.179688 339.167969 " fill-opacity="1" fill-rule="nonzero"/><path fill="#ffd73e" d="M 211.011719 338.257812 L 208.984375 339.285156 C 208.425781 339.566406 207.984375 339.769531 207.585938 339.902344 L 206.660156 340.390625 L 205.324219 339.992188 C 204.738281 339.875 204.058594 339.699219 203.132812 339.449219 L 201.515625 338.992188 C 201.414062 339.023438 201.3125 339.09375 201.179688 339.167969 C 201.3125 339.09375 201.414062 339.035156 201.515625 338.992188 L 203.132812 339.449219 C 204.058594 339.699219 204.738281 339.890625 205.324219 339.992188 L 206.660156 340.390625 L 207.585938 339.902344 C 208 339.769531 208.441406 339.566406 208.984375 339.285156 Z M 211.011719 338.257812 " fill-opacity="1" fill-rule="nonzero"/><path fill="#ffd73e" d="M 238.378906 337.917969 C 238.21875 338.066406 238.027344 338.183594 237.820312 338.285156 C 238.027344 338.183594 238.21875 338.066406 238.378906 337.917969 Z M 238.378906 337.917969 " fill-opacity="1" fill-rule="nonzero"/><path fill="#ffd73e" d="M 123.074219 338.082031 C 123.28125 338.125 123.46875 338.152344 123.660156 338.167969 C 123.46875 338.152344 123.28125 338.125 123.074219 338.082031 Z M 123.074219 338.082031 " fill-opacity="1" fill-rule="nonzero"/><path fill="#ffd73e" d="M 122.515625 337.917969 C 122.707031 337.992188 122.898438 338.035156 123.074219 338.082031 C 122.898438 338.035156 122.707031 337.992188 122.515625 337.917969 Z M 122.515625 337.917969 " fill-opacity="1" fill-rule="nonzero"/><path fill="#ffd73e" d="M 135.007812 338.417969 C 135.523438 338.460938 136.199219 338.523438 136.964844 338.550781 C 136.199219 338.523438 135.523438 338.460938 135.007812 338.417969 Z M 135.007812 338.417969 " fill-opacity="1" fill-rule="nonzero"/><path fill="#ffd73e" d="M 132.070312 337.875 C 132.289062 337.917969 132.523438 337.964844 132.761719 338.007812 C 133.347656 338.140625 133.90625 338.257812 134.332031 338.332031 C 134.523438 338.359375 134.742188 338.390625 135.007812 338.417969 C 134.742188 338.390625 134.523438 338.359375 134.332031 338.332031 C 133.90625 338.257812 133.347656 338.140625 132.761719 338.007812 C 132.523438 337.964844 132.289062 337.917969 132.070312 337.875 Z M 132.070312 337.875 " fill-opacity="1" fill-rule="nonzero"/><path fill="#ffd73e" d="M 161.230469 337.976562 C 159.539062 338.09375 157.863281 338.210938 156.601562 338.316406 C 155.851562 338.375 154.984375 338.433594 154.042969 338.476562 C 154.984375 338.433594 155.851562 338.375 156.601562 338.316406 C 157.863281 338.210938 159.539062 338.09375 161.230469 337.976562 Z M 161.230469 337.976562 " fill-opacity="1" fill-rule="nonzero"/><path fill="#ffd73e" d="M 170.546875 337.433594 L 165.875 337.683594 C 164.597656 337.757812 162.90625 337.859375 161.230469 337.976562 C 162.90625 337.859375 164.597656 337.757812 165.875 337.683594 Z M 170.546875 337.433594 " fill-opacity="1" fill-rule="nonzero"/><path fill="#ffd73e" d="M 120.664062 337.050781 C 121.015625 337.273438 121.382812 337.464844 121.734375 337.625 C 121.382812 337.464844 121.015625 337.273438 120.664062 337.050781 Z M 120.664062 337.050781 " fill-opacity="1" fill-rule="nonzero"/><path fill="#ffd73e" d="M 238.9375 336.464844 C 238.925781 336.507812 238.925781 336.566406 238.925781 336.625 C 238.925781 336.714844 238.925781 336.785156 238.925781 336.84375 C 238.925781 336.785156 238.925781 336.714844 238.925781 336.625 C 238.925781 336.566406 238.925781 336.507812 238.9375 336.464844 Z M 238.9375 336.464844 " fill-opacity="1" fill-rule="nonzero"/><path fill="#ffd73e" d="M 124.71875 338.035156 C 124.558594 338.09375 124.382812 338.125 124.207031 338.152344 C 124.382812 338.125 124.558594 338.09375 124.71875 338.035156 Z M 124.71875 338.035156 " fill-opacity="1" fill-rule="nonzero"/><path fill="#ffd73e" d="M 125.910156 337.332031 C 125.527344 337.667969 125.144531 337.902344 124.71875 338.035156 C 125.144531 337.902344 125.527344 337.667969 125.910156 337.332031 Z M 125.910156 337.332031 " fill-opacity="1" fill-rule="nonzero"/><path fill="#ffd73e" d="M 126.953125 336.300781 L 126.144531 337.109375 C 126.070312 337.183594 126 337.257812 125.910156 337.332031 C 126 337.257812 126.070312 337.183594 126.144531 337.109375 L 126.953125 336.300781 L 129.496094 337.125 C 129.554688 337.140625 129.628906 337.167969 129.703125 337.183594 C 129.628906 337.167969 129.554688 337.140625 129.496094 337.125 Z M 126.953125 336.300781 " fill-opacity="1" fill-rule="nonzero"/><path fill="#ffd73e" d="M 283.519531 336.34375 C 284.046875 336.433594 284.589844 336.449219 285.164062 336.375 C 284.589844 336.449219 284.046875 336.433594 283.519531 336.34375 Z M 283.519531 336.34375 " fill-opacity="1" fill-rule="nonzero"/><path fill="#ffd73e" d="M 283.046875 336.226562 C 283.179688 336.273438 283.328125 336.300781 283.460938 336.332031 C 283.488281 336.34375 283.503906 336.34375 283.519531 336.34375 C 283.503906 336.34375 283.472656 336.332031 283.460938 336.332031 C 283.328125 336.300781 283.179688 336.273438 283.046875 336.226562 Z M 283.046875 336.226562 " fill-opacity="1" fill-rule="nonzero"/><path fill="#ffd73e" d="M 239.085938 336.199219 C 239.054688 336.214844 239.042969 336.226562 239.027344 336.242188 C 239.042969 336.226562 239.054688 336.214844 239.085938 336.199219 Z M 239.085938 336.199219 " fill-opacity="1" fill-rule="nonzero"/><path fill="#ffd73e" d="M 240.070312 335.949219 C 239.511719 336.007812 239.234375 336.082031 239.085938 336.199219 C 239.234375 336.082031 239.511719 336.007812 240.070312 335.949219 Z M 240.070312 335.949219 " fill-opacity="1" fill-rule="nonzero"/><path fill="#ffd73e" d="M 241.585938 335.859375 C 241.246094 335.875 240.96875 335.890625 240.71875 335.90625 C 240.96875 335.890625 241.246094 335.875 241.585938 335.859375 L 244.804688 335.949219 C 246.507812 335.992188 248.417969 335.992188 250.476562 335.949219 C 248.417969 335.992188 246.507812 335.992188 244.789062 335.949219 Z M 241.585938 335.859375 " fill-opacity="1" fill-rule="nonzero"/><path fill="#ffd73e" d="M 286.957031 335.859375 C 286.648438 335.992188 286.339844 336.09375 286.046875 336.183594 C 286.339844 336.09375 286.648438 335.992188 286.957031 335.859375 Z M 286.957031 335.859375 " fill-opacity="1" fill-rule="nonzero"/><path fill="#ffd73e" d="M 259.03125 335.625 C 258.355469 335.65625 257.648438 335.667969 256.929688 335.699219 C 255.8125 335.757812 254.710938 335.816406 253.621094 335.84375 C 254.710938 335.816406 255.8125 335.757812 256.929688 335.699219 C 257.648438 335.667969 258.355469 335.65625 259.03125 335.625 Z M 259.03125 335.625 " fill-opacity="1" fill-rule="nonzero"/><path fill="#ffd73e" d="M 281.09375 335.167969 C 281.460938 335.476562 281.84375 335.726562 282.238281 335.917969 C 281.84375 335.726562 281.460938 335.476562 281.09375 335.167969 Z M 281.09375 335.167969 " fill-opacity="1" fill-rule="nonzero"/><path fill="#ffd73e" d="M 117.898438 334.800781 C 118.089844 334.992188 118.28125 335.183594 118.472656 335.359375 C 118.28125 335.183594 118.089844 334.992188 117.898438 334.800781 Z M 117.898438 334.800781 " fill-opacity="1" fill-rule="nonzero"/><path fill="#ffd73e" d="M 269.246094 334.773438 C 266.21875 335.125 263.691406 335.359375 261.042969 335.523438 C 263.691406 335.359375 266.21875 335.125 269.246094 334.773438 Z M 269.246094 334.773438 " fill-opacity="1" fill-rule="nonzero"/><path fill="#ffd73e" d="M 289.222656 334.300781 C 288.808594 334.667969 288.414062 334.992188 288.03125 335.257812 C 288.414062 334.992188 288.808594 334.667969 289.222656 334.300781 Z M 289.222656 334.300781 " fill-opacity="1" fill-rule="nonzero"/><path fill="#ffd73e" d="M 279.417969 333.433594 L 278.683594 333.523438 L 274.242188 334.125 C 273.316406 334.242188 272.449219 334.359375 271.628906 334.464844 C 272.449219 334.359375 273.316406 334.242188 274.242188 334.125 L 278.683594 333.523438 Z M 279.417969 333.433594 " fill-opacity="1" fill-rule="nonzero"/><path fill="#ffd73e" d="M 292.617188 330.507812 C 292.335938 330.859375 292.074219 331.199219 291.792969 331.523438 C 291.574219 331.800781 291.351562 332.066406 291.132812 332.316406 C 291.351562 332.066406 291.574219 331.800781 291.808594 331.523438 C 292.074219 331.199219 292.335938 330.859375 292.617188 330.507812 Z M 292.617188 330.507812 " fill-opacity="1" fill-rule="nonzero"/><path fill="#ffd73e" d="M 307.136719 290.941406 C 306.902344 292.527344 306.609375 294.148438 306.285156 295.808594 C 306.609375 294.148438 306.902344 292.527344 307.136719 290.941406 Z M 307.136719 290.941406 " fill-opacity="1" fill-rule="nonzero"/><path fill="#ffd73e" d="M 308.121094 277.855469 C 308.152344 278.089844 308.179688 278.265625 308.195312 278.339844 C 308.253906 278.488281 308.253906 278.941406 308.242188 279.574219 C 308.253906 278.941406 308.253906 278.488281 308.210938 278.339844 C 308.179688 278.265625 308.152344 278.089844 308.121094 277.855469 Z M 308.121094 277.855469 " fill-opacity="1" fill-rule="nonzero"/><path fill="#ffd73e" d="M 112.167969 274.839844 C 112.269531 274.957031 112.359375 275.0625 112.433594 275.148438 C 112.359375 275.0625 112.269531 274.957031 112.167969 274.839844 Z M 112.167969 274.839844 " fill-opacity="1" fill-rule="nonzero"/><path fill="#ffd73e" d="M 307.695312 273.578125 C 307.769531 273.945312 307.828125 274.328125 307.886719 274.738281 C 307.828125 274.328125 307.769531 273.945312 307.695312 273.578125 Z M 307.695312 273.578125 " fill-opacity="1" fill-rule="nonzero"/><path fill="#ffd73e" d="M 110.773438 272.945312 C 110.890625 273.105469 111.019531 273.28125 111.109375 273.414062 C 111.375 273.796875 111.625 274.148438 111.84375 274.445312 C 111.625 274.148438 111.375 273.796875 111.125 273.414062 C 111.035156 273.28125 110.890625 273.105469 110.773438 272.945312 Z M 110.773438 272.945312 " fill-opacity="1" fill-rule="nonzero"/><path fill="#ffd73e" d="M 306.652344 270.328125 C 306.800781 270.605469 306.945312 270.898438 307.066406 271.222656 C 306.945312 270.898438 306.800781 270.605469 306.652344 270.328125 Z M 306.652344 270.328125 " fill-opacity="1" fill-rule="nonzero"/><path fill="#ffd73e" d="M 305.917969 269.28125 C 306.09375 269.472656 306.269531 269.695312 306.417969 269.945312 C 306.269531 269.695312 306.09375 269.472656 305.917969 269.28125 Z M 305.917969 269.28125 " fill-opacity="1" fill-rule="nonzero"/><path fill="#ffd73e" d="M 274.289062 267.578125 C 274.375 267.679688 274.449219 267.78125 274.539062 267.871094 C 274.449219 267.78125 274.375 267.679688 274.289062 267.578125 Z M 274.289062 267.578125 " fill-opacity="1" fill-rule="nonzero"/><path fill="#ffd73e" d="M 105.746094 267.328125 C 106.023438 267.605469 106.316406 267.902344 106.65625 268.253906 C 106.773438 268.355469 106.875 268.488281 106.992188 268.605469 C 107.183594 268.796875 107.375 269.003906 107.566406 269.210938 C 108.300781 270.003906 109.039062 270.828125 109.667969 271.5625 C 109.039062 270.828125 108.300781 270.003906 107.566406 269.210938 C 107.375 269.003906 107.183594 268.796875 106.992188 268.605469 C 106.875 268.488281 106.773438 268.355469 106.65625 268.253906 C 106.316406 267.902344 106.023438 267.605469 105.746094 267.328125 Z M 105.746094 267.328125 " fill-opacity="1" fill-rule="nonzero"/><path fill="#ffd73e" d="M 304.125 266.855469 C 304.15625 266.929688 304.167969 267.019531 304.167969 267.105469 C 304.167969 267.019531 304.15625 266.929688 304.125 266.855469 Z M 304.125 266.855469 " fill-opacity="1" fill-rule="nonzero"/><path fill="#ffd73e" d="M 124.207031 259.035156 C 124.308594 259.121094 124.410156 259.210938 124.5 259.300781 C 124.410156 259.210938 124.308594 259.121094 124.207031 259.035156 Z M 124.207031 259.035156 " fill-opacity="1" fill-rule="nonzero"/><path fill="#ffd73e" d="M 111.199219 254.007812 C 114.886719 255.34375 118.488281 256.683594 120.957031 257.636719 C 118.488281 256.683594 114.886719 255.34375 111.199219 254.007812 Z M 111.199219 254.007812 " fill-opacity="1" fill-rule="nonzero"/><path fill="#ffd73e" d="M 101.027344 250.269531 C 101.570312 250.492188 102.21875 250.757812 103.011719 251.050781 C 102.21875 250.757812 101.570312 250.492188 101.027344 250.269531 Z M 101.027344 250.269531 " fill-opacity="1" fill-rule="nonzero"/><path fill="#ffd73e" d="M 99.6875 249.652344 C 100.042969 249.84375 100.484375 250.035156 101.027344 250.269531 C 100.484375 250.035156 100.042969 249.84375 99.6875 249.652344 Z M 99.6875 249.652344 " fill-opacity="1" fill-rule="nonzero"/><path fill="#ffd73e" d="M 265.367188 249.140625 C 265.808594 250.226562 266.261719 251.316406 266.746094 252.417969 C 266.261719 251.316406 265.808594 250.226562 265.367188 249.140625 Z M 265.367188 249.140625 " fill-opacity="1" fill-rule="nonzero"/><path fill="#ffd73e" d="M 98.558594 248.902344 C 98.601562 248.949219 98.644531 248.976562 98.703125 249.023438 C 98.644531 248.976562 98.601562 248.949219 98.558594 248.902344 Z M 98.558594 248.902344 " fill-opacity="1" fill-rule="nonzero"/><path fill="#ffd73e" d="M 260.191406 223.1875 C 260.132812 223.261719 260.089844 223.347656 260.046875 223.421875 C 259.972656 223.570312 259.914062 223.71875 259.867188 223.878906 C 259.914062 223.71875 259.972656 223.570312 260.046875 223.421875 C 260.089844 223.347656 260.132812 223.261719 260.191406 223.1875 Z M 260.191406 223.1875 " fill-opacity="1" fill-rule="nonzero"/><path fill="#ffd73e" d="M 263.882812 219.113281 C 263.457031 219.570312 263.027344 220.039062 262.617188 220.46875 C 262.25 220.863281 261.925781 221.203125 261.648438 221.496094 C 261.925781 221.203125 262.25 220.863281 262.617188 220.46875 C 263.027344 220.039062 263.457031 219.570312 263.882812 219.113281 Z M 263.882812 219.113281 " fill-opacity="1" fill-rule="nonzero"/><path fill="#ffd73e" d="M 267.953125 214.308594 C 267.671875 214.660156 267.304688 215.117188 266.9375 215.585938 C 266.761719 215.820312 266.511719 216.144531 266.1875 216.511719 C 266.496094 216.144531 266.761719 215.820312 266.953125 215.585938 C 267.304688 215.117188 267.671875 214.660156 267.953125 214.308594 Z M 267.953125 214.308594 " fill-opacity="1" fill-rule="nonzero"/><path fill="#ffd73e" d="M 268.804688 213.320312 C 268.6875 213.46875 268.585938 213.585938 268.480469 213.675781 C 268.421875 213.71875 268.230469 213.96875 267.953125 214.308594 C 268.230469 213.96875 268.421875 213.71875 268.496094 213.675781 C 268.585938 213.585938 268.6875 213.46875 268.804688 213.320312 Z M 268.804688 213.320312 " fill-opacity="1" fill-rule="nonzero"/><path fill="#ffd73e" d="M 269.703125 212.101562 C 269.363281 212.617188 269.054688 213.027344 268.804688 213.320312 C 269.054688 213.027344 269.363281 212.617188 269.703125 212.101562 Z M 269.703125 212.101562 " fill-opacity="1" fill-rule="nonzero"/><path fill="#ffd73e" d="M 108.050781 209.101562 C 108.566406 209.191406 108.949219 209.261719 109.199219 209.351562 C 108.949219 209.261719 108.566406 209.191406 108.050781 209.101562 Z M 108.050781 209.101562 " fill-opacity="1" fill-rule="nonzero"/><path fill="#ffd73e" d="M 97.441406 208.292969 C 98.761719 208.351562 99.835938 208.410156 100.554688 208.46875 C 99.835938 208.410156 98.761719 208.351562 97.441406 208.292969 Z M 97.441406 208.292969 " fill-opacity="1" fill-rule="nonzero"/><path fill="#ffd73e" d="M 87.167969 207.953125 C 91.089844 208.058594 94.78125 208.175781 97.441406 208.292969 C 94.78125 208.175781 91.089844 208.058594 87.167969 207.953125 Z M 87.167969 207.953125 " fill-opacity="1" fill-rule="nonzero"/><path fill="#ffd73e" d="M 67.058594 207.703125 C 66.648438 207.71875 66.296875 207.71875 66.015625 207.734375 C 65.132812 207.777344 64.382812 207.824219 63.738281 207.851562 C 64.382812 207.824219 65.132812 207.777344 66.015625 207.734375 C 66.296875 207.71875 66.648438 207.71875 67.058594 207.703125 Z M 67.058594 207.703125 " fill-opacity="1" fill-rule="nonzero"/><path fill="#ffd73e" d="M 68.441406 207.691406 C 67.925781 207.691406 67.472656 207.703125 67.058594 207.703125 C 67.472656 207.703125 67.925781 207.691406 68.441406 207.691406 C 70.46875 207.71875 72.644531 207.75 75.011719 207.761719 C 77.140625 207.777344 79.171875 207.792969 81.167969 207.824219 C 79.171875 207.792969 77.140625 207.761719 75.011719 207.761719 C 72.644531 207.75 70.46875 207.71875 68.441406 207.691406 Z M 68.441406 207.691406 " fill-opacity="1" fill-rule="nonzero"/><path fill="#ffd73e" d="M 59.695312 207.292969 C 59.738281 207.367188 59.796875 207.410156 59.828125 207.425781 C 59.84375 207.441406 59.917969 207.441406 60.019531 207.453125 C 60.078125 207.5 60.152344 207.527344 60.210938 207.574219 C 60.152344 207.527344 60.078125 207.5 60.019531 207.453125 C 59.917969 207.441406 59.84375 207.441406 59.828125 207.425781 C 59.796875 207.410156 59.738281 207.367188 59.695312 207.292969 Z M 59.695312 207.292969 " fill-opacity="1" fill-rule="nonzero"/><path fill="#ffd73e" d="M 58.976562 206.425781 C 59.152344 206.660156 59.3125 206.867188 59.488281 207.042969 C 59.3125 206.867188 59.152344 206.660156 58.976562 206.425781 Z M 58.976562 206.425781 " fill-opacity="1" fill-rule="nonzero"/><path fill="#ffd73e" d="M 273.449219 205.882812 C 273.230469 206.25 273.007812 206.632812 272.789062 207.015625 C 272.347656 207.792969 271.90625 208.558594 271.480469 209.277344 C 271.90625 208.558594 272.347656 207.792969 272.789062 207.015625 C 273.023438 206.632812 273.230469 206.25 273.449219 205.882812 Z M 273.449219 205.882812 " fill-opacity="1" fill-rule="nonzero"/><path fill="#ffd73e" d="M 274.625 203.675781 C 274.257812 204.398438 273.863281 205.132812 273.449219 205.882812 C 273.863281 205.132812 274.257812 204.398438 274.625 203.675781 Z M 274.625 203.675781 " fill-opacity="1" fill-rule="nonzero"/><path fill="#ffd73e" d="M 275.683594 201.515625 C 275.523438 201.867188 275.347656 202.21875 275.15625 202.589844 C 274.992188 202.957031 274.816406 203.308594 274.625 203.675781 C 274.816406 203.308594 274.992188 202.957031 275.15625 202.589844 C 275.347656 202.21875 275.523438 201.867188 275.683594 201.515625 Z M 275.683594 201.515625 " fill-opacity="1" fill-rule="nonzero"/><path fill="#ffd73e" d="M 276.550781 199.648438 C 276.316406 200.191406 276.023438 200.824219 275.683594 201.515625 C 276.023438 200.824219 276.316406 200.191406 276.550781 199.648438 Z M 276.550781 199.648438 " fill-opacity="1" fill-rule="nonzero"/><path fill="#ffd73e" d="M 277.183594 197.839844 C 277.066406 198.222656 276.960938 198.574219 276.84375 198.898438 C 276.757812 199.132812 276.652344 199.382812 276.550781 199.648438 C 276.652344 199.382812 276.757812 199.132812 276.84375 198.898438 C 276.960938 198.574219 277.066406 198.222656 277.183594 197.839844 Z M 277.183594 197.839844 " fill-opacity="1" fill-rule="nonzero"/><path fill="#ffd73e" d="M 278.386719 187.691406 C 278.402344 188.015625 278.417969 188.339844 278.433594 188.679688 C 278.433594 189.046875 278.433594 189.441406 278.417969 189.871094 C 278.433594 189.441406 278.433594 189.046875 278.433594 188.679688 C 278.417969 188.339844 278.402344 188.015625 278.386719 187.691406 Z M 278.386719 187.691406 " fill-opacity="1" fill-rule="nonzero"/><path fill="#ffd73e" d="M 278.167969 184.824219 C 278.242188 185.429688 278.300781 186.046875 278.328125 186.664062 C 278.300781 186.046875 278.242188 185.429688 278.167969 184.824219 Z M 278.167969 184.824219 " fill-opacity="1" fill-rule="nonzero"/><path fill="#ffd73e" d="M 276.890625 178.738281 C 277.09375 179.429688 277.273438 180.105469 277.417969 180.738281 C 277.273438 180.105469 277.09375 179.429688 276.890625 178.738281 Z M 276.890625 178.738281 " fill-opacity="1" fill-rule="nonzero"/><path fill="#000000" d="M 131.304688 161.859375 C 131.246094 162.125 131.1875 162.316406 131.113281 162.449219 C 131.1875 162.316406 131.246094 162.125 131.304688 161.859375 Z M 131.304688 161.859375 " fill-opacity="1" fill-rule="nonzero"/><path fill="#ffd73e" d="M 34.898438 156.785156 C 35.945312 159.390625 37.046875 162.09375 38.191406 164.828125 C 37.046875 162.09375 35.945312 159.390625 34.898438 156.785156 Z M 34.898438 156.785156 " fill-opacity="1" fill-rule="nonzero"/><path fill="#000000" d="M 266.71875 143.6875 C 266.894531 144.523438 267.101562 145.40625 267.292969 146.363281 C 267.554688 147.625 267.804688 148.789062 268.042969 149.859375 C 267.804688 148.789062 267.554688 147.625 267.292969 146.363281 C 267.101562 145.40625 266.894531 144.523438 266.71875 143.6875 Z M 266.71875 143.6875 " fill-opacity="1" fill-rule="nonzero"/><path fill="#ffd73e" d="M 115.664062 129.113281 C 118.089844 130.085938 120.5 131.039062 122.722656 131.878906 C 120.5 131.039062 118.089844 130.085938 115.664062 129.113281 Z M 115.664062 129.113281 " fill-opacity="1" fill-rule="nonzero"/><path fill="#000000" d="M 260.117188 123.734375 C 260.148438 124.101562 260.164062 124.410156 260.191406 124.6875 L 262.058594 129.101562 L 260.191406 124.6875 C 260.164062 124.410156 260.148438 124.101562 260.117188 123.734375 Z M 260.117188 123.734375 " fill-opacity="1" fill-rule="nonzero"/><path fill="#ffd73e" d="M 259.929688 113.175781 C 260 115.335938 260.046875 117.425781 260.046875 119.320312 C 260.046875 117.425781 260 115.335938 259.929688 113.175781 Z M 259.929688 113.175781 " fill-opacity="1" fill-rule="nonzero"/><path fill="#ffd73e" d="M 224.328125 102 C 224.402344 102.324219 224.492188 102.617188 224.5625 102.882812 C 224.5625 102.898438 224.578125 102.914062 224.578125 102.941406 C 224.578125 102.914062 224.5625 102.898438 224.5625 102.882812 C 224.492188 102.617188 224.402344 102.324219 224.328125 102 Z M 224.328125 102 " fill-opacity="1" fill-rule="nonzero"/><path fill="#ffd73e" d="M 54.109375 96.648438 C 54.902344 97.238281 55.785156 97.871094 56.742188 98.546875 C 55.785156 97.871094 54.902344 97.238281 54.109375 96.648438 Z M 54.109375 96.648438 " fill-opacity="1" fill-rule="nonzero"/><path fill="#ffd73e" d="M 253.917969 67.476562 C 254.3125 69.125 254.679688 70.710938 255.035156 72.269531 C 254.679688 70.710938 254.3125 69.125 253.917969 67.476562 Z M 253.917969 67.476562 " fill-opacity="1" fill-rule="nonzero"/><path fill="#ffd73e" d="M 222.84375 92.695312 C 223.34375 96.796875 223.84375 100.03125 224.328125 102 C 223.84375 100.03125 223.34375 96.796875 222.84375 92.695312 Z M 222.84375 92.695312 " fill-opacity="1" fill-rule="nonzero"/><path fill="#ffd73e" d="M 221.652344 80.8125 C 222.035156 85.238281 222.433594 89.28125 222.84375 92.695312 C 222.433594 89.28125 222.035156 85.238281 221.652344 80.8125 Z M 221.652344 80.8125 " fill-opacity="1" fill-rule="nonzero"/><path fill="#ffd73e" d="M 220.316406 61.15625 C 220.40625 62.597656 220.476562 64.035156 220.566406 65.464844 C 220.609375 66.492188 220.667969 67.449219 220.726562 68.300781 C 220.742188 68.710938 220.785156 69.140625 220.816406 69.535156 C 221.066406 73.476562 221.34375 77.269531 221.652344 80.8125 C 221.34375 77.269531 221.066406 73.476562 220.816406 69.535156 C 220.785156 69.140625 220.757812 68.710938 220.726562 68.300781 C 220.667969 67.449219 220.609375 66.492188 220.566406 65.464844 C 220.476562 64.035156 220.40625 62.597656 220.316406 61.15625 Z M 220.316406 61.15625 " fill-opacity="1" fill-rule="nonzero"/><path fill="#ffd73e" d="M 251.742188 59.449219 C 252.09375 60.609375 252.417969 61.757812 252.726562 62.917969 C 252.417969 61.757812 252.09375 60.609375 251.742188 59.449219 Z M 251.742188 59.449219 " fill-opacity="1" fill-rule="nonzero"/><path fill="#ffd73e" d="M 250.667969 55.921875 C 251.035156 57.097656 251.402344 58.273438 251.742188 59.449219 C 251.402344 58.273438 251.035156 57.097656 250.667969 55.921875 Z M 250.667969 55.921875 " fill-opacity="1" fill-rule="nonzero"/><path fill="#ffd73e" d="M 247.789062 47.511719 C 248.449219 49.304688 249.082031 51.113281 249.699219 52.949219 C 249.082031 51.113281 248.449219 49.304688 247.789062 47.511719 Z M 247.789062 47.511719 " fill-opacity="1" fill-rule="nonzero"/><path fill="#ffd73e" d="M 243.140625 36.085938 C 243.964844 37.921875 244.757812 39.804688 245.539062 41.703125 C 244.757812 39.804688 243.964844 37.921875 243.140625 36.085938 Z M 243.140625 36.085938 " fill-opacity="1" fill-rule="nonzero"/><path fill="#ffd73e" d="M 241.480469 32.46875 C 242.054688 33.660156 242.597656 34.867188 243.140625 36.085938 C 242.597656 34.867188 242.054688 33.660156 241.480469 32.46875 Z M 241.480469 32.46875 " fill-opacity="1" fill-rule="nonzero"/><path fill="#ffd73e" d="M 239.777344 28.984375 C 240.351562 30.128906 240.921875 31.292969 241.480469 32.46875 C 240.921875 31.292969 240.351562 30.128906 239.777344 28.984375 Z M 239.777344 28.984375 " fill-opacity="1" fill-rule="nonzero"/><path fill="#ffd73e" d="M 234.457031 19.410156 C 235.058594 20.398438 235.660156 21.398438 236.25 22.441406 C 235.660156 21.398438 235.058594 20.398438 234.457031 19.410156 Z M 234.457031 19.410156 " fill-opacity="1" fill-rule="nonzero"/><path fill="#ffd73e" d="M 231.722656 15.25 C 232.632812 16.558594 233.542969 17.957031 234.457031 19.410156 C 233.542969 17.957031 232.632812 16.558594 231.722656 15.25 Z M 231.722656 15.25 " fill-opacity="1" fill-rule="nonzero"/><path fill="#ffd73e" d="M 228.269531 10.691406 C 228.488281 10.972656 228.722656 11.25 228.972656 11.558594 C 229.28125 11.941406 229.578125 12.324219 229.886719 12.738281 C 229.589844 12.324219 229.28125 11.941406 228.972656 11.558594 C 228.738281 11.25 228.488281 10.972656 228.269531 10.691406 Z M 228.269531 10.691406 " fill-opacity="1" fill-rule="nonzero"/><path fill="#ffd73e" d="M 226.355469 8.605469 C 226.945312 9.179688 227.578125 9.871094 228.269531 10.691406 C 227.578125 9.871094 226.945312 9.179688 226.355469 8.605469 Z M 226.355469 8.605469 " fill-opacity="1" fill-rule="nonzero"/><path fill="#ffd73e" d="M 219.847656 44.261719 C 219.90625 49.496094 219.992188 54.171875 220.109375 56.804688 C 220.167969 58.257812 220.242188 59.714844 220.316406 61.15625 C 220.242188 59.714844 220.167969 58.257812 220.109375 56.804688 C 219.992188 54.171875 219.90625 49.496094 219.847656 44.261719 Z M 219.847656 44.261719 " fill-opacity="1" fill-rule="nonzero"/><path fill="#ffd73e" d="M 219.800781 20.910156 C 219.773438 22.941406 219.757812 25.527344 219.757812 28.382812 C 219.726562 31.660156 219.742188 35.175781 219.789062 38.863281 C 219.800781 40.6875 219.816406 42.511719 219.847656 44.261719 C 219.816406 42.511719 219.800781 40.6875 219.789062 38.863281 C 219.742188 35.175781 219.726562 31.660156 219.757812 28.382812 C 219.757812 25.527344 219.773438 22.941406 219.800781 20.910156 Z M 219.800781 20.910156 " fill-opacity="1" fill-rule="nonzero"/><path fill="#ffd73e" d="M 219.90625 17.367188 C 219.859375 18.164062 219.832031 19.382812 219.800781 20.910156 C 219.832031 19.382812 219.859375 18.164062 219.90625 17.367188 Z M 219.90625 17.367188 " fill-opacity="1" fill-rule="nonzero"/><path fill="#ffd73e" d="M 222.082031 7.089844 C 221.226562 7.871094 220.757812 9.265625 220.332031 12.898438 C 220.332031 12.929688 220.316406 12.957031 220.316406 13 C 220.199219 14.046875 220.066406 15.25 219.933594 16.722656 C 219.917969 16.882812 219.90625 17.105469 219.90625 17.367188 C 219.90625 17.105469 219.917969 16.882812 219.933594 16.722656 C 220.066406 15.25 220.199219 14.046875 220.316406 13 C 220.316406 12.957031 220.332031 12.929688 220.332031 12.898438 C 220.757812 9.265625 221.226562 7.871094 222.082031 7.089844 Z M 222.082031 7.089844 " fill-opacity="1" fill-rule="nonzero"/><path fill="#ffd73e" d="M 222.816406 39.144531 L 222.816406 42.070312 C 222.816406 42.761719 222.828125 43.628906 222.84375 44.554688 L 222.902344 46.773438 C 223.183594 56.375 224.035156 72.757812 224.519531 76.550781 C 224.609375 77.183594 224.785156 79.167969 224.917969 80.960938 C 225.253906 85.238281 226.886719 97.957031 227.414062 100.3125 C 228.03125 103.105469 228.328125 103.414062 231.148438 104.324219 C 233.664062 105.132812 235.660156 106.105469 236.734375 106.898438 C 237.085938 107.132812 237.308594 107.339844 237.367188 107.484375 C 237.777344 108 237.628906 108.382812 236.75 108.5 C 236.292969 108.558594 235 108.339844 233.867188 108 C 230.621094 107.03125 220.964844 105.164062 217.421875 104.839844 C 216.847656 104.796875 216.230469 104.75 215.597656 104.707031 C 213.230469 104.605469 210.5 104.574219 206.882812 104.589844 C 204.589844 104.589844 202.5625 104.617188 200.636719 104.664062 C 196.226562 104.855469 191.90625 105.207031 188.449219 105.691406 C 177.707031 107.207031 174.265625 107.941406 166.390625 110.367188 C 164.492188 110.957031 163.199219 111.339844 162.347656 111.660156 C 162.113281 111.75 161.890625 111.839844 161.714844 111.925781 C 160.464844 112.527344 161.070312 113 162.464844 114.457031 C 162.539062 114.542969 162.597656 114.617188 162.671875 114.691406 C 163.082031 115.085938 163.449219 115.5 163.757812 115.910156 C 164.890625 117.265625 165.300781 118.132812 165.035156 118.558594 C 164.582031 119.277344 163.609375 118.910156 161.65625 117.265625 C 155.820312 112.351562 139.800781 103.765625 127.234375 98.796875 C 111.625 92.605469 95.5 88.136719 78.875 85.355469 C 74.410156 84.605469 74.351562 84.386719 74.128906 87.253906 C 74.101562 88.296875 74.070312 89.503906 74.070312 90.871094 C 74.070312 92.28125 74.085938 93.386719 74.113281 94.3125 C 74.539062 98.414062 75.761719 102.238281 77.699219 105.515625 L 78.480469 106.839844 C 78.964844 107.515625 79.421875 108.015625 79.800781 108.25 C 80.066406 108.414062 80.699219 108.75 81.492188 109.175781 L 89.753906 113.292969 C 95.558594 116.175781 100.394531 118.542969 100.496094 118.542969 C 100.613281 118.542969 102.054688 119.175781 103.703125 119.941406 C 114.976562 125.175781 136.726562 133.144531 142.710938 134.230469 C 145.105469 134.671875 145.578125 134.835938 145.648438 135.554688 C 145.648438 135.585938 145.664062 135.597656 145.664062 135.628906 C 145.664062 135.65625 145.648438 135.671875 145.648438 135.6875 C 145.648438 135.746094 145.664062 135.773438 145.664062 135.835938 C 145.664062 136.320312 145.371094 136.597656 144.796875 136.628906 C 144.488281 136.65625 144.035156 136.65625 143.535156 136.65625 C 143.035156 136.671875 142.445312 136.65625 141.785156 136.597656 C 140.800781 136.554688 139.886719 136.480469 139.375 136.394531 C 139.125 136.378906 138.917969 136.378906 138.757812 136.378906 C 138.023438 136.746094 137.34375 139.15625 136.300781 144.921875 C 135.40625 149.847656 134.816406 155.667969 134.613281 161.167969 C 134.597656 164.375 134.683594 168.242188 134.863281 172.988281 C 134.890625 173.3125 134.921875 173.621094 134.964844 173.929688 C 135.125 175.210938 135.433594 180.503906 135.671875 185.695312 C 136.332031 200.71875 137.167969 206.410156 139.699219 212.851562 C 140.769531 215.585938 142.019531 218.085938 143.503906 220.378906 C 144.902344 222.527344 146.515625 224.511719 148.339844 226.347656 C 149.722656 227.714844 151.25 229.054688 152.894531 230.289062 C 155.101562 231.9375 157.570312 233.4375 160.332031 234.847656 C 161.980469 235.683594 164.316406 236.683594 165.535156 237.054688 C 166.667969 237.40625 167.417969 237.789062 167.710938 238.140625 C 167.859375 238.289062 167.917969 238.449219 167.917969 238.625 C 167.917969 238.683594 167.917969 238.742188 167.886719 238.800781 C 167.828125 239.757812 166.476562 239.757812 162.933594 238.890625 C 156.746094 237.363281 148.132812 231.507812 143.503906 225.6875 L 141.960938 223.761719 C 141.8125 223.65625 141.679688 223.613281 141.578125 223.671875 L 141.359375 225.113281 C 141.210938 226.097656 140.902344 228.453125 140.695312 230.347656 C 139.886719 237.316406 134.640625 255.976562 130.9375 265.035156 C 130.527344 266.019531 130.171875 266.960938 130.011719 267.445312 C 129.980469 267.59375 129.953125 267.722656 129.9375 267.828125 C 130.027344 268.003906 130.71875 268.3125 131.554688 268.53125 C 134.640625 269.339844 138.769531 271.589844 140.519531 273.398438 C 142.238281 275.207031 142.621094 276.238281 141.886719 276.339844 C 141.460938 276.53125 140.652344 276.3125 139.828125 275.707031 C 139.433594 275.515625 139.019531 275.28125 138.550781 274.988281 C 136.097656 273.503906 134.65625 272.78125 132.921875 272.253906 C 132.820312 272.222656 132.699219 272.195312 132.597656 272.148438 C 132.070312 272.003906 131.511719 271.871094 130.878906 271.722656 C 125.46875 270.546875 120.839844 271.328125 117.664062 273.871094 C 117.414062 274.105469 117.152344 274.355469 116.84375 274.636719 C 116.621094 274.871094 116.402344 275.105469 116.179688 275.324219 C 115.960938 275.589844 115.753906 275.871094 115.546875 276.148438 C 114.902344 277.089844 114.621094 277.503906 114.652344 277.898438 C 114.710938 278.089844 114.8125 278.339844 114.945312 278.621094 C 114.976562 278.679688 115.003906 278.738281 115.046875 278.8125 C 116.636719 281.339844 118.414062 285.074219 119.472656 288.089844 C 121.046875 292.542969 121.191406 294.207031 120.015625 294.207031 C 119.53125 294.207031 118.957031 293.46875 118.195312 291.808594 C 116.285156 287.75 113.683594 282.914062 111.460938 279.105469 C 109.535156 275.886719 107.789062 273.207031 107.183594 272.738281 C 107.066406 272.679688 107.007812 272.679688 106.980469 272.796875 C 106.890625 273.238281 107.875 277.339844 109.066406 281.5 C 109.390625 282.457031 109.550781 283.117188 109.535156 283.558594 C 109.550781 283.914062 109.449219 284.117188 109.242188 284.324219 C 108.847656 284.722656 108.507812 284.546875 107.539062 283.414062 C 105.539062 281.105469 103.4375 274.386719 103.4375 270.253906 C 103.4375 269.546875 103.335938 268.972656 103.15625 268.5625 C 103.085938 268.414062 102.996094 268.28125 102.90625 268.195312 C 102.746094 268.03125 102.628906 267.929688 102.539062 267.902344 C 102.480469 267.929688 102.421875 267.972656 102.363281 268.046875 C 102.320312 268.210938 102.304688 268.578125 102.289062 269.078125 C 102.320312 269.503906 102.347656 270.019531 102.410156 270.710938 C 102.65625 273.972656 103.289062 276.945312 104.640625 281.089844 C 105.082031 282.414062 105.332031 283.75 105.214844 284.058594 C 104.613281 285.617188 102.597656 283.675781 101.1875 280.207031 C 100.453125 278.414062 100.410156 278.371094 100.394531 279.5 C 100.335938 282.867188 102.363281 292.207031 105.214844 301.6875 C 109.875 317.113281 117.503906 331.199219 122.722656 333.933594 C 123.324219 334.257812 123.589844 334.359375 123.851562 334.183594 C 123.941406 334.109375 124.027344 334.007812 124.132812 333.890625 C 124.21875 333.773438 124.324219 333.625 124.441406 333.449219 C 125.027344 332.550781 125.144531 331.300781 125.25 324.65625 C 125.335938 318.832031 125.5 316.847656 125.867188 316.714844 C 127.128906 316.214844 128.011719 318.289062 128.378906 322.421875 C 128.660156 324.480469 128.804688 326.890625 128.703125 329.289062 L 128.585938 332.507812 L 128.734375 332.597656 L 129.921875 333.097656 C 132.847656 334.332031 133.980469 334.597656 139.976562 334.65625 C 141.359375 334.65625 142.679688 334.667969 144.695312 334.667969 C 152.777344 334.65625 161.070312 334.316406 163.332031 333.890625 C 163.65625 333.832031 165.84375 333.667969 168.210938 333.507812 C 171.695312 333.289062 172.519531 333.109375 172.636719 332.609375 C 172.8125 331.890625 172.503906 331.347656 167.726562 323.554688 C 155.101562 302.925781 147.03125 285.855469 144.210938 273.695312 C 143.738281 271.664062 143.429688 269.664062 143.285156 267.960938 C 143.136719 266.8125 143.046875 265.8125 143.035156 265.046875 C 142.988281 264.3125 143.003906 263.902344 143.136719 263.710938 C 143.179688 263.535156 143.238281 263.402344 143.328125 263.359375 C 143.445312 263.285156 143.578125 263.253906 143.710938 263.269531 C 143.753906 263.238281 143.785156 263.226562 143.828125 263.226562 C 144.238281 263.136719 144.519531 263.386719 144.695312 264.003906 C 144.8125 264.226562 144.902344 264.460938 144.902344 264.710938 C 144.902344 264.738281 144.914062 264.828125 144.914062 264.902344 C 146.148438 269.796875 149.53125 280.78125 150.910156 284.238281 C 152.25 287.601562 154.851562 293.601562 156.394531 296.96875 C 156.804688 297.824219 157.230469 298.675781 157.671875 299.542969 C 157.9375 299.984375 158.761719 301.5 159.644531 303.21875 C 160.628906 305.117188 161.746094 307.1875 162.113281 307.820312 C 162.492188 308.453125 163.375 310.011719 164.082031 311.277344 C 164.773438 312.539062 165.640625 314.011719 166.007812 314.539062 C 166.359375 315.070312 167.09375 316.273438 167.625 317.214844 C 168.152344 318.171875 170.253906 321.640625 172.28125 324.9375 C 174.265625 328.140625 175.457031 330.347656 175.839844 331.433594 C 175.929688 331.65625 175.988281 331.816406 175.988281 331.90625 C 175.988281 331.917969 175.972656 331.949219 175.972656 331.964844 C 175.972656 331.980469 175.988281 332.007812 175.988281 332.039062 C 175.988281 332.640625 175.472656 334.214844 174.839844 335.535156 C 174.3125 336.65625 173.957031 337.59375 173.957031 337.859375 C 174.121094 337.832031 174.457031 337.714844 174.871094 337.535156 C 175.191406 337.375 175.546875 337.183594 175.929688 336.964844 C 177.265625 336.199219 178.164062 335.90625 178.839844 336.09375 C 179.292969 336.167969 179.632812 336.492188 179.941406 337.066406 C 180 337.152344 180.058594 337.257812 180.117188 337.359375 L 180.292969 337.714844 C 180.46875 338.050781 180.617188 338.300781 180.703125 338.460938 C 180.851562 338.507812 181 338.492188 181.175781 338.402344 L 182.394531 337.359375 C 182.71875 337.09375 183.042969 336.84375 183.351562 336.640625 C 183.367188 336.625 183.378906 336.625 183.394531 336.609375 C 183.570312 336.492188 183.746094 336.375 183.910156 336.285156 C 184.144531 336.125 184.335938 336.007812 184.410156 336.007812 C 184.421875 336.007812 184.453125 336.023438 184.46875 336.035156 C 184.511719 336.023438 184.554688 336.007812 184.585938 336.007812 C 184.746094 336.007812 185.011719 336.183594 185.289062 336.433594 C 185.613281 336.667969 185.90625 337.035156 186.230469 337.566406 C 186.304688 337.683594 186.378906 337.800781 186.453125 337.902344 C 186.789062 338.359375 187.113281 338.683594 187.261719 338.699219 C 187.378906 338.667969 187.6875 338.507812 188.113281 338.242188 C 188.539062 337.964844 189.097656 337.582031 189.65625 337.167969 C 190.613281 336.449219 191.667969 335.832031 192.214844 335.667969 C 192.257812 335.667969 192.273438 335.65625 192.300781 335.65625 C 192.316406 335.640625 192.347656 335.625 192.359375 335.625 C 192.359375 335.625 192.359375 335.640625 192.359375 335.640625 C 192.375 335.640625 192.375 335.625 192.375 335.625 C 192.390625 335.625 192.40625 335.640625 192.40625 335.640625 C 192.417969 335.640625 192.433594 335.625 192.449219 335.625 C 192.933594 335.625 193.667969 336.285156 194.402344 337.359375 C 195.402344 338.816406 195.828125 339.183594 196.902344 338.273438 C 197.019531 338.167969 197.136719 338.050781 197.253906 337.933594 C 197.609375 337.59375 198.003906 337.183594 198.519531 336.625 C 199.402344 335.65625 200.105469 335.097656 200.886719 334.917969 C 200.972656 334.890625 201.03125 334.859375 201.078125 334.859375 C 201.089844 334.859375 201.136719 334.875 201.148438 334.875 C 201.871094 334.785156 202.679688 334.992188 203.75 335.433594 C 204.179688 335.625 204.589844 335.773438 204.898438 335.875 C 205.074219 335.90625 205.234375 335.90625 205.324219 335.875 C 205.25 335.625 204.984375 335.097656 204.632812 334.417969 C 204.308594 333.992188 204.058594 333.566406 203.855469 333.082031 L 203.429688 332.433594 L 203.429688 332.273438 L 203.046875 331.597656 L 202.941406 323.9375 C 202.8125 313.453125 201.546875 300.144531 199.285156 285.175781 C 198.503906 280.5 197.636719 275.839844 196.683594 271.296875 C 196.359375 269.839844 195.992188 268.253906 195.519531 266.296875 C 195.152344 264.679688 194.875 263.402344 194.652344 262.371094 C 194.34375 261.109375 194.167969 260.285156 194.140625 259.800781 C 194.140625 259.785156 194.140625 259.785156 194.140625 259.785156 C 194.035156 259.34375 194.066406 259.09375 194.242188 258.992188 C 194.257812 258.933594 194.269531 258.886719 194.300781 258.871094 C 194.785156 258.386719 195.242188 258.609375 195.960938 259.859375 C 196.285156 260.359375 196.625 261.035156 196.976562 261.886719 C 196.976562 261.886719 196.976562 261.886719 196.992188 261.902344 C 198.460938 265.09375 199.652344 269.445312 200.945312 276.371094 C 201.414062 278.898438 201.945312 281.121094 202.105469 281.308594 C 202.265625 281.488281 202.515625 280.796875 202.648438 279.765625 C 202.972656 277.445312 205.367188 269.578125 206.367188 267.621094 C 206.808594 266.753906 207.21875 266.3125 207.617188 266.285156 C 207.925781 266.121094 208.191406 266.226562 208.410156 266.59375 C 208.441406 266.621094 208.425781 266.828125 208.394531 267.09375 C 208.394531 267.253906 208.382812 267.460938 208.351562 267.695312 C 208.292969 268.738281 207.957031 270.503906 207.292969 273.488281 C 203.5 290.574219 203.398438 291.484375 204.367188 299.058594 C 205.398438 307.085938 206.308594 319.65625 206.308594 325.746094 C 206.308594 330.273438 206.382812 330.773438 207.339844 332.742188 C 208.042969 334.167969 208.441406 334.773438 208.941406 334.785156 C 209.117188 334.726562 209.382812 334.625 209.675781 334.507812 C 209.777344 334.433594 209.867188 334.375 209.96875 334.300781 C 210.46875 333.917969 210.910156 333.726562 211.335938 333.726562 L 211.746094 333.539062 L 211.777344 333.523438 L 212.203125 333.976562 C 212.730469 334.285156 213.320312 334.890625 214.054688 335.816406 C 214.523438 336.417969 214.980469 336.964844 215.332031 337.34375 C 215.65625 337.640625 215.90625 337.800781 216.097656 337.84375 C 216.199219 337.683594 216.289062 337.257812 216.289062 336.757812 C 216.289062 335.214844 216.90625 334.097656 217.773438 334.097656 C 218.15625 334.097656 219.65625 334.859375 221.109375 335.816406 C 222.578125 336.757812 223.859375 337.535156 223.976562 337.535156 C 224.09375 337.535156 224.183594 336.640625 224.167969 335.535156 C 224.167969 335.464844 224.167969 335.40625 224.167969 335.34375 C 224.152344 335.125 224.167969 334.917969 224.183594 334.742188 C 224.210938 333.832031 224.34375 333.550781 224.753906 333.449219 C 224.871094 333.375 225.019531 333.332031 225.179688 333.332031 C 225.226562 333.332031 225.269531 333.359375 225.34375 333.40625 C 225.738281 333.492188 226.046875 333.847656 226.402344 334.609375 C 226.8125 335.476562 227.460938 336.082031 228.253906 336.359375 C 228.738281 336.535156 229.195312 336.640625 229.429688 336.65625 C 229.445312 336.65625 229.457031 336.65625 229.472656 336.65625 C 229.5625 336.59375 229.589844 336.507812 229.589844 336.375 C 229.503906 336.066406 229.265625 335.492188 228.945312 334.847656 C 228.195312 333.375 228.164062 333.167969 228.722656 332.625 C 229.28125 332.066406 229.457031 332.140625 230.8125 333.464844 C 231.605469 334.226562 232.074219 334.597656 232.605469 334.742188 C 232.675781 334.757812 232.75 334.773438 232.824219 334.785156 C 232.867188 334.785156 232.914062 334.800781 232.941406 334.800781 C 232.941406 334.800781 232.941406 334.800781 232.957031 334.800781 C 233.164062 334.816406 233.414062 334.816406 233.691406 334.785156 L 235.058594 334.667969 L 235.015625 334.609375 L 234.542969 333.976562 L 233.574219 332.800781 C 233.074219 332.199219 232.632812 331.550781 232.339844 331.023438 C 232.308594 330.964844 232.265625 330.890625 232.25 330.832031 C 232.105469 330.550781 232.015625 330.316406 232.015625 330.171875 C 232.015625 330.15625 232.03125 330.125 232.03125 330.109375 C 232.03125 330.082031 232.015625 330.066406 232.015625 330.050781 C 232.015625 329.683594 232.441406 328.683594 233.222656 327.125 C 234.160156 325.054688 235.398438 322.613281 235.867188 322.007812 C 237.410156 320.039062 245.113281 304.777344 247.375 299.191406 C 253.035156 285.265625 255.34375 274.472656 256.769531 255.460938 C 256.972656 252.683594 257.121094 250.816406 257.28125 249.492188 C 257.371094 248.566406 257.457031 247.964844 257.589844 247.699219 C 257.855469 246.785156 258.207031 246.949219 258.8125 247.550781 C 259.75 248.492188 259.914062 257.636719 259.105469 265.0625 C 257.457031 280.371094 254.152344 292.484375 247.230469 307.160156 C 246.316406 309.203125 245.507812 310.894531 245.066406 311.660156 C 244.996094 311.777344 244.816406 312.097656 244.714844 312.304688 C 243.203125 315.277344 241.554688 318.378906 239.746094 321.628906 C 237.691406 325.316406 235.96875 328.550781 235.574219 329.449219 C 235.542969 329.507812 235.542969 329.523438 235.527344 329.566406 C 235.515625 329.640625 235.515625 329.671875 235.5 329.714844 C 235.527344 329.949219 235.765625 330.421875 236.074219 330.816406 C 236.515625 331.40625 238.734375 331.789062 242.054688 331.949219 C 243.613281 331.980469 245.613281 331.980469 248.316406 331.980469 C 250.152344 331.980469 251.976562 331.964844 253.738281 331.933594 C 259.371094 331.714844 265.71875 331.242188 271.878906 330.539062 C 273.964844 330.289062 275.773438 330.050781 276.84375 329.890625 C 277.960938 329.671875 278.300781 329.363281 278.460938 328.523438 C 278.460938 328.464844 278.460938 328.421875 278.460938 328.363281 C 278.460938 328.097656 278.507812 327.847656 278.566406 327.625 C 278.667969 326.921875 278.828125 326.683594 279.300781 326.625 C 279.519531 326.523438 279.753906 326.523438 279.976562 326.65625 C 280.460938 326.757812 280.679688 327.097656 280.917969 327.964844 C 281.417969 329.816406 282.871094 331.933594 283.886719 332.40625 C 283.960938 332.433594 284.03125 332.464844 284.105469 332.476562 C 284.121094 332.476562 284.148438 332.492188 284.164062 332.492188 C 284.164062 332.492188 284.164062 332.492188 284.179688 332.492188 C 285.53125 332.683594 287.664062 331.039062 290.03125 327.921875 C 297.480469 318.15625 303.625 299.203125 304.699219 282.957031 C 304.726562 282.488281 304.742188 282.046875 304.757812 281.546875 L 304.902344 276.695312 C 304.902344 276.589844 304.890625 276.546875 304.890625 276.472656 C 304.875 276.355469 304.84375 276.253906 304.832031 276.164062 L 304.359375 278.722656 C 304.050781 281.207031 303.507812 283.53125 302.890625 285.222656 C 302.625 286 302.375 286.589844 302.097656 286.984375 C 301.757812 287.542969 301.421875 287.882812 301.113281 287.882812 C 300.980469 287.882812 300.875 287.824219 300.804688 287.691406 C 300.566406 287.691406 300.449219 287.617188 300.421875 287.132812 C 300.375 286.722656 300.421875 286 300.539062 284.707031 C 300.613281 283.765625 300.699219 282.855469 300.789062 282.089844 C 300.875 280.78125 300.996094 279.457031 301.125 278.546875 C 301.554688 275.265625 301.613281 268.34375 301.214844 268.136719 C 301.082031 268.136719 300.90625 268.238281 300.714844 268.445312 C 300.273438 269.0625 299.980469 270.605469 299.789062 273.121094 C 299.464844 277.707031 298.597656 282.164062 297.628906 284.824219 C 297.539062 285.046875 297.464844 285.265625 297.378906 285.457031 C 297.378906 285.472656 297.378906 285.472656 297.378906 285.472656 C 296.90625 286.617188 296.410156 287.308594 295.9375 287.308594 C 295.570312 287.292969 295.335938 287.207031 295.234375 286.867188 C 295.011719 286.308594 295.113281 285.105469 295.511719 282.664062 C 295.820312 280.679688 296.1875 277.414062 296.304688 275.414062 L 296.511719 272.078125 C 296.421875 272.148438 296.320312 272.269531 296.203125 272.429688 L 294.984375 274.839844 C 291.234375 282.296875 287.105469 293.851562 284.636719 303.792969 C 283.445312 308.644531 283.164062 309.351562 282.488281 309.351562 C 282.488281 309.351562 282.488281 309.351562 282.476562 309.351562 C 282.476562 309.351562 282.460938 309.351562 282.460938 309.351562 C 282.296875 309.351562 282.164062 309.320312 282.0625 309.261719 C 282.035156 309.230469 282.003906 309.21875 281.976562 309.1875 C 281.871094 309.070312 281.785156 308.878906 281.738281 308.570312 C 281.546875 308.011719 281.519531 307.128906 281.59375 305.996094 C 281.679688 301.792969 283.386719 295.335938 286.8125 286.175781 L 288.324219 282.074219 C 288.414062 281.53125 288.089844 281.089844 286.929688 279.8125 L 284.253906 277.253906 C 279.386719 272.605469 275.785156 270.488281 271.996094 270.253906 C 271.746094 270.253906 271.496094 270.238281 271.214844 270.238281 C 270.863281 270.238281 270.496094 270.253906 270.128906 270.28125 C 269.65625 270.328125 269.1875 270.386719 268.703125 270.472656 C 266.117188 270.972656 262.558594 272.414062 261.457031 273.414062 C 260.855469 273.957031 260.722656 274.003906 260.339844 273.503906 C 260.191406 273.445312 260.105469 273.328125 260.089844 273.148438 C 259.691406 272.5625 259.914062 272.253906 261.664062 270.578125 C 261.722656 270.519531 261.792969 270.460938 261.851562 270.402344 C 261.867188 270.386719 261.882812 270.371094 261.898438 270.355469 C 261.910156 270.339844 261.941406 270.328125 261.957031 270.3125 C 263.867188 268.5625 265.777344 267.710938 268.96875 267.179688 C 269.761719 267.046875 270.40625 266.769531 270.40625 266.546875 C 270.40625 266.34375 269.144531 263.710938 267.585938 260.726562 C 261.53125 249.007812 258.382812 239.714844 257.328125 230.539062 C 257.078125 228.320312 256.753906 226.394531 256.636719 226.246094 C 256.503906 226.097656 254.929688 227.203125 253.136719 228.671875 C 251.34375 230.15625 249.183594 231.832031 248.332031 232.390625 C 247.476562 232.949219 246.140625 233.90625 245.363281 234.507812 C 243.054688 236.289062 236.910156 239.523438 233.957031 240.539062 C 231.679688 241.300781 231.164062 241.375 230.882812 240.921875 C 230.824219 240.816406 230.78125 240.683594 230.753906 240.550781 C 230.648438 240.390625 230.605469 240.242188 230.664062 240.15625 C 230.679688 240.140625 230.707031 240.109375 230.722656 240.082031 C 230.78125 239.699219 230.988281 239.363281 231.28125 239.363281 C 231.679688 239.363281 238.558594 235.273438 241.804688 233.097656 C 247.167969 229.523438 253.636719 224.261719 258.222656 219.804688 C 259.589844 218.421875 260.925781 216.996094 262.175781 215.628906 C 264.101562 213.351562 266.570312 210.191406 268.011719 208.175781 C 268.394531 207.617188 268.746094 207.085938 269.085938 206.574219 C 269.113281 206.5 269.15625 206.425781 269.171875 206.382812 C 269.289062 206.058594 269.6875 205.351562 270.070312 204.792969 L 270.6875 203.910156 C 270.703125 203.867188 270.730469 203.824219 270.746094 203.792969 L 268.878906 203.574219 C 266.128906 203.25 262.925781 201.53125 260.941406 199.324219 C 258.265625 196.355469 256.988281 192.765625 256.957031 188.132812 C 256.957031 188.046875 256.957031 187.941406 256.957031 187.855469 C 256.957031 187.824219 256.957031 187.8125 256.957031 187.78125 C 256.957031 187.707031 256.957031 187.632812 256.957031 187.5625 C 256.957031 187.429688 256.972656 187.3125 256.972656 187.179688 C 257.078125 183.546875 257.929688 180.753906 259.605469 178.546875 C 259.914062 178.105469 260.265625 177.679688 260.648438 177.285156 C 260.648438 177.269531 260.664062 177.253906 260.664062 177.253906 C 260.707031 177.210938 260.734375 177.179688 260.765625 177.152344 C 263.234375 174.460938 265.96875 173.285156 269.730469 173.226562 C 270.847656 173.210938 271.773438 173.109375 271.90625 172.988281 C 271.921875 172.960938 271.921875 172.945312 271.9375 172.917969 C 271.90625 172.726562 271.480469 171.488281 270.9375 170.078125 C 268.261719 163.019531 266.308594 156.390625 265.027344 149.992188 C 263.941406 144.566406 262.53125 138.9375 261.324219 135.230469 C 260.015625 131.203125 256.945312 124.703125 255.253906 122.335938 C 254.503906 121.308594 253.902344 120.367188 253.902344 120.261719 C 253.902344 120.160156 252.945312 118.835938 251.785156 117.324219 C 250.402344 115.515625 249.742188 114.398438 249.726562 113.777344 C 249.652344 113.382812 249.84375 113.175781 250.269531 113.175781 C 250.285156 113.175781 250.316406 113.175781 250.328125 113.175781 C 250.34375 113.175781 250.359375 113.175781 250.375 113.175781 C 250.390625 113.175781 250.402344 113.175781 250.417969 113.175781 C 250.476562 113.175781 250.535156 113.175781 250.609375 113.175781 C 251.269531 113.175781 252.3125 114.015625 254.269531 116.144531 L 257.003906 119.101562 L 256.957031 114.425781 L 256.855469 110.867188 C 256.828125 109.839844 256.78125 108.792969 256.738281 107.765625 C 256.210938 98.132812 254.769531 85.785156 253.09375 77.09375 C 252.992188 76.625 252.902344 76.136719 252.800781 75.667969 C 251.683594 70.316406 248.964844 60.171875 247.039062 54.214844 C 244.964844 47.804688 244.949219 47.773438 240.421875 44.714844 C 235.324219 41.261719 231.046875 39.6875 225.59375 39.261719 L 224.210938 39.144531 Z M 246.582031 140.246094 C 251.300781 140.304688 255.796875 143.15625 258.0625 148.023438 C 259.488281 151.082031 259.472656 155.742188 258.03125 158.816406 C 256.8125 161.417969 254.328125 163.875 251.800781 164.992188 C 249.433594 166.035156 245.433594 166.316406 243.480469 165.59375 C 239.484375 164.09375 236.824219 161.683594 235.148438 158.066406 C 233.839844 155.199219 233.78125 150.714844 235.027344 147.921875 C 236.382812 144.90625 238.277344 142.878906 241.070312 141.507812 C 242.863281 140.628906 244.746094 140.230469 246.582031 140.246094 Z M 34.164062 141.289062 C 33.53125 141.304688 33.152344 141.347656 33.09375 141.4375 C 32.902344 141.757812 34.269531 145.65625 37.679688 154.40625 C 39.75 159.710938 41.027344 162.742188 45.292969 172.429688 C 48.394531 179.488281 55.183594 193.28125 57.210938 196.605469 C 58.152344 198.148438 58.917969 199.515625 58.917969 199.648438 C 58.917969 199.660156 58.960938 199.734375 58.988281 199.808594 C 59.429688 200.542969 59.796875 201.148438 60.078125 201.601562 C 60.167969 201.75 60.253906 201.867188 60.34375 202.015625 L 61.035156 203.042969 L 61.664062 203.96875 L 64.898438 204.015625 L 67.351562 203.898438 C 73.160156 203.632812 93.515625 204.191406 105.699219 204.96875 C 106.15625 205 106.40625 205.015625 106.816406 205.042969 C 111.300781 205.277344 112.535156 205.394531 112.976562 205.867188 C 113.0625 205.925781 113.125 205.984375 113.167969 206.058594 C 113.476562 206.558594 113.109375 208.21875 111.609375 213.160156 C 107.730469 225.789062 103.289062 241.332031 102.304688 245.476562 C 102.171875 246.15625 102.128906 246.507812 102.171875 246.625 C 102.394531 246.773438 103.980469 247.359375 105.847656 248.023438 C 117.871094 252.199219 125.074219 254.960938 126.691406 256.019531 C 126.761719 256.078125 126.851562 256.152344 126.9375 256.253906 L 127.4375 256.476562 L 127.746094 257.476562 C 127.925781 257.8125 128.070312 258.167969 128.1875 258.519531 C 128.542969 259.578125 128.953125 260.445312 129.101562 260.445312 C 129.230469 260.445312 129.996094 258.59375 130.789062 256.328125 C 132.230469 252.226562 133.496094 247.785156 133.289062 247.582031 C 133.230469 247.523438 129.910156 245.90625 125.910156 243.976562 C 121.914062 242.050781 118.578125 240.40625 118.472656 240.316406 C 117.972656 239.816406 118.472656 238.066406 119.632812 236.246094 C 120.355469 235.113281 121.074219 233.921875 121.207031 233.613281 C 121.5 232.964844 124.042969 229.304688 128.394531 223.304688 C 129.980469 221.113281 131.523438 218.953125 131.847656 218.496094 C 132.15625 218.042969 133.246094 216.511719 134.257812 215.101562 L 135.683594 213.144531 C 135.921875 212.75 136.050781 212.484375 136.066406 212.378906 L 135.347656 209.941406 C 133.804688 204.660156 132.6875 197 132.628906 191.414062 C 132.613281 189.839844 132.4375 185.515625 132.230469 181.828125 C 132.011719 178.136719 131.730469 172.988281 131.597656 170.386719 L 131.363281 166.003906 L 131.335938 165.667969 L 129.160156 164.566406 C 127.953125 163.960938 124.824219 162.578125 122.207031 161.492188 C 101.171875 152.742188 81.800781 147.273438 59.296875 143.699219 C 52.007812 142.539062 39.515625 141.363281 34.886719 141.289062 C 34.621094 141.289062 34.371094 141.289062 34.164062 141.289062 Z M 170.902344 144.4375 C 171.164062 144.421875 171.414062 144.421875 171.679688 144.4375 C 173.886719 144.464844 174.78125 144.671875 176.457031 145.464844 C 178.308594 146.332031 180 147.730469 181.308594 149.449219 C 181.792969 150.050781 182.175781 150.640625 182.484375 151.257812 C 182.601562 151.480469 182.703125 151.683594 182.808594 151.90625 C 183.660156 153.683594 183.804688 154.535156 183.792969 157.285156 C 183.792969 160.082031 183.628906 160.859375 182.675781 162.785156 C 181.410156 165.359375 178.96875 167.710938 176.179688 169.019531 C 173.429688 170.3125 168.550781 170.3125 165.816406 169.019531 C 162.433594 167.433594 159.964844 164.652344 158.804688 161.449219 C 158.671875 161.109375 158.570312 160.800781 158.496094 160.492188 C 157.910156 158.390625 157.878906 156.15625 158.496094 153.992188 C 159.644531 149.992188 161.921875 147.257812 165.625 145.464844 C 167.359375 144.613281 168.210938 144.4375 170.8125 144.4375 C 170.84375 144.4375 170.871094 144.4375 170.902344 144.4375 Z M 219.007812 160.460938 C 220.464844 160.519531 221.273438 160.949219 221.273438 161.726562 C 221.273438 162.652344 220.199219 164.460938 219.273438 165.125 C 218.949219 165.34375 218.65625 165.492188 218.375 165.578125 C 218.332031 165.59375 218.289062 165.609375 218.242188 165.625 C 218.214844 165.625 218.183594 165.625 218.15625 165.636719 C 218.097656 165.636719 218.039062 165.652344 217.980469 165.652344 C 217.464844 165.683594 216.890625 165.492188 216.054688 165.078125 C 215.40625 164.757812 214.570312 163.992188 214.214844 163.386719 C 213.820312 162.710938 213.6875 162.433594 213.835938 162.140625 C 213.835938 162.125 213.835938 162.09375 213.835938 162.078125 C 213.90625 161.902344 214.070312 161.726562 214.289062 161.566406 C 214.304688 161.566406 214.304688 161.566406 214.304688 161.550781 C 214.789062 161.078125 215.863281 160.726562 217.363281 160.550781 C 217.980469 160.476562 218.523438 160.449219 219.007812 160.460938 Z M 218.613281 170.621094 C 219.050781 170.621094 219.464844 170.679688 219.890625 170.785156 C 220.742188 170.976562 224.285156 172.445312 227.78125 174.046875 C 231.441406 175.738281 233.664062 176.664062 235.398438 177.019531 C 236.394531 177.121094 237.382812 177.136719 238.320312 177.019531 C 238.996094 176.871094 239.703125 176.636719 240.511719 176.3125 C 243.4375 175.136719 243.390625 175.152344 243.671875 175.855469 C 243.980469 176.664062 242.554688 178.269531 240.71875 179.210938 C 239.671875 179.738281 239.175781 180.003906 238.878906 180.546875 C 238.734375 180.945312 238.601562 181.460938 238.496094 182.105469 C 238.453125 182.398438 238.425781 182.738281 238.378906 183.121094 C 238.027344 186.371094 236.910156 191 234.898438 197.558594 C 231.738281 207.867188 227.472656 216.453125 223.210938 221.039062 C 218.980469 225.613281 214.894531 226.90625 210.292969 225.144531 C 209.878906 224.980469 209.453125 224.777344 209.042969 224.554688 C 208.644531 224.378906 208.277344 224.15625 207.898438 223.878906 C 199.84375 218.570312 192.390625 202.632812 190.183594 185.28125 C 189.996094 183.855469 189.816406 182.898438 189.582031 182.3125 C 189.582031 182.296875 189.566406 182.28125 189.566406 182.253906 C 189.523438 182.164062 189.480469 182.078125 189.449219 182.003906 C 189.4375 181.988281 189.4375 181.972656 189.421875 181.972656 C 189.332031 181.8125 189.230469 181.695312 189.128906 181.636719 C 188.878906 181.472656 188.261719 180.988281 187.613281 180.445312 C 187.40625 180.253906 187.1875 180.0625 186.980469 179.871094 C 185.90625 178.902344 185.554688 178.34375 185.703125 177.855469 C 185.703125 177.84375 185.703125 177.84375 185.703125 177.828125 C 185.71875 177.828125 185.71875 177.8125 185.71875 177.8125 C 185.730469 177.753906 185.746094 177.710938 185.777344 177.664062 C 185.878906 177.429688 185.980469 177.296875 186.304688 177.328125 C 186.453125 177.328125 186.65625 177.386719 186.9375 177.460938 C 186.996094 177.488281 187.054688 177.503906 187.113281 177.519531 C 187.703125 177.710938 188.570312 178.03125 189.921875 178.546875 C 191.847656 179.269531 193.257812 179.519531 195.316406 179.519531 C 198.695312 179.519531 200.328125 178.914062 208.894531 174.445312 C 209.160156 174.3125 209.367188 174.210938 209.617188 174.078125 C 209.953125 173.902344 210.292969 173.726562 210.628906 173.5625 C 214.90625 171.386719 216.9375 170.609375 218.613281 170.621094 Z M 154.027344 180.0625 C 156.792969 180.0625 159.582031 180.945312 162.007812 182.472656 C 163.683594 183.457031 165.09375 184.753906 166.226562 186.355469 C 166.859375 187.179688 167.386719 188.074219 167.828125 189.015625 C 168.386719 190.207031 168.636719 190.957031 168.753906 192.207031 C 169.167969 194.175781 169.183594 196.148438 168.828125 198.042969 C 168.753906 199.792969 168.492188 200.457031 167.578125 202.25 C 165.125 207.144531 160.714844 210.085938 154.878906 210.71875 C 153.925781 210.820312 152.367188 210.75 151.425781 210.558594 C 149.605469 210.203125 147.957031 209.617188 146.472656 208.808594 C 145.945312 208.574219 145.519531 208.351562 145.355469 208.21875 C 145.148438 208.074219 144.960938 207.894531 144.753906 207.71875 C 142.769531 206.265625 141.210938 204.351562 140.125 202 C 140.109375 201.96875 140.078125 201.941406 140.066406 201.910156 C 139.652344 201.042969 139.390625 200.410156 139.226562 199.707031 C 139.035156 199.058594 138.859375 198.398438 138.710938 197.707031 C 138.34375 195.914062 138.34375 194.867188 138.683594 193.191406 C 140.078125 186.238281 144.679688 181.664062 151.660156 180.28125 C 152.441406 180.136719 153.234375 180.0625 154.027344 180.0625 Z M 154.027344 180.0625 " fill-opacity="1" fill-rule="nonzero"/><path fill="#ee4e36" d="M 270.304688 176.371094 C 268.910156 176.355469 267.277344 176.636719 265.984375 177.195312 C 263.765625 178.179688 261.734375 180.386719 260.796875 182.898438 C 259.75 185.648438 259.839844 190.0625 260.914062 193.148438 C 261.132812 193.707031 261.351562 194.238281 261.617188 194.734375 C 262.71875 196.75 264.632812 198.734375 266.378906 199.632812 C 267.734375 200.339844 270.730469 200.425781 272.097656 199.792969 C 273.890625 198.984375 275.625 191.621094 275.226562 186.574219 C 274.890625 182.371094 273.714844 177.578125 272.863281 176.960938 C 272.332031 176.578125 271.390625 176.386719 270.304688 176.371094 Z M 154.117188 182.929688 C 153.46875 182.929688 152.835938 182.988281 152.207031 183.121094 C 146.589844 184.222656 142.871094 187.898438 141.753906 193.5 C 141.476562 194.855469 141.492188 195.691406 141.785156 197.132812 C 141.902344 197.691406 142.035156 198.234375 142.195312 198.75 C 142.328125 199.324219 142.535156 199.824219 142.871094 200.53125 C 142.886719 200.558594 142.902344 200.574219 142.917969 200.601562 C 143.796875 202.484375 145.046875 204.027344 146.648438 205.207031 C 146.8125 205.335938 146.972656 205.484375 147.121094 205.601562 C 147.265625 205.71875 147.605469 205.882812 148.03125 206.085938 C 149.222656 206.71875 150.542969 207.191406 152.015625 207.484375 C 152.777344 207.632812 154.027344 207.691406 154.792969 207.617188 C 159.480469 207.101562 163.039062 204.734375 165.023438 200.792969 C 165.742188 199.351562 165.960938 198.824219 166.035156 197.414062 C 166.300781 195.882812 166.300781 194.296875 165.960938 192.722656 C 165.875 191.707031 165.667969 191.105469 165.226562 190.148438 C 164.875 189.382812 164.433594 188.664062 163.933594 188.003906 C 163.023438 186.722656 161.875 185.664062 160.539062 184.886719 C 158.585938 183.648438 156.335938 182.929688 154.117188 182.929688 Z M 154.117188 182.929688 " fill-opacity="1" fill-rule="nonzero"/><path fill="#ffffff" d="M 244.378906 143.863281 C 242.1875 143.847656 240.101562 146.007812 240.085938 148.242188 C 240.085938 148.273438 240.085938 148.289062 240.085938 148.316406 C 240.101562 149.214844 240.539062 150.316406 241.171875 151.15625 C 241.1875 151.167969 241.203125 151.199219 241.230469 151.214844 C 241.335938 151.332031 241.4375 151.449219 241.570312 151.566406 C 241.820312 151.816406 242.054688 152.023438 242.289062 152.199219 C 243.539062 152.917969 245.757812 152.789062 247.023438 151.890625 C 248.582031 150.773438 249.167969 148.65625 248.390625 146.816406 C 247.757812 145.289062 245.816406 143.863281 244.378906 143.863281 Z M 171.488281 147.699219 C 171.371094 147.699219 171.253906 147.714844 171.152344 147.714844 C 167.976562 148.054688 166.273438 151.199219 167.695312 154.082031 C 168.078125 154.773438 168.625 155.390625 169.242188 155.859375 C 170.753906 156.859375 172.828125 156.773438 174.414062 155.449219 C 175.488281 154.550781 175.722656 154.050781 175.882812 152.390625 C 175.914062 152.109375 175.929688 151.890625 175.941406 151.683594 C 175.882812 151.007812 175.75 150.421875 175.515625 149.921875 C 175.339844 149.671875 175.074219 149.390625 174.722656 149.039062 C 174.179688 148.492188 173.78125 148.15625 173.355469 147.964844 C 172.8125 147.789062 172.195312 147.699219 171.488281 147.699219 Z M 171.488281 147.699219 " fill-opacity="1" fill-rule="nonzero"/><path fill="#ee7277" d="M 213.554688 189.855469 C 207.207031 189.914062 201.578125 193.648438 196.328125 199.25 C 199.472656 209.441406 204.074219 217.628906 208.910156 221.144531 C 209.261719 221.421875 209.585938 221.628906 209.953125 221.820312 C 210.335938 222.039062 210.703125 222.246094 211.085938 222.394531 C 215.261719 224.171875 218.964844 222.878906 222.800781 218.304688 C 226.09375 214.378906 229.398438 207.542969 232.074219 199.207031 C 225.195312 192.53125 219.097656 189.8125 213.554688 189.855469 Z M 213.554688 189.855469 " fill-opacity="1" fill-rule="nonzero"/></svg>