<svg xmlns="http://www.w3.org/2000/svg" xmlns:xlink="http://www.w3.org/1999/xlink" width="500" zoomAndPan="magnify" viewBox="0 0 375 374.999991" height="500" preserveAspectRatio="xMidYMid meet" version="1.0"><defs><clipPath id="ba3c3d83b9"><path d="M 130 119 L 285 119 L 285 374.824219 L 130 374.824219 Z M 130 119 " clip-rule="nonzero"/></clipPath><clipPath id="7392ea4ec6"><path d="M 18 79 L 364 79 L 364 374.824219 L 18 374.824219 Z M 18 79 " clip-rule="nonzero"/></clipPath><clipPath id="be5cbbae1b"><path d="M 259.089844 6 L 375 6 L 375 141 L 259.089844 141 Z M 259.089844 6 " clip-rule="nonzero"/></clipPath></defs><path fill="#000000" d="M 366.332031 305.703125 C 364.71875 305.800781 366.109375 306.925781 362.046875 309.890625 C 357.625 301.65625 344.910156 294.492188 341.046875 291.082031 C 337.734375 288.128906 335.5 282.046875 334.558594 279.054688 C 339.472656 276.933594 348.28125 272.664062 351.75 267.886719 C 358.144531 259.136719 366.179688 212.527344 325.074219 202.089844 C 307.996094 197.75 296.460938 206.066406 287.992188 216.125 C 281.808594 223.457031 276.765625 231.378906 274.773438 237.699219 C 273.058594 243.152344 273.902344 248.222656 275.671875 252.464844 C 271.289062 252.015625 267.847656 251.929688 265.839844 252.800781 C 261.148438 248.515625 255.933594 244.808594 250.402344 241.691406 C 252.746094 238.277344 254.796875 234.625 256.273438 230.734375 C 259.179688 223.273438 260.078125 214.945312 258.308594 207.105469 C 257.324219 202.792969 255.683594 198.59375 253.378906 194.816406 C 261.007812 188.730469 271.824219 180.375 272.695312 180.148438 C 274.027344 179.8125 279.15625 179.65625 280.488281 179.054688 C 281.824219 178.449219 282.089844 176.089844 282.089844 176.089844 C 282.089844 176.089844 276.835938 177.410156 276.796875 176.777344 C 276.738281 176.144531 279.519531 175.402344 280.882812 171.566406 C 282.246094 167.730469 283.019531 165.625 282.261719 165.285156 C 281.5 164.949219 279.097656 163.714844 278.453125 164.90625 C 277.792969 166.085938 277.566406 169.429688 276.445312 172.03125 C 275.320312 174.628906 273.269531 175.878906 273.269531 175.878906 C 273.269531 175.878906 270.332031 170.191406 269.644531 170.132812 C 268.957031 170.078125 267.132812 170.34375 267.019531 171.1875 C 266.921875 172.03125 268.886719 173.460938 269.855469 175.007812 C 270.824219 176.554688 270.9375 177.550781 270.726562 177.914062 C 270.601562 178.15625 259.644531 185.640625 251.511719 192.03125 C 251.019531 191.371094 250.5 190.726562 249.953125 190.09375 C 247.71875 187.550781 245.175781 185.332031 242.449219 183.378906 C 242.449219 183.378906 242.449219 183.378906 242.4375 183.367188 C 241.367188 182.59375 240.273438 181.863281 239.148438 181.175781 C 238.953125 181.046875 238.753906 180.921875 238.574219 180.796875 C 235.875 179.039062 232.953125 177.507812 229.878906 176.214844 C 229.90625 176.1875 229.933594 176.171875 229.960938 176.144531 C 236.058594 170.878906 239.867188 163.136719 240.425781 155.144531 C 240.582031 152.828125 240.46875 150.496094 240.0625 148.191406 C 239.5 144.777344 238.375 141.476562 236.789062 138.414062 C 236.914062 138.667969 237.042969 138.933594 237.152344 139.203125 C 231.394531 127.527344 218.246094 119.367188 202.949219 119.367188 C 196.078125 119.367188 189.660156 121.011719 184.125 123.875 C 184.140625 123.875 184.140625 123.863281 184.152344 123.863281 C 183.101562 124.394531 182.03125 125.011719 180.980469 125.703125 C 180.808594 125.8125 180.640625 125.925781 180.472656 126.023438 C 178.828125 127.105469 177.144531 128.273438 175.738281 129.566406 C 171.566406 133.34375 168.210938 138.121094 166.328125 143.023438 C 163.390625 145.550781 160.203125 148.136719 156.886719 150.296875 C 156.746094 148.386719 156.15625 146.855469 155.003906 146.183594 C 153.9375 145.566406 152.054688 146.367188 151.15625 146.773438 C 149.472656 147.515625 147.925781 148.457031 146.183594 149.386719 C 141.703125 146.828125 139.046875 142.402344 135.085938 138.640625 C 120.535156 124.773438 108.226562 118.972656 87.957031 128.582031 C 72.308594 136 55.199219 156.421875 58.585938 172.519531 C 61.589844 186.863281 67.238281 198.4375 74.949219 206.136719 C 66.492188 216.503906 56.675781 225.492188 56.675781 225.492188 C 50.28125 232.066406 27.75 250.203125 20.265625 251.199219 C 14.84375 251.917969 11.78125 246.410156 8.492188 242.476562 C 4.53125 253.910156 9.96875 259.628906 9.800781 260.710938 C 7.636719 270.738281 9.953125 279.292969 11.261719 285.53125 C 17.300781 314.511719 50.214844 325.636719 76.621094 321.96875 C 82.3125 321.183594 87.929688 319.625 93.199219 317.320312 C 94.828125 316.605469 96.414062 315.832031 97.960938 314.976562 C 101.570312 312.996094 104.941406 310.621094 108.015625 307.867188 C 123.230469 294.199219 128.0625 274.152344 134.582031 255.667969 C 136.941406 248.964844 139.003906 241.902344 140.734375 234.679688 C 142.136719 233.964844 144.019531 233.078125 144.160156 233.457031 C 144.371094 234.046875 141.871094 235.480469 141.546875 239.542969 C 141.226562 243.601562 141 245.835938 141.828125 245.960938 C 142.65625 246.085938 145.285156 246.664062 145.609375 245.355469 C 145.929688 244.050781 145.300781 240.761719 145.71875 237.96875 C 146.140625 235.160156 147.8125 233.429688 147.8125 233.429688 C 147.8125 233.429688 152.113281 238.179688 152.785156 238.050781 C 153.460938 237.925781 155.160156 237.195312 155.046875 236.351562 C 154.933594 235.507812 152.660156 234.625 151.3125 233.386719 C 149.976562 232.136719 149.613281 231.210938 149.722656 230.804688 C 149.78125 230.59375 152.671875 227.109375 155.328125 223.34375 C 155.328125 223.371094 155.34375 223.386719 155.34375 223.414062 C 156.128906 227.320312 157.546875 231.097656 159.457031 234.582031 C 160.414062 236.339844 161.496094 238.011719 162.703125 239.609375 C 163 240.003906 166.132812 244.0625 166.382812 243.910156 C 160.765625 247.394531 155.511719 251.496094 150.820312 256.160156 C 147.925781 258.96875 145.285156 261.972656 142.9375 265.175781 C 142.25 266.089844 141.578125 267.03125 140.917969 267.972656 C 135.914062 275.25 132.164062 283.46875 130.480469 292.164062 C 127.769531 306.628906 130.691406 321.929688 137.824219 334.726562 C 138.007812 335.046875 138.191406 335.386719 138.386719 335.707031 C 138.78125 336.398438 139.1875 337.070312 139.609375 337.730469 C 153.152344 359.800781 180.304688 373.652344 210.617188 373.652344 C 245.511719 373.652344 274.378906 354.941406 285.265625 327.28125 C 285.308594 327.363281 288.328125 335.089844 290.589844 338.378906 C 295.632812 345.738281 303.121094 350.65625 313.78125 352.339844 C 317.617188 352.945312 321.875 353.140625 326.566406 352.875 C 354.324219 351.316406 363.410156 337.480469 363.917969 322.054688 C 369.339844 316.6875 370.464844 305.4375 366.332031 305.703125 Z M 154.949219 210.394531 C 154.554688 210.855469 154.65625 213.59375 154.625 214.117188 C 154.570312 215.394531 154.753906 216.742188 154.640625 218.007812 C 154.554688 218.988281 153.8125 219.46875 153.460938 220.394531 C 152.96875 221.699219 148.445312 228.472656 147.238281 229.144531 C 146.339844 229.652344 143.402344 230.578125 141.476562 231.40625 C 142.519531 226.742188 143.402344 222.039062 144.148438 217.347656 C 147.574219 215.15625 151.214844 212.808594 154.992188 210.351562 C 154.976562 210.363281 154.964844 210.378906 154.949219 210.394531 Z M 154.949219 210.394531 " fill-opacity="1" fill-rule="nonzero"/><g clip-path="url(#ba3c3d83b9)"><path fill="#fae2cf" d="M 284.578125 325.0625 C 282.582031 318.710938 282.121094 313.273438 281.824219 305.269531 C 281.640625 300.265625 281.558594 295.703125 281.570312 291.570312 C 276.457031 288.945312 272.089844 286.09375 269.757812 283.257812 C 263.648438 275.8125 260.023438 267.957031 266.289062 263.617188 C 268.984375 261.75 272.554688 263.714844 275.375 263.84375 C 270.601562 257.832031 263.703125 252.070312 257.507812 247.660156 C 255.65625 246.339844 251.945312 244.34375 249.050781 242.730469 C 248.699219 242.53125 248.460938 242.335938 248.40625 242.082031 C 248.320312 241.730469 248.660156 241.453125 248.941406 241.085938 C 254.628906 233.894531 257.691406 224.453125 257.691406 215.183594 C 257.691406 202.328125 251.960938 192.453125 241.945312 184.488281 C 239.835938 182.917969 236.394531 180.808594 233.628906 179.265625 C 231.058594 177.832031 228.148438 177.058594 228.050781 176.792969 C 227.953125 176.523438 229.257812 175.402344 229.371094 175.289062 C 235.285156 169.921875 239.386719 163.054688 240.160156 155.117188 C 240.246094 154.230469 240.246094 153.109375 240.246094 152.195312 C 240.246094 133.90625 223.921875 119.015625 203.441406 119.015625 C 199.394531 119.015625 195.109375 119.691406 191.234375 120.871094 C 187.441406 122.019531 184.238281 123.398438 180.964844 125.644531 C 180.796875 125.757812 180.640625 125.871094 180.472656 125.996094 C 177.523438 128.144531 174.757812 131.179688 172.59375 134.058594 C 170.175781 137.289062 168.351562 140.972656 167.324219 144.890625 C 166.441406 148.316406 166.160156 151.898438 166.511719 155.410156 C 166.679688 157.054688 166.945312 158.699219 167.4375 160.285156 C 167.59375 160.765625 169.265625 164.683594 168.984375 164.90625 C 171.46875 162.996094 173.703125 160.75 176.019531 158.601562 C 176.863281 157.8125 177.71875 157.042969 178.605469 156.3125 C 179.839844 155.269531 182.453125 152.644531 184.324219 153.25 C 186.203125 153.851562 186.722656 161.703125 184.335938 171.59375 C 181.5 183.367188 174.574219 198.03125 161.019531 206.921875 C 159.246094 208.089844 158.167969 208.75 156.453125 209.875 C 156.1875 211.683594 156.269531 214.367188 156.269531 216.238281 C 156.269531 225.703125 160.539062 234.566406 166.679688 241.789062 C 167.535156 242.800781 169.011719 244.007812 168.914062 244.625 C 168.828125 245.1875 167.605469 245.734375 165.820312 246.886719 C 156.242188 253.082031 131.546875 271.679688 130.871094 303.878906 C 130.660156 315.367188 133.332031 326.15625 138.386719 335.695312 C 150.621094 358.730469 176.890625 374.492188 210.253906 374.789062 C 223.90625 374.914062 237.535156 371.667969 249.542969 365.136719 C 261.289062 358.761719 271.402344 349.375 278.367188 337.957031 C 279.746094 335.695312 281.011719 333.363281 282.132812 330.960938 C 282.679688 329.792969 283.1875 328.613281 283.652344 327.421875 C 283.820312 326.984375 284.71875 325.539062 284.578125 325.0625 Z M 225.398438 143.5 C 225.636719 141.476562 227.265625 140.015625 229.050781 140.210938 C 230.832031 140.421875 232.082031 142.222656 231.859375 144.246094 C 231.632812 146.265625 229.988281 147.726562 228.207031 147.53125 C 226.421875 147.335938 225.15625 145.523438 225.398438 143.5 Z M 221.605469 158.964844 C 221.703125 158.066406 222.488281 157.421875 223.359375 157.519531 C 224.214844 157.617188 224.835938 158.433594 224.738281 159.332031 C 224.636719 160.230469 223.851562 160.875 222.980469 160.777344 C 222.109375 160.679688 221.503906 159.863281 221.605469 158.964844 Z M 214.3125 162.617188 C 214.441406 161.507812 215.410156 160.707031 216.460938 160.835938 C 217.515625 160.960938 218.273438 161.957031 218.148438 163.054688 C 218.023438 164.164062 217.050781 164.964844 216 164.835938 C 214.945312 164.710938 214.1875 163.726562 214.3125 162.617188 Z M 202.824219 165.328125 C 202.992188 163.855469 204.269531 162.800781 205.675781 162.957031 C 207.078125 163.125 208.089844 164.445312 207.921875 165.90625 C 207.753906 167.378906 206.476562 168.433594 205.070312 168.277344 C 203.652344 168.125 202.652344 166.804688 202.824219 165.328125 Z M 191.175781 140.480469 C 191.417969 138.457031 193.046875 136.996094 194.828125 137.191406 C 196.613281 137.402344 197.863281 139.203125 197.640625 141.222656 C 197.402344 143.246094 195.769531 144.707031 193.988281 144.511719 C 192.1875 144.300781 190.9375 142.503906 191.175781 140.480469 Z M 196.207031 160.523438 C 196.078125 161.566406 195.179688 162.324219 194.183594 162.210938 C 193.1875 162.097656 192.46875 161.15625 192.597656 160.105469 C 192.722656 159.0625 193.621094 158.304688 194.617188 158.417969 C 195.617188 158.542969 196.332031 159.484375 196.207031 160.523438 Z M 190.179688 153.050781 C 190.265625 152.320312 190.910156 151.789062 191.613281 151.871094 C 192.316406 151.957031 192.820312 152.617188 192.738281 153.347656 C 192.652344 154.078125 192.007812 154.609375 191.304688 154.527344 C 190.585938 154.457031 190.097656 153.796875 190.179688 153.050781 Z M 223.304688 180.316406 C 218.738281 183.421875 213.230469 185.078125 207.738281 185.445312 C 201.628906 185.851562 195.378906 184.699219 189.914062 181.90625 C 189.421875 181.652344 188.84375 181.328125 188.367188 181.046875 C 188.03125 180.851562 187.707031 180.640625 187.371094 180.414062 C 198.804688 185.191406 211.953125 185.277344 223.304688 180.316406 Z M 212.613281 235.257812 C 215.832031 235.257812 218.441406 237.871094 218.441406 241.085938 C 218.441406 244.304688 215.832031 246.914062 212.613281 246.914062 C 209.398438 246.914062 206.785156 244.304688 206.785156 241.085938 C 206.785156 237.871094 209.398438 235.257812 212.613281 235.257812 Z M 206.136719 200.488281 C 206.136719 197.273438 208.75 194.660156 211.96875 194.660156 C 215.183594 194.660156 217.796875 197.273438 217.796875 200.488281 C 217.796875 203.707031 215.183594 206.320312 211.96875 206.320312 C 208.738281 206.320312 206.136719 203.707031 206.136719 200.488281 Z M 186.738281 255.582031 C 184.082031 254.5 181.511719 253.195312 179.097656 251.679688 C 181.710938 252.828125 184.378906 253.828125 187.074219 254.65625 C 206.136719 260.640625 226.859375 257.140625 243.839844 246.929688 C 228.5 260.316406 205.40625 263.253906 186.738281 255.582031 Z M 186.738281 255.582031 " fill-opacity="1" fill-rule="nonzero"/></g><path fill="#fdeee2" d="M 236.464844 189.925781 C 229.160156 185.683594 220.523438 192.089844 210.605469 192.089844 C 199.410156 192.089844 190.785156 186.808594 183.085938 192.089844 C 174.347656 198.085938 171.371094 207.484375 166.804688 215.96875 C 161.679688 225.523438 188.101562 252.070312 212.007812 252.070312 C 235.917969 252.070312 253.40625 234.105469 253.40625 215.96875 C 253.433594 205.378906 246.777344 195.9375 236.464844 189.925781 Z M 211.96875 194.660156 C 215.183594 194.660156 217.796875 197.273438 217.796875 200.488281 C 217.796875 203.707031 215.183594 206.320312 211.96875 206.320312 C 208.75 206.320312 206.136719 203.707031 206.136719 200.488281 C 206.136719 197.273438 208.738281 194.660156 211.96875 194.660156 Z M 212.613281 246.914062 C 209.398438 246.914062 206.785156 244.304688 206.785156 241.085938 C 206.785156 237.871094 209.398438 235.257812 212.613281 235.257812 C 215.832031 235.257812 218.441406 237.871094 218.441406 241.085938 C 218.441406 244.304688 215.84375 246.914062 212.613281 246.914062 Z M 206.039062 125.660156 C 188.875 125.660156 174.953125 137.515625 174.953125 152.125 C 174.953125 154.359375 175.289062 156.5625 175.921875 158.699219 C 175.949219 158.671875 175.992188 158.644531 176.019531 158.613281 C 179.828125 155.230469 182.722656 152.953125 184.222656 153.429688 C 186.105469 154.035156 186.625 161.761719 184.292969 171.566406 C 184.308594 171.582031 184.324219 171.59375 184.335938 171.609375 C 190.109375 176.792969 198.046875 180.148438 206.628906 180.148438 C 223.796875 180.148438 236.703125 167.058594 237.113281 152.125 C 237.519531 137.515625 223.207031 125.660156 206.039062 125.660156 Z M 191.304688 154.539062 C 190.601562 154.457031 190.097656 153.796875 190.179688 153.066406 C 190.265625 152.335938 190.910156 151.800781 191.613281 151.886719 C 192.316406 151.96875 192.820312 152.628906 192.738281 153.359375 C 192.636719 154.089844 192.007812 154.625 191.304688 154.539062 Z M 196.207031 160.523438 C 196.078125 161.566406 195.179688 162.324219 194.183594 162.210938 C 193.1875 162.097656 192.46875 161.15625 192.597656 160.105469 C 192.722656 159.0625 193.621094 158.304688 194.617188 158.417969 C 195.617188 158.542969 196.332031 159.484375 196.207031 160.523438 Z M 197.625 141.222656 C 197.386719 143.246094 195.757812 144.707031 193.972656 144.511719 C 192.1875 144.300781 190.9375 142.503906 191.164062 140.480469 C 191.402344 138.457031 193.03125 136.996094 194.816406 137.191406 C 196.601562 137.402344 197.863281 139.203125 197.625 141.222656 Z M 207.921875 165.917969 C 207.753906 167.394531 206.476562 168.449219 205.070312 168.292969 C 203.664062 168.125 202.652344 166.804688 202.824219 165.34375 C 202.992188 163.867188 204.269531 162.816406 205.675781 162.96875 C 207.09375 163.125 208.089844 164.445312 207.921875 165.917969 Z M 218.121094 163.066406 C 217.992188 164.148438 217.050781 164.9375 216 164.808594 C 214.960938 164.683594 214.214844 163.714844 214.339844 162.632812 C 214.46875 161.550781 215.410156 160.765625 216.460938 160.890625 C 217.503906 161.003906 218.246094 161.984375 218.121094 163.066406 Z M 224.722656 159.316406 C 224.625 160.214844 223.835938 160.863281 222.964844 160.765625 C 222.109375 160.664062 221.492188 159.851562 221.589844 158.953125 C 221.6875 158.050781 222.476562 157.40625 223.347656 157.503906 C 224.214844 157.601562 224.835938 158.417969 224.722656 159.316406 Z M 231.84375 144.257812 C 231.605469 146.28125 229.976562 147.742188 228.191406 147.546875 C 226.40625 147.335938 225.15625 145.535156 225.382812 143.515625 C 225.621094 141.492188 227.25 140.03125 229.035156 140.226562 C 230.832031 140.421875 232.082031 142.234375 231.84375 144.257812 Z M 229.414062 144.835938 C 228.867188 144.777344 228.5 144.175781 228.570312 143.515625 C 228.640625 142.855469 229.148438 142.363281 229.695312 142.417969 C 230.242188 142.472656 230.609375 143.078125 230.539062 143.738281 C 230.453125 144.398438 229.949219 144.890625 229.414062 144.835938 Z M 195.195312 141.742188 C 194.675781 141.6875 194.308594 141.125 194.394531 140.480469 C 194.464844 139.847656 194.941406 139.371094 195.460938 139.441406 C 195.980469 139.511719 196.347656 140.058594 196.261719 140.703125 C 196.191406 141.335938 195.714844 141.8125 195.195312 141.742188 Z M 128.667969 162.027344 C 129.171875 162.730469 129.160156 163.6875 128.652344 164.164062 C 128.148438 164.625 127.320312 164.445312 126.828125 163.726562 C 126.320312 163.027344 126.335938 162.070312 126.839844 161.59375 C 127.359375 161.128906 128.175781 161.324219 128.667969 162.027344 Z M 154.175781 163.910156 C 153.894531 163.222656 153.683594 161.566406 153.023438 161.496094 C 150.1875 161.214844 144.34375 166.679688 142.671875 164.332031 C 141.871094 163.195312 147.378906 152.109375 146.394531 150.972656 C 146.140625 150.691406 146.660156 149.933594 146.394531 149.652344 C 146.351562 149.609375 146.308594 149.566406 146.269531 149.527344 C 142.109375 148.808594 133.527344 138.191406 131.574219 138.386719 C 129.1875 138.625 136.070312 147.8125 135.523438 148.640625 C 134.257812 150.507812 125.183594 141.195312 117.511719 143.640625 C 107.21875 146.941406 99.097656 159.992188 99.082031 172.296875 C 99.082031 180.65625 102.707031 189.335938 107.625 196.289062 C 111.050781 195.683594 141.789062 180.964844 149.441406 177.859375 C 151.394531 177.074219 153.335938 176.0625 155.257812 174.894531 C 155.863281 171.171875 155.582031 167.449219 154.175781 163.910156 Z M 129.820312 166.746094 C 128.21875 167.96875 126.617188 167.449219 125.269531 165.597656 C 124.046875 163.910156 124.03125 161.636719 125.128906 160.734375 C 126.308594 159.792969 128.289062 160.484375 129.636719 162.054688 C 131.152344 163.8125 131.363281 165.566406 129.820312 166.746094 Z M 141.925781 149.398438 C 141.308594 149.976562 140.367188 149.609375 139.285156 148.5 C 138.304688 147.503906 137.839844 146.238281 138.246094 145.804688 C 138.683594 145.355469 139.875 145.84375 140.917969 146.785156 C 142.054688 147.839844 142.519531 148.835938 141.925781 149.398438 Z M 139.273438 146.351562 C 139.089844 146.546875 139.246094 147.011719 139.625 147.375 C 140.003906 147.742188 140.464844 147.882812 140.648438 147.6875 C 140.832031 147.488281 140.675781 147.027344 140.296875 146.660156 C 139.90625 146.28125 139.457031 146.140625 139.273438 146.351562 Z M 341.105469 247.773438 C 341.132812 246.199219 341.089844 244.625 341.019531 243.054688 C 340.835938 239.007812 340.375 234.878906 338.535156 231.28125 C 336.3125 226.941406 331.917969 223.582031 327 225.113281 C 321.875 226.714844 317.351562 230.691406 313.839844 234.636719 C 310.496094 238.402344 307.785156 244.527344 307.953125 247.773438 C 307.980469 248.40625 306.746094 244.261719 304.257812 242.855469 C 302.191406 241.691406 298.78125 243.261719 298.949219 243.125 C 301.898438 240.890625 303.554688 236.5625 305.410156 229.988281 C 307.304688 223.273438 308.585938 216.363281 304.652344 215.351562 C 297.347656 213.484375 289.523438 222.289062 285.882812 227.574219 C 281.769531 233.558594 277.386719 243.472656 279.648438 250.792969 C 281.488281 256.734375 283.679688 262.382812 287.273438 267.507812 C 295.464844 270.109375 303.753906 272.636719 312.277344 273.871094 C 320.214844 275.023438 328.179688 275.011719 334.066406 268.746094 C 337.199219 265.417969 339.136719 261.105469 340.136719 256.652344 C 340.796875 253.757812 341.0625 250.777344 341.105469 247.773438 Z M 301.113281 248.714844 C 299.046875 248.066406 296.800781 243.304688 297.136719 243.136719 C 297.488281 242.953125 297.753906 244.023438 298.90625 244.554688 C 299.59375 244.878906 301.238281 244.332031 302.53125 244.640625 C 303.835938 244.949219 304.765625 247.335938 306.070312 247.644531 C 307.335938 247.957031 309.105469 247.996094 309.160156 248.082031 C 309.457031 248.546875 304.484375 249.78125 301.113281 248.714844 Z M 294.507812 235.328125 C 293.582031 237.152344 291.796875 238.039062 290.519531 237.292969 C 289.242188 236.550781 288.960938 234.46875 289.886719 232.644531 C 290.816406 230.816406 292.597656 229.933594 293.878906 230.675781 C 295.140625 231.421875 295.4375 233.5 294.507812 235.328125 Z M 329.289062 249.386719 C 328.136719 251.59375 325.835938 252.660156 324.121094 251.761719 C 322.40625 250.878906 321.957031 248.363281 323.109375 246.15625 C 324.261719 243.953125 326.578125 242.882812 328.277344 243.785156 C 329.992188 244.683594 330.441406 247.183594 329.289062 249.386719 Z M 320.371094 335.566406 C 320.019531 337.183594 317.925781 338.054688 316.410156 338.699219 C 312.292969 340.441406 307.433594 340.34375 303.304688 338.699219 C 297.558594 336.425781 293.132812 331.523438 290.308594 326.03125 C 285.097656 315.832031 284.773438 304.453125 284.351562 293.273438 C 294.046875 297.992188 309.078125 301.699219 311.984375 302.597656 C 312.769531 305.984375 312.867188 310.296875 314.019531 315.074219 C 316.550781 325.59375 320.371094 333.980469 320.414062 334.992188 C 320.425781 335.1875 320.414062 335.386719 320.371094 335.566406 Z M 269.644531 302.316406 C 280.589844 333.375 242.898438 355.304688 209.902344 355.304688 C 176.90625 355.304688 144.765625 331.085938 150.160156 302.316406 C 153.363281 285.25 155.804688 274.6875 169.8125 264.996094 C 179.941406 257.984375 195.953125 266.316406 209.804688 266.316406 C 223.304688 266.316406 241.285156 260.050781 251.300781 266.75 C 265.742188 276.441406 263.914062 286.023438 269.644531 302.316406 Z M 140.214844 219.859375 C 138.148438 231.507812 135.144531 243.082031 131.390625 253.730469 C 124.875 272.214844 120.042969 292.273438 104.828125 305.929688 C 101.765625 308.683594 98.746094 311.363281 94.8125 312.585938 C 92.285156 313.375 81.453125 312.402344 84.460938 296.136719 C 86.960938 282.597656 114.382812 245.46875 128.035156 227.601562 C 131.546875 225.382812 135.648438 222.78125 140.214844 219.859375 Z M 292.710938 233.164062 C 292.457031 233.683594 291.882812 233.921875 291.445312 233.710938 C 290.996094 233.488281 290.855469 232.898438 291.109375 232.375 C 291.363281 231.855469 291.9375 231.617188 292.375 231.828125 C 292.808594 232.054688 292.964844 232.644531 292.710938 233.164062 Z M 326.101562 247.195312 C 325.75 247.914062 324.992188 248.265625 324.429688 247.984375 C 323.855469 247.703125 323.683594 246.886719 324.050781 246.171875 C 324.402344 245.453125 325.160156 245.105469 325.722656 245.382812 C 326.285156 245.664062 326.453125 246.480469 326.101562 247.195312 Z M 326.101562 247.195312 " fill-opacity="1" fill-rule="nonzero"/><path fill="#f4911e" d="M 215.632812 143.375 C 215.15625 144.0625 214.929688 144.917969 214.890625 145.746094 C 214.890625 145.84375 214.875 146.070312 214.875 146.167969 C 214.875 146.265625 214.890625 146.492188 214.902344 146.589844 C 214.917969 146.773438 214.945312 146.96875 214.972656 147.152344 C 214.820312 146.605469 214.707031 146.027344 214.707031 145.453125 C 214.691406 144.707031 214.832031 143.949219 215.15625 143.273438 C 213.539062 142.921875 212.136719 142.699219 211.476562 142.65625 C 209.816406 142.558594 207.316406 144.175781 207.035156 146.617188 C 206.757812 149.0625 208.132812 151.859375 210.898438 152.011719 C 211.195312 152.027344 211.574219 152.011719 212.007812 151.96875 C 211.378906 150.761719 211.207031 149.316406 211.308594 147.980469 C 211.320312 147.769531 211.347656 147.558594 211.378906 147.363281 C 211.390625 147.574219 211.390625 147.785156 211.40625 147.980469 C 211.460938 148.585938 211.574219 149.203125 211.757812 149.792969 C 211.996094 150.523438 212.320312 151.226562 212.808594 151.816406 C 212.824219 151.828125 212.839844 151.859375 212.851562 151.859375 L 212.824219 151.886719 C 216.644531 151.351562 223.261719 149.300781 223.375 147.265625 C 223.472656 145.636719 219.171875 144.203125 215.632812 143.375 Z M 218.105469 146.027344 C 218.105469 146.238281 218.078125 146.449219 218.078125 146.660156 C 218.050781 147.375 218.148438 148.078125 218.441406 148.753906 C 217.601562 148.136719 217.53125 146.828125 218.105469 146.027344 Z M 155.019531 146.167969 C 153.953125 145.550781 152.070312 146.351562 151.171875 146.757812 C 147.941406 148.191406 145.269531 150.285156 140.605469 151.800781 C 140.605469 151.800781 139.917969 161.84375 140.214844 162.703125 C 141.546875 166.691406 148.109375 166.3125 149.992188 166.917969 C 153.066406 164.78125 155.117188 159.992188 156.144531 156.410156 C 157.378906 152.097656 157.296875 147.503906 155.019531 146.167969 Z M 150.960938 159.386719 C 150.679688 159.738281 150.328125 160.074219 149.992188 160.371094 C 148.683594 161.535156 147.25 162.574219 145.707031 163.40625 C 144.933594 163.8125 144.132812 164.191406 143.277344 164.402344 C 144.722656 163.476562 146.03125 162.378906 147.292969 161.226562 C 148.050781 160.523438 148.851562 159.78125 149.570312 159.035156 C 150.523438 157.953125 151.199219 156.660156 151.859375 155.382812 C 153.023438 153.09375 154.007812 150.75 155.132812 148.402344 C 154.710938 151.898438 153.207031 156.621094 150.960938 159.386719 Z M 307.644531 243.613281 C 306.464844 242.113281 305.773438 240.582031 304.988281 240.242188 C 304.089844 239.851562 302.867188 240.679688 300.832031 241.242188 C 298.863281 241.773438 296.699219 242.082031 296.40625 242.503906 C 296.109375 242.925781 297.601562 250.300781 300.941406 251.382812 C 303.441406 252.199219 308.695312 250.078125 310.382812 248.347656 C 311.378906 247.324219 308.851562 245.160156 307.644531 243.613281 Z M 301.113281 248.714844 C 299.046875 248.066406 296.800781 243.304688 297.136719 243.136719 C 297.488281 242.953125 297.753906 244.023438 298.90625 244.554688 C 299.59375 244.878906 301.238281 244.332031 302.53125 244.640625 C 303.835938 244.949219 304.765625 247.335938 306.070312 247.644531 C 307.335938 247.957031 309.105469 247.996094 309.160156 248.082031 C 309.457031 248.546875 304.484375 249.78125 301.113281 248.714844 Z M 301.113281 248.714844 " fill-opacity="1" fill-rule="nonzero"/><g clip-path="url(#7392ea4ec6)"><path fill="#f94f61" d="M 83.140625 354.785156 C 82.632812 355.585938 78.488281 356.089844 73.125 356.300781 C 72.871094 356.316406 72.617188 356.316406 72.367188 356.332031 C 73.6875 352.285156 73.390625 344.964844 66.984375 342.550781 C 59.554688 339.742188 55.214844 340.695312 55.214844 340.695312 C 55.214844 340.695312 61.296875 329.894531 63.402344 325.511719 C 60.648438 329.792969 53.023438 342.171875 53.023438 342.171875 C 53.023438 342.171875 57.363281 341.214844 64.792969 344.023438 C 72.226562 346.835938 71.789062 355.738281 69.710938 359.070312 C 68.265625 361.386719 36.65625 361.148438 32.695312 359.070312 C 25.898438 355.488281 18.648438 333.785156 18.648438 331.71875 C 18.648438 329.65625 31.542969 304.539062 38.636719 304.371094 C 45.746094 304.199219 64.75 316.757812 65.242188 318.246094 C 65.453125 318.867188 65.003906 320.578125 64.246094 322.617188 C 68.265625 322.742188 72.253906 322.558594 76.117188 322.039062 C 75.300781 323.8125 74.417969 325.496094 73.628906 326.734375 C 70.847656 331.085938 66.507812 337.773438 66.4375 337.871094 C 66.523438 337.859375 70.847656 336.957031 78.210938 339.726562 C 85.652344 342.5625 85.21875 351.46875 83.140625 354.785156 Z M 352.160156 336.75 C 347.171875 336.636719 329.148438 347.914062 328.796875 348.957031 C 328.503906 349.828125 329.429688 350.765625 330.695312 352.539062 C 329.359375 352.679688 327.984375 352.789062 326.566406 352.875 C 321.875 353.140625 317.617188 352.945312 313.78125 352.339844 C 311.898438 352.046875 310.128906 351.652344 308.445312 351.148438 C 309.792969 353.238281 310.945312 355.007812 310.945312 355.007812 C 310.945312 355.007812 307.894531 354.335938 302.671875 356.316406 C 297.445312 358.28125 297.753906 364.546875 299.214844 366.878906 C 300.070312 368.257812 316.199219 368.355469 322.757812 367.457031 C 322.996094 365.125 324.191406 362.722656 327.085938 361.625 C 332.140625 359.714844 334.402344 360.234375 334.542969 360.261719 C 334.472656 360.121094 332.746094 356.652344 331.71875 353.984375 C 333.632812 356.976562 336.523438 361.5 336.523438 361.5 C 336.523438 361.5 333.476562 360.824219 328.25 362.804688 C 323.023438 364.773438 323.335938 371.039062 324.796875 373.371094 C 325.804688 375 348 374.832031 350.796875 373.371094 C 355.574219 370.855469 363.917969 362.242188 363.917969 360.796875 C 363.929688 359.351562 357.144531 336.859375 352.160156 336.75 Z M 233.613281 116.191406 L 246.214844 93.421875 C 246.214844 93.421875 241.480469 84.21875 231.171875 81.4375 C 220.578125 78.574219 209.539062 80.316406 209.539062 80.316406 C 209.539062 80.316406 205 99.476562 203.566406 106.246094 C 205.226562 106.402344 207.332031 106.683594 210 107.132812 C 217.9375 108.480469 223.964844 111.375 227.320312 113.3125 C 225.382812 112.527344 223.332031 111.796875 221.210938 111.121094 C 221.210938 111.121094 221.210938 111.121094 221.195312 111.121094 C 220.773438 110.996094 220.355469 110.855469 219.917969 110.726562 C 219.917969 110.726562 219.902344 110.726562 219.902344 110.726562 C 219.257812 110.53125 218.613281 110.347656 217.953125 110.179688 C 217.726562 110.125 217.515625 110.066406 217.292969 109.996094 C 196.949219 104.6875 177.929688 107.917969 176.398438 113.804688 C 175.667969 116.628906 178.773438 120.167969 184.460938 123.691406 C 189.914062 120.925781 196.234375 119.351562 202.964844 119.351562 C 217.628906 119.351562 230.328125 126.855469 236.421875 137.78125 C 244.078125 137.710938 249.277344 136.109375 250.078125 133.046875 C 251.144531 128.917969 244.613281 121.867188 233.613281 116.191406 Z M 233.613281 116.191406 " fill-opacity="1" fill-rule="nonzero"/></g><path fill="#000000" d="M 278.894531 114.015625 C 279.011719 113.167969 281.804688 112.808594 285.535156 113.167969 C 285.535156 113.167969 287.773438 96.421875 288.464844 91.300781 C 288.257812 91.03125 288.003906 90.621094 287.761719 90.152344 C 287.761719 90.148438 287.757812 90.140625 287.757812 90.136719 C 287.746094 90.121094 287.742188 90.105469 287.730469 90.085938 C 287.613281 89.859375 287.503906 89.625 287.398438 89.375 C 287.167969 88.828125 286.835938 87.558594 286.78125 86.734375 C 286.640625 84.628906 287.054688 82.066406 289.191406 81.097656 C 289.394531 81.003906 289.605469 80.910156 289.820312 80.839844 C 289.820312 80.839844 289.820312 80.839844 289.824219 80.839844 L 291.667969 66.605469 C 291.667969 66.605469 292.105469 66 293.074219 66.167969 C 293.207031 66.191406 293.328125 66.222656 293.445312 66.261719 C 292.695312 62.355469 293.285156 55.476562 295.851562 47.867188 C 295.695312 47.78125 297.789062 33.003906 298.605469 32.820312 C 299.960938 32.546875 301.660156 32.285156 303.785156 32.125 C 306.53125 31.894531 308.976562 31.84375 311.179688 31.894531 C 313.285156 31.277344 315.609375 30.863281 318.15625 30.679688 C 322.847656 30.351562 326.722656 31.226562 329.964844 32.886719 C 331.425781 32.804688 332.96875 32.75 334.457031 32.792969 C 334.527344 32.792969 334.582031 32.800781 334.648438 32.800781 C 335.746094 32.832031 336.808594 32.925781 337.785156 33.09375 C 339.230469 33.320312 340.488281 33.722656 341.386719 34.378906 C 341.625 34.546875 341.84375 34.742188 342.019531 34.960938 C 342.140625 35.105469 342.257812 35.292969 342.367188 35.460938 C 342.375 35.492188 342.402344 35.519531 342.40625 35.554688 C 342.40625 35.554688 342.414062 35.570312 342.429688 35.582031 C 343.355469 37.289062 343.792969 39.292969 343.621094 40.988281 C 343.558594 41.671875 343.394531 42.304688 343.140625 42.847656 C 342.804688 43.5625 342.269531 44.117188 341.539062 44.378906 L 341.507812 44.386719 C 341.503906 44.386719 341.265625 44.347656 341.082031 44.414062 C 344.28125 49.976562 347.503906 55.863281 347.261719 60.289062 C 347.054688 64.203125 344.28125 67.152344 341.613281 69.105469 C 341.53125 72.050781 341.546875 78.472656 343.113281 81.671875 C 345.1875 85.90625 353.160156 98.152344 350.375 109.207031 C 348.855469 115.226562 343.042969 119.761719 338.816406 121.179688 L 341.109375 128.808594 L 341.128906 128.859375 C 341.144531 128.851562 341.160156 128.847656 341.171875 128.839844 C 344.746094 127.65625 347.523438 127.507812 347.820312 128.464844 C 348.105469 129.433594 345.945312 131.683594 342.453125 133.277344 L 343.109375 135.453125 C 343.109375 135.453125 342.894531 136.4375 341.976562 136.832031 C 341.082031 137.21875 340.308594 136.515625 340.308594 136.515625 L 339.644531 134.304688 C 336.140625 135.296875 333.078125 135.113281 332.800781 134.1875 C 332.515625 133.238281 334.847656 131.460938 338.335938 129.960938 L 335.832031 121.636719 C 331.0625 121.414062 321.445312 117.800781 315.40625 118.0625 C 311.902344 118.210938 308.324219 120.246094 304.734375 119.65625 C 302.96875 119.363281 299.691406 115.148438 298.339844 111.738281 C 294.445312 101.917969 295.84375 94.640625 295.882812 94.214844 C 294.136719 93.761719 292.53125 93.238281 291.222656 92.59375 L 288.464844 113.515625 C 288.464844 113.515625 288.550781 113.53125 288.59375 113.535156 C 292.238281 114.175781 294.765625 115.253906 294.660156 116.105469 C 294.539062 116.984375 291.703125 118.371094 287.855469 118.132812 L 287.683594 119.421875 C 287.683594 119.421875 287.105469 120.085938 286.128906 119.992188 C 285.175781 119.902344 284.75 119.03125 284.75 119.03125 C 284.75 119.03125 284.816406 118.53125 284.933594 117.65625 C 281.457031 116.753906 278.785156 114.828125 278.894531 114.015625 Z M 301.28125 77.785156 C 301.394531 77.183594 302.003906 74.914062 301.949219 74.363281 C 298.617188 73.855469 295.800781 71.542969 294.355469 68.867188 L 292.722656 81.265625 C 295.085938 80.140625 298.867188 78.683594 301.28125 77.785156 Z M 301.28125 77.785156 " fill-opacity="1" fill-rule="nonzero"/><g clip-path="url(#be5cbbae1b)"><path fill="#f94f61" d="M 259.117188 124.183594 C 259.175781 125.238281 259.601562 126.292969 260.1875 127.148438 C 261.035156 128.394531 262.28125 129.332031 263.644531 129.972656 C 265.003906 130.605469 266.769531 131.214844 268.269531 131.097656 C 269.648438 130.988281 271.035156 130.90625 272.414062 130.765625 L 272.417969 130.773438 L 272.425781 130.765625 C 285.113281 129.453125 318.496094 123.816406 326.328125 122.109375 C 328.15625 121.714844 329.820312 121.316406 331.339844 120.933594 C 326.355469 119.832031 319.894531 117.890625 315.40625 118.078125 C 311.902344 118.226562 308.320312 120.261719 304.734375 119.671875 C 304.066406 119.5625 303.382812 119.101562 302.714844 118.398438 C 297.046875 119.511719 291.796875 120.464844 287.808594 121.035156 C 277.765625 122.46875 270.621094 123.207031 265.523438 123.660156 C 265.5 123.660156 265.152344 123.6875 265.152344 123.683594 C 264.914062 122.910156 264.820312 122.238281 264.671875 121.683594 C 264.59375 121.394531 264.496094 121.132812 264.351562 120.914062 C 264.347656 120.902344 264.339844 120.890625 264.328125 120.886719 C 263.792969 120.089844 263.195312 119.714844 262.449219 119.738281 C 260.898438 119.769531 259.878906 121.25 259.359375 122.546875 C 259.160156 123.058594 259.089844 123.621094 259.117188 124.183594 Z M 368.785156 111.09375 C 368.785156 111.09375 374.445312 113.664062 374.695312 113.964844 C 374.773438 114.058594 374.855469 114.226562 374.910156 114.429688 C 374.945312 114.539062 374.964844 114.667969 374.972656 114.800781 C 375 115.1875 374.90625 115.628906 374.5625 115.96875 C 374.214844 116.3125 358.03125 121.996094 340.800781 127.777344 L 338.820312 121.183594 C 339.878906 120.824219 341.039062 120.273438 342.207031 119.550781 C 355.980469 115.273438 368.785156 111.09375 368.785156 111.09375 Z M 289.175781 130.949219 C 289.589844 130.519531 289.835938 130.371094 290.230469 130.28125 C 291.546875 129.984375 292.351562 131.292969 293.152344 132.851562 C 293.152344 132.851562 293.160156 132.851562 293.160156 132.851562 C 293.273438 132.832031 293.390625 132.804688 293.511719 132.78125 C 298.554688 131.722656 306.699219 129.734375 316.28125 127.214844 C 321.28125 125.902344 328.261719 123.835938 335.5 121.628906 C 335.613281 121.640625 335.730469 121.648438 335.839844 121.652344 L 337.972656 128.738281 C 322.851562 133.785156 307.542969 138.683594 301.898438 139.9375 L 301.894531 139.941406 C 301.894531 139.941406 301.886719 139.941406 301.882812 139.941406 C 299.816406 140.402344 297.789062 140.910156 295.652344 140.726562 C 293.882812 140.578125 292.132812 140.007812 290.699219 138.964844 C 290.011719 138.46875 289.40625 137.867188 288.914062 137.183594 C 288.46875 136.558594 287.957031 135.734375 287.816406 134.953125 C 287.8125 134.925781 287.8125 134.90625 287.808594 134.878906 C 287.625 133.558594 288.269531 131.886719 289.175781 130.949219 Z M 338.871094 36.257812 L 332.75 36.386719 L 321.914062 36.613281 L 316.183594 36.734375 L 299.132812 37.09375 C 299.132812 37.09375 299.152344 36.882812 299.167969 36.53125 C 299.179688 36.445312 299.183594 36.351562 299.195312 36.242188 C 299.214844 35.933594 299.253906 35.570312 299.292969 35.148438 C 299.300781 35.046875 299.308594 34.933594 299.328125 34.824219 C 299.359375 34.453125 299.410156 34.074219 299.460938 33.695312 C 299.480469 33.496094 299.503906 33.285156 299.53125 33.097656 L 299.570312 32.84375 C 299.675781 32.152344 299.789062 31.546875 299.921875 31.167969 C 301.042969 27.84375 302.449219 24.808594 304.078125 22.085938 C 309.109375 13.644531 316.175781 8.203125 322.886719 6.800781 C 323.097656 6.757812 323.300781 6.714844 323.488281 6.679688 C 323.921875 6.609375 324.328125 6.554688 324.691406 6.53125 C 324.929688 6.515625 325.144531 6.507812 325.351562 6.507812 C 326.75 6.519531 327.566406 6.945312 328.027344 7.664062 C 328.066406 7.730469 328.105469 7.792969 328.148438 7.867188 C 328.371094 8.28125 328.488281 8.777344 328.542969 9.339844 C 328.921875 13.042969 326.535156 19.578125 331.203125 23.796875 C 333.777344 26.128906 335.511719 28.492188 336.652344 30.527344 C 337.496094 32.015625 338.03125 33.328125 338.355469 34.316406 C 338.765625 35.519531 338.871094 36.257812 338.871094 36.257812 Z M 338.871094 36.257812 " fill-opacity="1" fill-rule="nonzero"/></g><path fill="#fdeee2" d="M 299.800781 55.582031 C 299.675781 51.4375 300.503906 49.367188 302.035156 46.660156 C 302.113281 46.632812 302.164062 46.609375 302.175781 46.609375 C 302.21875 46.597656 306.210938 45.242188 308.9375 44.628906 C 311.78125 43.988281 314.777344 43.675781 315.261719 43.570312 C 317.070312 44.5625 318.335938 46.050781 319.003906 47.582031 C 320.558594 51.117188 319.863281 54.042969 319.199219 56.535156 C 319.132812 56.789062 319.070312 57.039062 319.003906 57.28125 C 318.246094 60.171875 328.347656 56.183594 328.347656 56.183594 C 328.347656 56.183594 328.035156 55.773438 327.609375 55.046875 C 326.523438 53.179688 324.71875 49.226562 325.722656 44.804688 C 325.886719 44.082031 326.140625 43.453125 326.46875 42.917969 C 327.582031 42.902344 330.382812 42.953125 332.800781 43.304688 C 334.753906 43.585938 336.789062 43.984375 337.84375 44.34375 C 339.644531 46.597656 340.695312 49.28125 341.054688 50.582031 C 341.546875 52.355469 343.945312 53.429688 344.167969 58.101562 C 344.386719 62.699219 340.847656 67.234375 336.800781 69.09375 C 335.972656 69.472656 334.605469 69.933594 334.113281 70.757812 C 333.710938 71.4375 333.734375 72.597656 333.722656 73.359375 C 333.699219 75.351562 334.140625 77.390625 333.832031 79.378906 C 328.867188 79.808594 319.894531 81.535156 320.851562 87.238281 C 321.269531 89.730469 328.0625 91.714844 335.621094 92.785156 C 337.011719 96.183594 338.324219 100.21875 336.585938 105.734375 C 335.332031 109.707031 327.097656 113.757812 317.445312 113.261719 C 307.796875 112.765625 299.375 105.644531 301.6875 92.113281 C 303.265625 82.890625 306.621094 72.476562 306.449219 71.875 C 303.5 70.496094 299.742188 69.921875 298.273438 65.082031 C 296.832031 60.335938 299.863281 57.734375 299.800781 55.582031 Z M 332.808594 52.832031 C 332.878906 53.960938 333.644531 54.824219 334.515625 54.769531 C 335.390625 54.714844 336.039062 53.753906 335.960938 52.628906 C 335.890625 51.503906 335.125 50.636719 334.253906 50.691406 C 333.386719 50.753906 332.734375 51.707031 332.808594 52.832031 Z M 324.292969 58.9375 C 321.105469 59.261719 319.367188 58.996094 319.367188 58.996094 C 319.367188 58.996094 322.644531 61.886719 324.824219 61.589844 C 326.621094 61.347656 328.34375 57.84375 328.34375 57.84375 C 328.34375 57.84375 325.6875 58.792969 324.292969 58.9375 Z M 308.671875 56.652344 C 309.011719 57.726562 309.960938 58.390625 310.792969 58.128906 C 311.625 57.871094 312.027344 56.785156 311.695312 55.707031 C 311.359375 54.632812 310.410156 53.96875 309.578125 54.230469 C 308.738281 54.488281 308.335938 55.574219 308.671875 56.652344 Z M 292.191406 85.238281 L 291.371094 91.449219 C 293.191406 92.132812 294.71875 92.292969 296.378906 92.515625 C 296.378906 92.515625 296.855469 90.445312 297.628906 88.199219 C 298.597656 85.382812 300.082031 82.28125 300.082031 82.28125 C 300.082031 82.28125 295.722656 83.570312 292.191406 85.238281 Z M 341.191406 126.042969 C 340.917969 126.136719 340.636719 126.226562 340.359375 126.320312 L 340.464844 126.671875 C 341.523438 126.324219 342.582031 125.976562 343.644531 125.628906 C 347.0625 124.503906 350.484375 123.367188 353.898438 122.222656 C 356.972656 121.1875 360.039062 120.152344 363.101562 119.09375 C 365.582031 118.238281 368.058594 117.375 370.523438 116.484375 C 372.015625 115.941406 373.503906 115.402344 374.976562 114.8125 C 374.964844 114.679688 374.945312 114.558594 374.914062 114.441406 C 374.746094 114.507812 374.574219 114.578125 374.402344 114.644531 C 372.566406 115.367188 370.710938 116.035156 368.851562 116.699219 C 366.246094 117.625 363.632812 118.53125 361.011719 119.429688 C 357.863281 120.511719 354.699219 121.574219 351.542969 122.628906 C 348.089844 123.769531 344.640625 124.914062 341.191406 126.042969 Z M 293.160156 132.847656 C 293.261719 133.140625 293.355469 133.433594 293.449219 133.707031 C 294.019531 135.351562 294.554688 137.132812 296.160156 138.050781 C 297.148438 138.613281 298.355469 138.90625 299.480469 138.960938 C 300.457031 139.011719 301.421875 138.8125 302.367188 138.578125 C 303.867188 138.203125 305.351562 137.761719 306.832031 137.328125 C 309.203125 136.625 311.566406 135.898438 313.925781 135.171875 C 316.925781 134.238281 319.921875 133.292969 322.914062 132.34375 C 326.300781 131.269531 329.683594 130.183594 333.0625 129.085938 C 334.578125 128.59375 336.09375 128.097656 337.613281 127.605469 L 337.507812 127.253906 C 335.234375 127.992188 332.960938 128.730469 330.683594 129.464844 C 327.378906 130.53125 324.074219 131.589844 320.769531 132.636719 C 317.910156 133.542969 315.050781 134.441406 312.1875 135.320312 C 309.992188 135.992188 307.796875 136.664062 305.59375 137.304688 C 304.828125 137.53125 304.054688 137.746094 303.289062 137.960938 C 302.210938 138.253906 301.113281 138.570312 299.996094 138.601562 C 298.78125 138.640625 297.441406 138.355469 296.375 137.761719 C 295.601562 137.332031 295.054688 136.683594 294.664062 135.898438 C 294.207031 134.976562 293.921875 133.976562 293.578125 133.011719 C 293.550781 132.9375 293.523438 132.863281 293.496094 132.785156 C 293.390625 132.804688 293.273438 132.824219 293.160156 132.847656 Z M 265.15625 123.671875 C 265.523438 125.152344 266.117188 126.503906 267.429688 127.421875 C 268.359375 128.074219 269.488281 128.566406 270.601562 128.777344 C 271.542969 128.953125 272.492188 128.914062 273.433594 128.832031 C 274.96875 128.6875 276.5 128.476562 278.03125 128.269531 C 280.472656 127.9375 282.914062 127.578125 285.351562 127.214844 C 288.457031 126.75 291.558594 126.269531 294.660156 125.785156 C 298.167969 125.234375 301.675781 124.675781 305.1875 124.109375 C 308.851562 123.511719 312.507812 122.910156 316.167969 122.296875 C 319.726562 121.703125 323.277344 121.101562 326.832031 120.484375 C 327.339844 120.394531 328.347656 120.21875 328.347656 120.21875 L 327.476562 119.996094 C 327.476562 119.996094 325.464844 120.34375 324.453125 120.519531 C 320.890625 121.132812 317.320312 121.734375 313.75 122.324219 C 310.121094 122.925781 306.484375 123.523438 302.851562 124.109375 C 299.421875 124.660156 295.996094 125.207031 292.558594 125.734375 C 289.59375 126.199219 286.625 126.652344 283.664062 127.085938 C 281.390625 127.421875 279.109375 127.75 276.832031 128.050781 C 275.035156 128.289062 273.085938 128.664062 271.277344 128.492188 C 269.222656 128.300781 266.949219 127.152344 266.046875 125.222656 C 265.808594 124.714844 265.652344 124.179688 265.527344 123.632812 C 265.503906 123.644531 265.15625 123.675781 265.15625 123.671875 Z M 327.359375 0.433594 C 324.613281 0.0078125 322.070312 1.757812 321.6875 4.339844 C 321.308594 6.921875 323.230469 9.355469 325.976562 9.78125 C 328.722656 10.207031 331.265625 8.457031 331.648438 5.875 C 332.027344 3.296875 330.109375 0.859375 327.359375 0.433594 Z M 343.203125 35.316406 C 343.179688 35.304688 343.179688 35.289062 343.179688 35.289062 C 343.175781 35.253906 343.148438 35.226562 343.140625 35.1875 C 343.03125 35.019531 342.914062 34.835938 342.792969 34.6875 C 342.617188 34.460938 342.394531 34.265625 342.164062 34.097656 C 341.269531 33.421875 340.023438 33.019531 338.59375 32.785156 C 337.628906 32.605469 336.582031 32.507812 335.492188 32.472656 C 335.421875 32.472656 335.371094 32.46875 335.300781 32.46875 C 332.8125 32.378906 330.179688 32.578125 328.007812 32.71875 C 322.808594 33.074219 316.652344 30.703125 304.960938 31.648438 C 302.859375 31.800781 301.179688 32.050781 299.839844 32.324219 C 299.035156 32.5 298.367188 32.699219 297.78125 32.933594 C 294.996094 33.980469 294.539062 35.53125 293.957031 37.5 C 293.75 38.207031 293.527344 38.957031 293.1875 39.746094 C 292.953125 40.296875 292.761719 40.859375 292.613281 41.394531 C 291.808594 44.164062 292.210938 46.464844 293.449219 47.976562 C 293.632812 48.195312 293.828125 48.398438 294.035156 48.578125 C 294.140625 48.671875 294.609375 48.871094 294.769531 48.90625 C 294.886719 48.933594 295.273438 48.746094 295.5625 48.625 C 295.921875 48.46875 296.28125 48.316406 296.640625 48.160156 C 298.859375 47.210938 302.765625 45.621094 308.054688 44.28125 C 308.679688 44.128906 309.320312 43.972656 309.980469 43.828125 C 310.496094 43.722656 311.007812 43.613281 311.554688 43.5 C 311.851562 43.441406 312.148438 43.371094 312.449219 43.316406 C 313.832031 43.066406 315.285156 42.835938 316.804688 42.648438 C 317.429688 42.566406 318.070312 42.484375 318.714844 42.417969 L 318.835938 42.40625 C 331.902344 41.085938 339.003906 44.066406 341.210938 44.492188 C 341.46875 44.550781 342.375 44.1875 342.375 44.1875 C 343.089844 43.921875 343.617188 43.371094 343.945312 42.648438 C 344.195312 42.109375 344.355469 41.46875 344.410156 40.777344 C 344.570312 39.066406 344.128906 37.042969 343.203125 35.316406 Z M 343.203125 35.316406 " fill-opacity="1" fill-rule="nonzero"/><path fill="#f4911e" d="M 327.355469 127 C 327.527344 127.589844 330.136719 126.878906 330.136719 126.878906 C 330.136719 126.878906 328.050781 129.007812 329.050781 128.898438 C 332.171875 128.558594 336.929688 127.109375 340.117188 124.367188 C 340.601562 123.996094 340.933594 123.699219 341.066406 123.539062 C 341.757812 122.691406 341.734375 121.253906 341.492188 119.96875 C 340.621094 120.460938 339.765625 120.847656 338.964844 121.128906 C 338.648438 121.113281 335.183594 121.589844 334.828125 121.546875 C 331.96875 122.078125 328.71875 123.007812 328.304688 124.324219 C 328.050781 125.121094 328.867188 125.15625 328.882812 125.15625 C 328.855469 125.183594 327.183594 126.414062 327.355469 127 Z M 317.238281 58.410156 C 317.253906 59.144531 321.539062 63.503906 325.027344 63.097656 C 326.285156 62.945312 329.371094 59.425781 329.558594 57.1875 C 330.246094 56.839844 330.726562 56.492188 330.722656 56.214844 C 330.714844 55.742188 328.449219 55.234375 327.609375 55.046875 C 327.527344 55.03125 327.460938 55.011719 327.410156 55 C 326.019531 54.671875 324.144531 53.835938 323.679688 53.980469 C 323.210938 54.128906 320.890625 55.734375 319.851562 56.238281 C 319.621094 56.347656 319.40625 56.449219 319.207031 56.535156 C 317.847656 57.136719 317.210938 57.351562 317.238281 58.410156 Z M 319.371094 58.992188 C 319.371094 58.992188 321.105469 59.253906 324.300781 58.929688 C 325.695312 58.785156 328.347656 57.835938 328.347656 57.835938 C 328.347656 57.835938 326.621094 61.339844 324.828125 61.585938 C 322.644531 61.882812 319.371094 58.992188 319.371094 58.992188 Z M 297.714844 120.78125 C 297.714844 120.78125 297.09375 120.664062 297.351562 119.976562 C 297.546875 119.472656 301.941406 119.488281 304.292969 119.539062 C 304.441406 119.59375 304.585938 119.636719 304.734375 119.660156 C 306.40625 119.9375 308.078125 119.636719 309.742188 119.230469 C 309.84375 120.167969 309.800781 121.085938 309.429688 121.730469 C 308.988281 122.503906 297.640625 124.78125 297.242188 124.003906 C 296.84375 123.230469 298.503906 122.453125 298.503906 122.453125 C 298.503906 122.453125 296.160156 122.632812 296.109375 122.097656 C 296.0625 121.5625 297.714844 120.78125 297.714844 120.78125 Z M 297.714844 120.78125 " fill-opacity="1" fill-rule="nonzero"/><path fill="#a6a6a6" d="M 278.894531 114.015625 C 279.011719 113.167969 281.804688 112.808594 285.535156 113.167969 C 285.535156 113.167969 287.773438 96.421875 288.464844 91.300781 C 288.464844 91.300781 288.46875 91.304688 288.46875 91.304688 C 288.46875 91.304688 288.59375 90.617188 288.738281 90.125 C 288.871094 89.667969 289.085938 89.214844 289.355469 88.703125 C 290.53125 86.5 292.734375 83.917969 291.453125 81.34375 C 291.117188 80.664062 290.472656 80.636719 289.820312 80.851562 L 291.664062 66.617188 C 291.664062 66.617188 292.097656 66.007812 293.070312 66.179688 C 294.050781 66.351562 294.597656 67.007812 294.597656 67.007812 L 288.464844 113.519531 C 288.464844 113.519531 288.550781 113.535156 288.59375 113.542969 C 292.238281 114.183594 294.765625 115.257812 294.660156 116.113281 C 294.539062 116.988281 291.703125 118.375 287.855469 118.136719 L 287.683594 119.429688 C 287.683594 119.429688 287.105469 120.089844 286.128906 119.996094 C 285.175781 119.910156 284.75 119.039062 284.75 119.039062 C 284.75 119.039062 284.816406 118.535156 284.933594 117.664062 C 281.457031 116.753906 278.785156 114.828125 278.894531 114.015625 Z M 286.582031 116.171875 C 290.625 116.714844 293.984375 116.59375 294.074219 115.890625 C 294.15625 115.28125 291.648438 114.417969 288.257812 113.851562 L 288.132812 114.832031 C 288.132812 114.832031 287.4375 115.230469 286.785156 115.1875 C 286.140625 115.140625 285.433594 114.671875 285.433594 114.671875 L 285.609375 113.496094 C 282.167969 113.140625 279.507812 113.320312 279.414062 113.929688 C 279.328125 114.628906 282.527344 115.636719 286.582031 116.171875 Z M 322.929688 78.722656 L 323.894531 81.9375 C 324.722656 81.464844 325.667969 81.070312 326.65625 80.746094 L 325.726562 77.65625 C 325.726562 77.65625 324.945312 77.238281 323.988281 77.550781 C 323.046875 77.867188 322.929688 78.722656 322.929688 78.722656 Z M 338.339844 129.96875 L 326.589844 90.875 C 327.625 91.195312 328.761719 91.496094 329.972656 91.765625 L 341.109375 128.820312 L 341.128906 128.871094 C 341.144531 128.863281 341.160156 128.859375 341.171875 128.851562 C 344.746094 127.667969 347.523438 127.515625 347.820312 128.476562 C 348.105469 129.441406 345.945312 131.695312 342.453125 133.289062 L 343.109375 135.460938 C 343.109375 135.460938 342.894531 136.449219 341.976562 136.84375 C 341.082031 137.226562 340.308594 136.527344 340.308594 136.527344 L 339.644531 134.316406 C 336.140625 135.308594 333.078125 135.125 332.800781 134.199219 C 332.519531 133.246094 334.847656 131.46875 338.339844 129.96875 Z M 333.226562 133.847656 C 333.464844 134.625 336.773438 134.070312 340.636719 132.59375 C 344.488281 131.132812 347.429688 129.3125 347.191406 128.53125 C 346.988281 127.847656 344.355469 128.207031 341.078125 129.3125 L 341.410156 130.402344 C 341.410156 130.402344 340.972656 131.171875 340.367188 131.445312 C 339.773438 131.722656 338.925781 131.589844 338.925781 131.589844 L 338.550781 130.265625 C 335.324219 131.632812 333.03125 133.15625 333.226562 133.847656 Z M 333.226562 133.847656 " fill-opacity="1" fill-rule="nonzero"/><path fill="#94ccca" d="M 134.296875 102.039062 C 134.1875 111.324219 121.0625 110.492188 114.714844 108.773438 C 114.109375 108.605469 114.371094 107.667969 114.96875 107.839844 C 116.742188 108.339844 118.558594 108.664062 120.398438 108.800781 C 125.273438 109.234375 134.015625 108.382812 133.257812 101.707031 C 133.1875 101.398438 133.40625 101.097656 133.726562 101.09375 C 141.386719 101.417969 143.171875 93.628906 137.871094 93.300781 C 137.269531 93.460938 137.003906 92.527344 137.617188 92.367188 C 144.25 92.25 143.066406 102.039062 134.296875 102.039062 Z M 105.410156 109.933594 C 105.132812 109.855469 104.910156 110.023438 104.8125 110.269531 C 104.066406 112.140625 102.777344 113.796875 101.1875 115.078125 C 94.523438 120.769531 83.984375 117.074219 81.886719 108.679688 C 81.820312 108.429688 81.765625 108.175781 81.71875 107.917969 C 81.570312 107.316406 80.613281 107.566406 80.78125 108.175781 C 82.46875 117.304688 93.675781 122.015625 101.175781 116.292969 C 102.226562 115.824219 106.917969 110.707031 105.410156 109.933594 Z M 74.78125 95.28125 C 68.566406 97.894531 59.734375 98.503906 55.734375 91.984375 C 53.945312 89.449219 55.023438 86.730469 54.046875 86.796875 C 53.769531 86.796875 53.582031 87.019531 53.5625 87.277344 C 53.199219 94.839844 61.660156 99.21875 68.367188 97.96875 C 69.089844 97.96875 77.789062 96.164062 74.78125 95.28125 Z M 66.9375 43.292969 C 49.46875 33.0625 37.351562 23.769531 28.398438 19.808594 C 24.804688 18.21875 16.375 16.347656 16.941406 23.328125 C 17.058594 24.796875 16.964844 25.558594 16.707031 25.847656 C 15.839844 26.789062 12.125 19.160156 5.601562 22.714844 C 0.0078125 25.761719 12.148438 52.65625 41.882812 74.628906 C 43.074219 75.511719 44.390625 76.355469 45.8125 77.171875 C 45.789062 77.082031 45.011719 73.933594 49.066406 75.097656 C 50.847656 75.613281 54.367188 77.964844 57.785156 80.460938 C 59.542969 80.011719 60.988281 79.058594 61.207031 77.199219 C 61.511719 74.609375 62.230469 72.371094 63.695312 71.492188 C 69.1875 68.199219 73.898438 82.824219 73.898438 82.824219 C 82.445312 72.269531 88.882812 81.535156 92.792969 90.753906 C 102.847656 92.078125 110.261719 92.109375 110.636719 90.761719 C 111.621094 87.21875 86.859375 54.96875 66.9375 43.292969 Z M 66.9375 43.292969 " fill-opacity="1" fill-rule="nonzero"/><path fill="#000000" d="M 136.3125 46.183594 C 133.40625 37.46875 128.988281 35.988281 123.761719 39.476562 C 120.691406 41.519531 119.355469 43.066406 116.519531 45.730469 C 111.921875 43.625 106.394531 41.28125 102.441406 40.808594 C 110.90625 28.957031 111.398438 31.289062 115.941406 27.46875 C 119.566406 24.421875 115.535156 21.167969 110.261719 19.851562 C 105.378906 18.632812 100.640625 18.960938 93.597656 25.078125 C 91.144531 22 85.679688 20.65625 82.9375 17.902344 C 72.925781 7.851562 67.347656 0 48.699219 7.574219 C 31.300781 14.632812 22.136719 26.746094 27.972656 46.195312 C 29.0625 49.824219 31.8125 58.546875 34.09375 61.382812 C 39.964844 68.671875 50.84375 69.53125 53.242188 70.402344 C 56.214844 71.484375 58.808594 73.945312 61.246094 76.871094 C 61.570312 74.417969 62.285156 72.328125 63.6875 71.492188 C 69.175781 68.199219 73.894531 82.824219 73.894531 82.824219 C 87.515625 66.011719 95.757812 99.503906 97.019531 102.964844 C 96.660156 96.480469 101.488281 97.570312 103.707031 101.140625 C 107.867188 94.433594 115.601562 93.84375 118.519531 98.644531 C 118.878906 92.636719 124.417969 85.121094 130.984375 89.210938 C 133.265625 85.628906 136.054688 80.203125 137.476562 73.488281 C 139.035156 66.09375 139.214844 54.898438 136.3125 46.183594 Z M 136.3125 46.183594 " fill-opacity="1" fill-rule="nonzero"/><path fill="#fdeee2" d="M 120.761719 52.265625 C 111.585938 43.6875 97.546875 43.445312 88.136719 43.953125 C 91.914062 38.167969 93.050781 32.027344 91.320312 28.601562 C 89.414062 24.824219 84.8125 23.933594 84.8125 23.933594 C 84.8125 23.933594 76.746094 15.042969 72.636719 18.171875 C 69.644531 20.449219 72.589844 26.15625 75.917969 30.007812 C 78.132812 32.578125 80.863281 34.078125 80.863281 34.078125 L 75.265625 39.816406 C 75.265625 39.816406 73.601562 34.558594 70.597656 32.128906 C 66 28.421875 58.730469 26.648438 55.875 28.039062 C 46.4375 32.648438 48.058594 50.207031 50.398438 53.882812 C 53.515625 58.773438 58.683594 60.746094 68.199219 57.804688 C 68.199219 57.804688 76.140625 51.183594 79.578125 49.511719 C 87.113281 45.855469 92.085938 49.621094 93.570312 50.765625 C 93.632812 50.890625 93.695312 51.007812 93.785156 51.132812 C 93.898438 51.300781 94.011719 51.472656 94.132812 51.632812 C 94.285156 51.855469 94.449219 52.085938 94.59375 52.3125 C 95.199219 53.238281 95.617188 54.015625 95.910156 54.773438 C 96.527344 56.339844 96.609375 57.894531 96.140625 59.15625 C 95.644531 60.484375 94.464844 61.660156 92.886719 62.378906 C 90.578125 63.433594 87.855469 63.441406 85.449219 63.441406 C 84.324219 63.441406 83.050781 63.441406 81.925781 63.976562 C 80.8125 64.507812 79.824219 65.742188 80.085938 67.078125 C 80.117188 67.238281 80.253906 67.347656 80.40625 67.347656 C 80.429688 67.347656 80.449219 67.347656 80.472656 67.339844 C 80.652344 67.308594 80.765625 67.132812 80.726562 66.960938 C 80.53125 65.957031 81.34375 64.984375 82.203125 64.570312 C 83.195312 64.097656 84.394531 64.097656 85.449219 64.097656 C 87.917969 64.097656 90.722656 64.09375 93.152344 62.976562 C 94.882812 62.183594 96.195312 60.878906 96.742188 59.386719 C 97.265625 57.976562 97.183594 56.253906 96.507812 54.539062 C 96.195312 53.738281 95.757812 52.921875 95.128906 51.960938 C 94.976562 51.726562 94.8125 51.492188 94.65625 51.265625 C 94.605469 51.195312 94.554688 51.121094 94.511719 51.058594 C 98.570312 51.148438 103.515625 53.621094 108.691406 57.117188 C 113.574219 60.414062 115.671875 65.480469 115.9375 69.027344 C 117.683594 69.25 121.988281 69.523438 124.371094 67.003906 C 127.078125 64.148438 125.382812 56.585938 120.761719 52.265625 Z M 68.058594 40.230469 C 66.964844 40.019531 65.765625 39.882812 64.8125 40.542969 C 64.085938 41.042969 63.945312 42.980469 64.097656 43.96875 C 64.308594 44.6875 63.160156 44.996094 62.988281 44.277344 C 62.523438 41.355469 63.523438 38.632812 66.9375 38.925781 C 67.414062 38.953125 67.898438 39.007812 68.367188 39.125 C 69.078125 39.3125 68.78125 40.425781 68.058594 40.230469 Z M 82.152344 27.453125 C 81.316406 27.277344 80.367188 27.195312 79.675781 27.664062 C 79.601562 27.730469 79.535156 27.800781 79.476562 27.875 C 79.105469 28.316406 79.03125 29.726562 79.121094 30.300781 C 79.335938 31.019531 78.1875 31.332031 78.011719 30.605469 C 77.894531 29.742188 77.886719 28.832031 78.160156 27.996094 C 78.664062 26.144531 80.878906 25.929688 82.460938 26.34375 C 83.175781 26.53125 82.875 27.648438 82.152344 27.453125 Z M 82.152344 27.453125 " fill-opacity="1" fill-rule="nonzero"/><path fill="#f4911e" d="M 83.066406 33.035156 C 82.539062 33.097656 80.652344 33.957031 80.046875 34.074219 C 79.046875 34.269531 77.3125 34.339844 76.996094 34.726562 C 76.675781 35.117188 76.109375 37.195312 75.5 38.207031 C 74.453125 39.949219 72.671875 41.863281 73.378906 42.886719 C 73.808594 43.5 80.894531 40.945312 82.09375 40.050781 C 83.195312 39.230469 83.769531 32.945312 83.066406 33.035156 Z M 110.425781 54.203125 C 109.664062 54.203125 108.066406 56.53125 108.066406 56.53125 C 108.066406 56.53125 104.539062 56.132812 103.015625 57.15625 C 101.808594 57.972656 102.238281 61.453125 102.238281 61.453125 C 102.238281 61.453125 98.097656 62.296875 98.371094 63.324219 C 99.425781 67.308594 113.46875 75.554688 116.363281 73.019531 C 119.304688 70.453125 114.523438 54.210938 110.425781 54.203125 Z M 132.300781 28.371094 C 131.59375 28.234375 129.613281 30.183594 129.613281 30.183594 C 129.613281 30.183594 126.414062 29.183594 124.78125 29.894531 C 123.488281 30.460938 123.15625 33.867188 123.15625 33.867188 C 123.15625 33.867188 119.128906 33.941406 119.164062 34.976562 C 119.308594 38.96875 130.640625 49.328125 133.867188 47.417969 C 137.144531 45.46875 136.105469 29.101562 132.300781 28.371094 Z M 132.300781 28.371094 " fill-opacity="1" fill-rule="nonzero"/></svg>